<svg id="Layer_1" enable-background="new 0 0 64 64" height="512" viewBox="0 0 64 64" width="512" xmlns="http://www.w3.org/2000/svg"><circle cx="47" cy="23.001" r=".5"/><path d="m53.388 13.5h-6.388-2.714c-.702 0-1.304.41-1.596 1h-2.19v-.5c0-.276-.224-.5-.5-.5s-.5.224-.5.5v.5h-2v-.5c0-.276-.224-.5-.5-.5s-.5.224-.5.5v.5h-2v-.5c0-.276-.224-.5-.5-.5s-.5.224-.5.5v.5h-2v-.5c0-.276-.224-.5-.5-.5s-.5.224-.5.5v.5h-2.06c-.166-.575-.692-1-1.32-1h-4.12-12.39c-1.715 0-3.11 1.395-3.11 3.11v3.39 6 6 6 6 3.39c0 1.715 1.396 3.11 3.11 3.11h12.39 4.12c.628 0 1.154-.425 1.32-1h2.06v.5c0 .276.224.5.5.5s.5-.224.5-.5v-.5h2v.5c0 .276.224.5.5.5s.5-.224.5-.5v-.5h2v.5c0 .276.224.5.5.5s.5-.224.5-.5v-.5h2v.5c0 .276.224.5.5.5s.5-.224.5-.5v-.5h2.19c.292.59.894 1 1.596 1h2.714 6.388c1.716 0 3.112-1.396 3.112-3.113v-30.774c0-1.717-1.396-3.113-3.112-3.113zm-44.888 19h7.002c.031.557.493 1 1.058 1h5.94v3h-5.94c-.564 0-1.026.443-1.058 1h-7.002zm0-6h14v4h-5.94c-.564 0-1.026.443-1.058 1h-7.002zm8 5.5.06-.5h5.94v.995l-6-.055zm0 6 .06-.5h5.94v.995l-6-.055zm6-17.505-6-.055v-.44l.06-.5h5.94zm-5.94 1.005h5.94v.5 3.5h-14v-5h7.002c.031.557.493 1 1.058 1zm-8.06 17h7.002c.031.557.493 1 1.058 1h5.94v1.5 1.5h-5.94c-.564 0-1.026.443-1.058 1h-7.002zm8 5.5.06-.5h5.94v.995l-6-.055zm7-5v-2-4-2-5-3.5h4v18h-4zm4-24.12v.12 6.5h-4v-.5-2-4.5h3.62c.213 0 .38.167.38.38zm-19 1.73c0-1.164.946-2.11 2.11-2.11h11.89v4h-5.94c-.564 0-1.026.443-1.058 1h-7.002zm0 30.78v-2.89h7.002c.031.557.493 1 1.058 1h5.94v4h-11.89c-1.164 0-2.11-.946-2.11-2.11zm19 1.73c0 .213-.167.38-.38.38h-3.62v-4.5-2-1.5h4v7.5zm1-8.12v-19-6.5h2v33h-2zm3-25.5h2v33h-2zm3 0h2v33h-2zm3 0h2v33h-2zm3 0h2v33h-2zm15 31.887c0 1.165-.947 2.113-2.112 2.113h-5.888v-24.5c0-.276-.224-.5-.5-.5s-.5.224-.5.5v24.5h-2.214c-.434 0-.786-.353-.786-.787v-33.426c0-.434.353-.787.786-.787h2.214v6.5c0 .276.224.5.5.5s.5-.224.5-.5v-6.5h5.888c1.165 0 2.112.948 2.112 2.113z"/><path d="m51 21.5c.827 0 1.5-.673 1.5-1.5s-.673-1.5-1.5-1.5-1.5.673-1.5 1.5.673 1.5 1.5 1.5zm0-2c.275 0 .5.224.5.5s-.225.5-.5.5-.5-.224-.5-.5.225-.5.5-.5z"/><path d="m53 23.5c-.827 0-1.5.673-1.5 1.5s.673 1.5 1.5 1.5 1.5-.673 1.5-1.5-.673-1.5-1.5-1.5zm0 2c-.275 0-.5-.224-.5-.5s.225-.5.5-.5.5.224.5.5-.225.5-.5.5z"/><path d="m53 33.5c-.827 0-1.5.673-1.5 1.5s.673 1.5 1.5 1.5 1.5-.673 1.5-1.5-.673-1.5-1.5-1.5zm0 2c-.275 0-.5-.224-.5-.5s.225-.5.5-.5.5.224.5.5-.225.5-.5.5z"/><path d="m53 43.5c-.827 0-1.5.673-1.5 1.5s.673 1.5 1.5 1.5 1.5-.673 1.5-1.5-.673-1.5-1.5-1.5zm0 2c-.275 0-.5-.224-.5-.5s.225-.5.5-.5.5.224.5.5-.225.5-.5.5z"/><path d="m51 31.5c.827 0 1.5-.673 1.5-1.5s-.673-1.5-1.5-1.5-1.5.673-1.5 1.5.673 1.5 1.5 1.5zm0-2c.275 0 .5.224.5.5s-.225.5-.5.5-.5-.224-.5-.5.225-.5.5-.5z"/><path d="m52.5 40c0-.827-.673-1.5-1.5-1.5s-1.5.673-1.5 1.5.673 1.5 1.5 1.5 1.5-.673 1.5-1.5zm-1.5.5c-.275 0-.5-.224-.5-.5s.225-.5.5-.5.5.224.5.5-.225.5-.5.5z"/><path d="m26 27.5c-.276 0-.5.224-.5.5v7c0 .276.224.5.5.5s.5-.224.5-.5v-7c0-.276-.224-.5-.5-.5z"/></svg>