<svg id="Layer_1" enable-background="new 0 0 64 64" height="512" viewBox="0 0 64 64" width="512" xmlns="http://www.w3.org/2000/svg"><circle cx="20.015" cy="28.021" r=".5"/><path d="m53.201 7.515-6.889-.015c-.456 0-.827.369-.827.823v1.043c-1.332-.304-2.605-.502-3.814-.614-.033-.007-.067-.011-.102-.009-7.763-.69-12.907 2.164-14.608 3.295l-.048-.179c-.164-.613-.796-.98-1.413-.816l-7.154 1.914c-.723.194-1.328.657-1.702 1.305-.375.647-.474 1.402-.28 2.125l.615 2.293-7.729 2.067c-.609.163-1.118.554-1.434 1.1s-.399 1.182-.236 1.79l7.753 28.895c.283 1.053 1.239 1.748 2.282 1.748.202 0 .407-.026.61-.08l7.729-2.068.616 2.294c.335 1.249 1.47 2.075 2.708 2.075.24 0 .483-.031.726-.096l7.153-1.914c.298-.079.547-.27.701-.537s.195-.577.116-.875l-.111-.414c.694-.505 2.82-1.85 5.603-1.688h.002c.642.038 1.317.155 2.018.381v1.319c0 .454.371.823.826.823h6.883c1.823 0 3.306-1.473 3.306-3.282v-39.422c-.001-1.806-1.481-3.277-3.3-3.281zm-35.233 45.717c-.72.199-1.473-.237-1.667-.961l-7.754-28.894c-.094-.35-.046-.716.136-1.03s.476-.539.827-.633l7.73-2.068 1.745 6.502c.072.266.35.421.612.354.267-.072.425-.347.354-.613l-1.074-4.002 4.947-1.324c.192-.053.384.062.435.251l.655 2.439-3.27.875c-.267.072-.425.346-.354.612.06.224.262.371.482.371.043 0 .086-.006.13-.017l3.271-.876.746 2.781-3.27.875c-.267.072-.425.346-.354.612.06.224.262.371.482.371.043 0 .086-.006.13-.017l3.271-.876.747 2.782-3.27.875c-.267.071-.425.346-.354.612.06.224.262.371.482.371.043 0 .086-.006.13-.017l3.271-.875.746 2.781-3.27.875c-.267.071-.425.346-.354.612.06.224.262.371.482.371.043 0 .086-.006.13-.017l3.271-.875.746 2.781-3.27.875c-.267.072-.425.346-.354.612.06.224.262.371.482.371.043 0 .086-.006.13-.017l3.271-.876.746 2.781-3.27.875c-.267.072-.425.346-.354.612.06.224.262.371.482.371.043 0 .086-.006.13-.017l3.272-.867.655 2.441c.024.091.012.186-.036.268s-.124.141-.216.165l-4.947 1.324-4.643-17.301c-.072-.267-.347-.418-.612-.354-.267.072-.425.347-.354.613l5.648 21.047zm19.025.221c-.015.024-.042.058-.093.07l-7.154 1.914c-.957.26-1.951-.313-2.208-1.272l-1.621-6.04 4.946-1.324c.35-.094.643-.318.823-.631.181-.313.229-.679.136-1.028l-1.789-6.668c0-.001 0-.002-.001-.003 0-.001-.001-.002-.001-.003l-1.004-3.743c0-.001 0-.002 0-.002 0-.001-.001-.002-.001-.002l-1.005-3.744v-.002c0-.001 0-.001 0-.001l-1.004-3.742c0-.002-.001-.004-.001-.006-.001-.002-.001-.004-.002-.006l-1.003-3.737c0-.002-.001-.004-.001-.005 0-.002-.001-.004-.002-.005l-.783-2.917c-.193-.723-.938-1.151-1.66-.959l-4.948 1.324-1.286-4.793c-.125-.464-.061-.948.18-1.364.241-.417.629-.715 1.095-.839l7.153-1.914c.083-.025.167.027.189.108l11.061 41.22c.013.052-.004.094-.016.114zm.594-1.819-1.642-6.12-8.707-32.449c.384-.268 1.189-.787 2.375-1.341l8.872 39.376c-.358.189-.66.375-.898.534zm4.384-1.623-4.358-32.119c-.037-.273-.287-.474-.563-.428-.273.037-.465.289-.428.563l4.362 32.15c-.576.128-1.102.302-1.571.493l-8.867-39.352c1.325-.54 2.996-1.064 4.979-1.376l.695 5.123c.034.251.249.433.495.433.022 0 .045-.001.068-.005.273-.037.465-.289.428-.563l-.695-5.122c1.385-.158 2.906-.208 4.55-.093l1.924 40.241c-.351-.002-.691.018-1.019.055zm3.514.3c-.512-.147-1.01-.243-1.491-.298l-1.922-40.209c1.089.118 2.227.31 3.414.59v39.917zm10.015-.093c0 1.259-1.034 2.282-2.306 2.282h-6.709v-44l6.714.015c1.269.002 2.301 1.025 2.301 2.281z"/><path d="m49.594 20.5c1.103 0 2-.896 2-1.998s-.897-1.997-2-1.997-2 .896-2 1.997.898 1.998 2 1.998zm0-2.995c.551 0 1 .447 1 .997 0 .551-.449.998-1 .998s-1-.447-1-.998c.001-.55.449-.997 1-.997z"/><path d="m49.594 32.495c1.103 0 2-.896 2-1.997s-.897-1.998-2-1.998-2 .896-2 1.998.898 1.997 2 1.997zm0-2.995c.551 0 1 .447 1 .998 0 .55-.449.997-1 .997s-1-.447-1-.997c.001-.551.449-.998 1-.998z"/><path d="m51.594 42.502c0-1.102-.897-1.997-2-1.997s-2 .896-2 1.997.897 1.998 2 1.998 2-.896 2-1.998zm-2 .998c-.551 0-1-.447-1-.998 0-.55.448-.997 1-.997s1 .447 1 .997c0 .551-.448.998-1 .998z"/><path d="m52.013 10.5c-1.104 0-2.002.897-2.002 2s.898 2 2.002 2 2.002-.897 2.002-2-.898-2-2.002-2zm0 3c-.552 0-1.002-.448-1.002-1s.45-1 1.002-1 1.002.448 1.002 1-.45 1-1.002 1z"/><path d="m52.013 22.5c-1.104 0-2.002.897-2.002 2s.898 2 2.002 2 2.002-.897 2.002-2-.898-2-2.002-2zm0 3c-.552 0-1.002-.448-1.002-1s.45-1 1.002-1 1.002.448 1.002 1-.45 1-1.002 1z"/><path d="m52.013 34.5c-1.104 0-2.002.897-2.002 2s.898 2 2.002 2 2.002-.897 2.002-2-.898-2-2.002-2zm0 3c-.552 0-1.002-.448-1.002-1s.45-1 1.002-1 1.002.448 1.002 1-.45 1-1.002 1z"/><path d="m52.013 46.5c-1.104 0-2.002.897-2.002 2s.898 2 2.002 2 2.002-.897 2.002-2-.898-2-2.002-2zm0 3c-.552 0-1.002-.448-1.002-1s.45-1 1.002-1 1.002.448 1.002 1-.45 1-1.002 1z"/><path d="m13.897 25.352c.24-.415.303-.898.179-1.36-.257-.954-1.24-1.528-2.199-1.268-.956.256-1.525 1.241-1.269 2.196.214.8.942 1.329 1.735 1.329.153 0 .309-.02.463-.061.464-.124.851-.42 1.091-.836zm-.866-.5c-.106.185-.278.315-.483.37-.423.114-.861-.138-.975-.562-.113-.422.139-.857.562-.971.069-.019.138-.027.206-.027.351 0 .673.234.769.589.055.204.027.417-.079.601z"/><path d="m16.579 35.349c.24-.415.304-.898.18-1.362-.256-.955-1.244-1.527-2.2-1.268-.956.256-1.525 1.242-1.269 2.197.215.8.942 1.329 1.734 1.329.153 0 .31-.021.464-.062.464-.123.851-.42 1.091-.834zm-.866-.501c-.106.184-.277.314-.483.369-.421.113-.861-.137-.975-.561-.113-.422.139-.858.562-.972.069-.019.138-.027.206-.027.352 0 .674.234.77.589.054.204.026.418-.08.602z"/><path d="m17.242 42.714c-.464.124-.851.421-1.091.836s-.303.898-.179 1.361c.214.8.942 1.329 1.735 1.329.153 0 .309-.02.464-.062.956-.256 1.525-1.242 1.269-2.197-.256-.954-1.244-1.521-2.198-1.267zm.671 2.499c-.427.114-.861-.139-.975-.562-.055-.204-.027-.418.079-.602s.278-.314.483-.369c.069-.019.138-.027.207-.027.351 0 .673.233.768.588.112.423-.14.859-.562.972z"/><path d="m16.186 30.577c.153 0 .309-.02.463-.061.463-.124.851-.421 1.091-.837.24-.414.303-.897.179-1.36-.256-.954-1.242-1.525-2.199-1.268-.956.256-1.525 1.241-1.269 2.196.215.801.942 1.33 1.735 1.33zm-.207-2.559c.069-.019.138-.027.206-.027.351 0 .673.234.769.589.055.204.027.417-.079.601-.106.185-.278.315-.483.37-.423.112-.861-.138-.975-.562-.113-.423.139-.858.562-.971z"/><path d="m18.402 37.047c-.956.256-1.525 1.242-1.269 2.197.124.462.421.849.837 1.089.276.159.583.24.894.24.156 0 .313-.021.467-.062.463-.124.851-.421 1.091-.836.24-.414.303-.897.179-1.361-.255-.954-1.241-1.527-2.199-1.267zm1.155 2.129c-.106.184-.278.314-.484.37-.206.053-.42.026-.604-.08-.184-.105-.315-.276-.37-.481-.113-.422.139-.858.562-.972.069-.019.138-.027.206-.027.351 0 .673.234.769.589.054.203.027.417-.079.601z"/><path d="m19.995 47.877c-.24.415-.304.898-.18 1.362.214.8.942 1.329 1.735 1.329.153 0 .309-.02.464-.062.463-.124.851-.421 1.09-.835.24-.415.304-.899.179-1.362-.124-.462-.421-.849-.837-1.089-.415-.238-.898-.302-1.361-.179-.463.125-.85.422-1.09.836zm.866.501c.106-.184.277-.314.483-.37.068-.018.138-.027.207-.027.138 0 .274.036.396.107.184.105.315.276.37.481.055.204.027.418-.079.602s-.278.315-.483.37c-.425.112-.861-.138-.975-.562-.053-.204-.026-.417.081-.601z"/></svg>