<svg id="Layer_1" enable-background="new 0 0 64 64" height="512" viewBox="0 0 64 64" width="512" xmlns="http://www.w3.org/2000/svg"><circle cx="26.85" cy="52.977" r=".5"/><path d="m32 13.3c.276 0 .5-.224.5-.5v-2.88c0-.276-.224-.5-.5-.5s-.5.224-.5.5v2.88c0 .276.224.5.5.5z"/><path d="m32 56.5c5.79 0 10.5-4.315 10.5-9.62 0-2.019-.677-3.951-1.958-5.587-1.018-1.3-1.355-3.091-.926-4.914.097-.413.146-.836.146-1.259 0-2.53-1.714-4.385-4.695-5.157 0-.009-.005-.017-.005-.026l-.635-14.717h.018c.367 0 .716-.159.958-.438.243-.28.353-.651.3-1.02l-.066-.462h1.13c.276 0 .5-.224.5-.5s-.224-.5-.5-.5h-1.272l-.266-1.88h1.538c.276 0 .5-.224.5-.5s-.224-.5-.5-.5h-1.68l-.085-.603c-.106-.751-.756-1.317-1.511-1.317h-2.982c-.755 0-1.404.566-1.511 1.317l-.085.603h-1.674c-.276 0-.5.224-.5.5s.224.5.5.5h1.533l-.266 1.88h-1.266c-.276 0-.5.224-.5.5s.224.5.5.5h1.125l-.066.463c-.052.368.057.74.3 1.02.241.278.59.438.958.438h.018l-.635 14.717c-.001.009-.005.016-.005.025-2.981.772-4.695 2.628-4.695 5.157 0 .422.049.846.146 1.259.43 1.822.092 3.613-.926 4.914-1.281 1.636-1.958 3.568-1.958 5.587-.002 5.305 4.708 9.62 10.498 9.62zm-2.083-26.034h4.167l.13 3.021h-4.427zm.344-7.976h3.479l.132 3.062h-3.587c-.056 0-.107.015-.157.032zm3.435-1h-3.392l.105-2.43h3.183zm-3.609 5.02c.06.026.127.041.197.041h3.63l.126 2.915h-4.08zm-.344 7.977h4.514l.039.895c.011.244-.076.475-.244.65-.166.173-.387.268-.625.268h-2.853c-.238 0-.459-.095-.625-.268-.168-.175-.255-.407-.244-.651zm-.39-20.36c-.031-.036-.081-.113-.065-.224l.701-4.946c.036-.26.26-.457.52-.457h2.982c.26 0 .483.197.521.458l.701 4.946c.016.111-.034.188-.065.224-.03.035-.096.093-.202.093h-.54-3.81-.54c-.107-.001-.173-.059-.203-.094zm4.073 1.093.122 2.84h-3.097l.122-2.84zm-9.18 26.689c1.207-1.541 1.612-3.64 1.112-5.759-.08-.338-.12-.685-.12-1.03 0-1.957 1.322-3.435 3.655-4.125l-.187 4.342c-.022.52.163 1.012.521 1.386.356.372.834.576 1.347.576h2.853c.513 0 .992-.205 1.347-.576.358-.375.543-.867.521-1.386l-.187-4.343c2.332.69 3.655 2.168 3.655 4.125 0 .346-.04.692-.12 1.03-.5 2.12-.094 4.219 1.112 5.759 1.142 1.459 1.746 3.178 1.746 4.971 0 4.753-4.262 8.62-9.5 8.62s-9.5-3.867-9.5-8.62c-.001-1.792.603-3.511 1.745-4.97z"/><path d="m32 47.38c2.376 0 4.31-1.408 4.31-3.14 0-.445-.123-.875-.365-1.275-.144-.237-.452-.313-.687-.17-.236.143-.313.45-.17.687.147.243.221.498.221.759 0 1.16-1.516 2.14-3.31 2.14s-3.31-.98-3.31-2.14c0-.601.387-1.046.712-1.313.979-.807 2.765-1.053 4.135-.577.261.092.546-.047.636-.308.091-.261-.047-.546-.308-.636-1.689-.587-3.855-.274-5.099.75-.694.572-1.076 1.313-1.076 2.085.001 1.73 1.935 3.138 4.311 3.138z"/><path d="m34.975 48.507h-5.946c-.276 0-.5.224-.5.5s.224.5.5.5h5.946c.276 0 .5-.224.5-.5s-.224-.5-.5-.5z"/><path d="m25.708 52.323c.127 0 .254-.048.352-.145.196-.194.198-.511.004-.707-.026-.027-2.628-2.715-1.597-5.834.087-.262-.056-.545-.318-.631-.263-.09-.545.056-.631.318-1.227 3.708 1.71 6.725 1.835 6.852.099.098.227.147.355.147z"/></svg>