<svg id="Layer_1" enable-background="new 0 0 64 64" height="512" viewBox="0 0 64 64" width="512" xmlns="http://www.w3.org/2000/svg"><circle cx="40.09" cy="44.043" r=".5"/><path d="m38.446 44.577c-2.612 1.449-6.556 1.605-9.475-1.313l-6.258-6.258c-.892-.892-2.173-1.148-3.339-.668-1.167.48-1.896 1.563-1.901 2.824l-.002.338h-4.971v-3.424c0-.276-.224-.5-.5-.5s-.5.224-.5.5v5.763c0 .862.662 1.564 1.502 1.645l.474 10.016h-.275c-.938 0-1.701.763-1.701 1.701v.799c0 .276.224.5.5.5h6c.276 0 .5-.224.5-.5v-.799c0-.938-.763-1.701-1.701-1.701h-.277l.437-10.016c.84-.082 1.501-.784 1.501-1.642l.012-2.675c.004-1.017.665-1.651 1.282-1.904.615-.254 1.532-.27 2.251.45l6.258 6.258c1.728 1.728 3.987 2.626 6.287 2.626 1.487 0 2.992-.375 4.38-1.145.241-.134.329-.438.195-.68-.133-.242-.436-.329-.679-.195zm-20.946 10.624v.299h-5v-.299c0-.387.314-.701.701-.701h3.598c.387 0 .701.314.701.701zm-3.023-1.701-.473-10h1.953l-.436 10zm2.322-11h-3.638c-.365 0-.661-.296-.661-.661v-1.339h4.966l-.006 1.339c0 .365-.296.661-.661.661z"/><path d="m50.5 26.551v-6.084c0-1.062-.848-1.925-1.901-1.96l1.753-3.463c.062.008.124.022.187.022.157 0 .315-.025.469-.075.381-.125.69-.391.871-.748s.212-.764.087-1.145c-.125-.38-.39-.69-.748-.871l-1.784-.903c-.358-.181-.764-.211-1.145-.087-.381.125-.69.391-.872.749-.294.581-.168 1.26.257 1.707l-2.434 4.807h-5.975c-.973 0-1.764.792-1.764 1.764v1.349c0 .489-.398.887-.887.887h-.114v-.5-11.592c.581-.207 1-.757 1-1.408 0-.827-.673-1.5-1.5-1.5h-2c-.827 0-1.5.673-1.5 1.5 0 .651.419 1.201 1 1.408v11.592.5h-.113c-.489 0-.887-.398-.887-.887v-6.958c0-1.135-.885-2.058-2-2.139v-2.108c.581-.207 1-.757 1-1.408 0-.827-.673-1.5-1.5-1.5h-2c-.827 0-1.5.673-1.5 1.5 0 .651.419 1.201 1 1.408v2.095c-1.105.015-2 .916-2 2.024v3.473c0 .276.224.5.5.5s.5-.224.5-.5v-3.473c0-.557.447-1.006 1-1.021v8.494 2.583c-.579.196-1 .739-1 1.383v.534h-4v-.365c0-.638-.371-1.186-.905-1.455l.598-2.39c.108-.434.013-.884-.262-1.236-.119-.153-.268-.271-.431-.363v-3.283c.581-.207 1-.757 1-1.408 0-.827-.673-1.5-1.5-1.5h-2c-.827 0-1.5.673-1.5 1.5 0 .651.419 1.201 1 1.408v3.283c-.163.092-.312.21-.431.363-.275.352-.37.802-.262 1.235l.598 2.391c-.534.269-.905.817-.905 1.455v.365h-.175c-3.212 0-5.825 2.613-5.825 5.825v1.681c0 .276.224.5.5.5s.5-.224.5-.5v-1.681c0-2.66 2.165-4.825 4.825-4.825h.675 4 5 4 2 3.963c3.053 0 5.537 2.484 5.537 5.537v4.622c0 1.764-.539 3.41-1.559 4.761-.167.22-.123.534.098.7.09.068.196.101.301.101.151 0 .301-.068.399-.199 1.152-1.525 1.761-3.38 1.761-5.363v-4.622c0-.639-.096-1.255-.268-1.839l.983-1.819c.292-.575.161-1.249-.267-1.686l4.148-8.194h.437c.533 0 .967.434.967.967v6.084c-1.14.232-2 1.242-2 2.449v2.154c0 .742.604 1.346 1.346 1.346h.654v2.501c0 .276.224.5.5.5s.5-.224.5-.5v-2.5h.654c.742 0 1.346-.604 1.346-1.346v-2.154c0-1.207-.86-2.217-2-2.449zm-2.19-14.115c.06-.119.164-.208.291-.25.051-.017.104-.025.156-.025.078 0 .154.018.225.054l1.784.903c.119.06.208.163.25.29s.031.262-.029.382c-.06.119-.164.208-.29.25-.127.042-.263.031-.381-.029l-1.784-.903c-.248-.125-.347-.426-.222-.672zm.214 1.79.892.452-1.935 3.822h-1.121zm-11.911 9.274c1.041 0 1.887-.847 1.887-1.887v-1.349c0-.421.343-.764.764-.764h5.469l-1.843 3.641-.575 1.136-1.044 2.061c-.605-.087-1.225.207-1.517.783l-.006.011c-.693-.328-1.449-.539-2.249-.605v-.561c0-.645-.421-1.187-1-1.383v-1.083zm6.48 3.668-.446-.226-.446-.226 1.355-2.677.892.452zm-7.593-5.668h-1v-11h1zm-1 1h1v2h-1zm-.5-14h2c.276 0 .5.224.5.5s-.224.5-.5.5h-2c-.276 0-.5-.224-.5-.5s.224-.5.5-.5zm-2.5 6.154v6.958c0 1.041.847 1.887 1.887 1.887h.113v1.083c-.579.196-1 .739-1 1.383v.535h-1v-.534c0-.645-.421-1.187-1-1.383v-2.583-8.469c.561.079 1 .541 1 1.123zm-2-2.154h-1v-2h1zm0 1v8h-1v-8zm-1 9h1v2h-1zm-.5-14h2c.276 0 .5.224.5.5s-.224.5-.5.5h-2c-.276 0-.5-.224-.5-.5s.224-.5.5-.5zm-9.143 13.169c.084-.107.21-.169.347-.169h1.593c.136 0 .263.062.347.169.084.108.113.245.08.378l-.615 2.453h-1.219l-.614-2.454c-.032-.132-.003-.269.081-.377zm.643-4.169h1v3h-1zm-.5-2h2c.276 0 .5.224.5.5s-.224.5-.5.5h-2c-.276 0-.5-.224-.5-.5s.224-.5.5-.5zm-.5 11v-.365c0-.35.285-.635.635-.635h1.729c.35 0 .635.285.635.635v.365zm9 0v-.534c0-.257.209-.466.466-.466h.034 2 .034c.257 0 .466.209.466.466v.534zm6 0v-.534c0-.257.209-.466.466-.466h.034 2 .034c.257 0 .466.209.466.466v.534zm9.83 2.416-.585 1.081c-.504-.954-1.235-1.771-2.124-2.374l.025-.05c.117-.23.397-.323.627-.205l.03.015 1.784.903c.001 0 .002 0 .003.001l.028.014c.229.116.321.397.212.615zm1.57-5.317-.892-.452 1.846-3.647h1.121zm6.6 7.555c0 .191-.155.346-.346.346h-2.308c-.191 0-.346-.155-.346-.346v-2.154c0-.827.673-1.5 1.5-1.5s1.5.673 1.5 1.5z"/></svg>