<svg id="Layer_1" enable-background="new 0 0 64 64" height="512" viewBox="0 0 64 64" width="512" xmlns="http://www.w3.org/2000/svg"><circle cx="36.464" cy="38.804" r=".5"/><path d="m41.288 44.79c-.677-1.128-1.742-2.702-3.165-4.678-.161-.224-.473-.274-.698-.114-.224.162-.275.474-.114.698 1.407 1.954 2.457 3.505 3.119 4.609 2.306 3.844 4.07 6.925 4.07 8.695 0 .827-.674 1.5-1.501 1.5h-21.998c-.827 0-1.5-.673-1.501-1.5 0-1.771 1.764-4.852 4.07-8.695 1.339-2.232 4.009-5.866 5.93-8.416v1.646c0 1.233.671 2.406 1.795 3.136l.741.481c.27.176.587.264.906.264.276 0 .554-.066.802-.201.474-.256.756-.711.756-1.215v-4.112c.104.137.203.269.31.411.098.131.248.2.4.2.104 0 .209-.033.299-.1.221-.166.266-.479.1-.7-.397-.53-.769-1.021-1.11-1.469v-16.766c.549-.083 1.031-.408 1.286-.917.48-.96.601-2.063.34-3.104l-.738-2.953h1.604c.276 0 .5-.224.5-.5s-.224-.5-.5-.5h-1.854l-.449-1.797c-.175-.702-.804-1.193-1.529-1.193h-2.318c-.725 0-1.354.491-1.53 1.194l-.207.827c-.034-.008-.067-.021-.104-.021h-1c-.276 0-.5.224-.5.5s.224.5.5.5h.86l-.5 2h-1.36c-.276 0-.5.224-.5.5s.224.5.5.5h1.11l-.236.943c-.26 1.042-.14 2.144.34 3.104.255.509.736.834 1.286.917v16.767c-1.908 2.509-5.225 6.954-6.788 9.558-2.466 4.112-4.212 7.18-4.212 9.211 0 1.378 1.123 2.5 2.501 2.5h21.998c1.378 0 2.5-1.122 2.501-2.5 0-2.031-1.746-5.099-4.212-9.21zm-7.788-14.59h-3v-2.467h3zm0-3.467h-3v-2.466h3zm-3 4.467h3v2.466h-3zm3-7.933h-3v-2.466h3zm-3 11.4h3v2.467h-3zm3-14.866h-3v-1.301h3zm-.232 21.535c-.163.089-.441.138-.687-.022l-.741-.481c-.839-.545-1.34-1.405-1.34-2.298v-.401h3v2.866c0 .183-.146.29-.232.336zm-4.159-24.236c-.373-.747-.467-1.604-.265-2.415l1.437-5.749c.064-.256.295-.436.56-.436h2.318c.265 0 .496.18.56.437l1.437 5.749c.202.81.108 1.668-.265 2.415-.124.247-.372.4-.647.4h-.244-4-.244c-.276-.001-.524-.154-.647-.401z"/><path d="m32 16.133c.276 0 .5-.224.5-.5v-4.642c0-.276-.224-.5-.5-.5s-.5.224-.5.5v4.642c0 .276.224.5.5.5z"/><path d="m29.513 44.55c-.249-.121-.547-.016-.667.233-.229.475-.345.985-.345 1.517 0 1.93 1.57 3.5 3.5 3.5s3.5-1.57 3.5-3.5-1.57-3.5-3.5-3.5c-.401 0-.793.067-1.167.2-.26.092-.396.378-.304.638.092.261.379.396.638.304.266-.094.546-.142.833-.142 1.378 0 2.5 1.122 2.5 2.5s-1.122 2.5-2.5 2.5-2.5-1.122-2.5-2.5c0-.38.083-.744.246-1.082.119-.25.014-.549-.234-.668z"/><path d="m26 50.5c-.276 0-.5.224-.5.5s.224.5.5.5h.793l1.615 1.615c.249.249.579.385.93.385h5.324c.352 0 .682-.137.93-.385l1.615-1.615h.793c.276 0 .5-.224.5-.5s-.224-.5-.5-.5zm8.885 1.908c-.059.059-.14.092-.223.092h-5.324c-.083 0-.165-.034-.223-.092l-.908-.908h7.586z"/></svg>