<svg id="Layer_1" enable-background="new 0 0 64 64" height="512" viewBox="0 0 64 64" width="512" xmlns="http://www.w3.org/2000/svg"><circle cx="39.729" cy="38.93" r=".5"/><path d="m27.666 36.159c-1.376 1.235-2.166 2.998-2.166 4.841 0 .276.224.5.5.5s.5-.224.5-.5c0-1.559.668-3.052 1.834-4.097.205-.185.223-.5.038-.706-.184-.207-.501-.223-.706-.038z"/><path d="m44.107 49.749c-.027-.046-.059-.088-.099-.123-.131-.138-.279-.263-.454-.355-.352-.184-.808-.491-.982-.911-.221-.53-.685-.86-1.211-.86h-.861v-6.66c0-.276-.224-.5-.5-.5s-.5.224-.5.5v6.66h-15v-6.5c0-2.81 1.553-5.322 4-6.616v.126c0 .546.439.99.98.99.119 0 .243-.024.317-.056 1.421-.475 2.984-.474 4.399-.002.302.104.636.057.891-.125.258-.184.412-.485.412-.808v-.129c.099.052.21.094.306.15 1.115.656 2.046 1.596 2.69 2.719.093.161.261.251.434.251.085 0 .171-.021.249-.066.239-.138.322-.443.185-.683-.731-1.272-1.786-2.339-3.051-3.083-.256-.15-.534-.273-.813-.398v-1.73c0-.839-.38-1.612-1-2.14v-19.4c0-1.379-1.121-2.5-2.5-2.5s-2.5 1.121-2.5 2.5v19.4c-.621.532-1 1.303-1 2.14v1.732c-3.042 1.38-5 4.367-5 7.728v6.5h-.861c-.526 0-.99.33-1.21.86-.176.42-.632.728-.983.911-.18.094-.329.223-.463.366-.017.016-.028.035-.042.053-.272.315-.44.712-.44 1.145v1.165c0 .276.224.5.5.5h8.5v.5c0 1.93 1.57 3.5 3.5 3.5s3.5-1.57 3.5-3.5v-.5h8.5c.276 0 .5-.224.5-.5v-1.165c0-.406-.151-.78-.393-1.086zm-12.107-41.249c.827 0 1.5.673 1.5 1.5v18.82c-.272-.085-.558-.13-.85-.13h-1.3c-.292 0-.578.045-.85.13v-18.82c0-.827.673-1.5 1.5-1.5zm-1.71 21.527c.31-.221.676-.337 1.06-.337h1.301c.384 0 .75.116 1.066.342.498.343.783.892.783 1.508l.019 2.955c-1.625-.54-3.415-.541-5.019.015v-2.97c0-.616.285-1.165.79-1.513zm4.21 22.973c0 1.379-1.121 2.5-2.5 2.5s-2.5-1.121-2.5-2.5v-.5h5zm9-1.5h-8.5-6-8.5v-.665c0-.12.033-.232.083-.335h16.529c.276 0 .5-.224.5-.5s-.224-.5-.5-.5h-15.286c.234-.233.413-.487.525-.756.023-.057.115-.244.287-.244h1.362 16 1.361c.172 0 .264.188.287.244 0 .001 0 .001.001.001.112.269.29.522.524.755h-2.173c-.276 0-.5.224-.5.5s.224.5.5.5h3.417c.05.103.083.215.083.335z"/></svg>