<svg id="Layer_1" enable-background="new 0 0 64 64" height="512" viewBox="0 0 64 64" width="512" xmlns="http://www.w3.org/2000/svg"><circle cx="39.28" cy="38.121" r=".5"/><path d="m51.061 35.939-3.313-3.313c1.158-2.385 1.752-4.947 1.752-7.626 0-4.806-1.949-9.163-5.096-12.329-.011-.014-.017-.032-.03-.045s-.03-.018-.045-.03c-3.165-3.147-7.523-5.096-12.329-5.096s-9.164 1.949-12.33 5.096c-.014.011-.031.016-.045.03-.013.013-.018.031-.03.045-3.146 3.166-5.095 7.523-5.095 12.329s1.949 9.163 5.096 12.329c.011.014.017.032.03.045s.03.018.045.03c.401.399.822.778 1.26 1.136.003.003.003.007.006.01l8.549 9.656-6.55 7.294h-4.829c-.276 0-.5.224-.5.5s.224.5.5.5h27.789c.276 0 .5-.224.5-.5s-.224-.5-.5-.5h-4.829l-6.55-7.294 8.539-9.645c.455-.371.893-.763 1.311-1.181.003-.003.006-.003.009-.006.002-.002.003-.005.005-.007.642-.643 1.234-1.343 1.777-2.09l2.783 2.783c.292.292.676.438 1.061.438s.768-.146 1.061-.438c.583-.584.583-1.536-.002-2.121zm-10.361.663c-.221.165-.265.479-.1.699.098.131.249.2.4.2.104 0 .21-.032.3-.101.455-.341.882-.713 1.294-1.099l.711.711c-2.911 2.74-6.739 4.35-10.805 4.473v-1.008c1.746-.055 3.452-.385 5.075-1.01.258-.1.386-.389.287-.646-.099-.258-.389-.385-.646-.287-1.664.641-3.419.966-5.216.966-7.995 0-14.5-6.505-14.5-14.5 0-2.017.406-3.968 1.206-5.8.111-.253-.005-.548-.258-.658-.253-.109-.548.007-.658.258-.789 1.806-1.202 3.723-1.265 5.7h-1c.126-4.17 1.801-7.95 4.476-10.791l.694.693c-.383.411-.752.839-1.095 1.296-.166.222-.121.535.1.7.221.168.535.121.7-.099 2.769-3.686 6.997-5.8 11.6-5.8 7.995 0 14.5 6.505 14.5 14.5 0 1.854-.362 3.643-1.037 5.341l-1.961-1.962-.204-.204c.134-.374.202-.768.202-1.174 0-1.93-1.57-3.5-3.5-3.5s-3.5 1.57-3.5 3.5 1.57 3.5 3.5 3.5c.406 0 .8-.068 1.176-.203l2.823 2.824c-.905 1.335-2.007 2.51-3.299 3.481zm-8.7 8.803-2.833-3.155c.924.151 1.866.25 2.833.25.954 0 1.895-.085 2.82-.236zm-11.292-8.407.707-.707c2.659 2.494 6.19 4.058 10.085 4.183v1c-4.171-.125-7.951-1.801-10.792-4.476zm-5.183-11.498h1c.125 3.895 1.689 7.425 4.183 10.085l-.707.706c-2.674-2.841-4.35-6.621-4.476-10.791zm32.95-1h-1c-.125-3.895-1.689-7.425-4.183-10.085l.707-.706c2.674 2.841 4.35 6.621 4.476 10.791zm-5.89-10.792c-2.659-2.494-6.19-4.058-10.085-4.183v-1c4.171.126 7.951 1.801 10.792 4.476zm-11.085-4.179c-3.818.12-7.356 1.605-10.086 4.178l-.705-.705c2.841-2.675 6.621-4.351 10.792-4.476v1.003zm9.578 19.727c-.339.162-.702.244-1.078.244-1.378 0-2.5-1.121-2.5-2.5s1.122-2.5 2.5-2.5 2.5 1.121 2.5 2.5c0 .377-.082.739-.244 1.077-.246.515-.664.934-1.178 1.179zm5.154 1.855c.766-1.78 1.18-3.663 1.241-5.611h1c-.065 2.228-.547 4.372-1.472 6.381zm-22.165 9.467c1.085.555 2.235.994 3.435 1.314l3.826 4.261-1.171 1.304zm7.933 10.469 3.942 4.453h-7.885zm7.721 4.453h-2.443l-4.61-5.207 1.18-1.334zm-6.249-7.623s-6.749 7.623-6.749 7.623h-2.443l12.2-13.587c1.191-.315 2.339-.755 3.431-1.308zm10.54-11.572-.706-.706c.514-.548.979-1.141 1.41-1.761l.729.729c-.439.617-.921 1.194-1.433 1.738zm6.342 1.049c-.195.195-.512.195-.707 0l-7.551-7.551c.268-.2.506-.439.708-.707l3.988 3.988h.001l3.562 3.562c.193.196.193.512-.001.708z"/></svg>