<svg id="Layer_1" enable-background="new 0 0 64 64" height="512" viewBox="0 0 64 64" width="512" xmlns="http://www.w3.org/2000/svg"><circle cx="11.06" cy="30.741" r=".5"/><path d="m55.424 19.5h-.115l-.607-1.214c-.242-.485-.729-.786-1.271-.786h-2.158c-.276 0-.5.224-.5.5s.224.5.5.5h2.158c.16 0 .305.089.377.233l.384.767h-20.383l.384-.767c.072-.144.217-.233.377-.233h14.43c.276 0 .5-.224.5-.5s-.224-.5-.5-.5h-14.431c-.542 0-1.029.301-1.271.786l-.607 1.214h-.115c-.217 0-.407.08-.576.191-.169-.111-.359-.191-.576-.191h-.115l-.607-1.214c-.242-.485-.729-.786-1.271-.786h-18.862c-.542 0-1.029.301-1.271.786l-.607 1.214h-.115c-.594 0-1.076.483-1.076 1.077v1.847c0 .594.482 1.077 1.076 1.077h.988l.705 5.171c.037.274.292.461.563.428.273-.038.465-.29.428-.563l-.687-5.037h1.983l1.412 12h-1.758l-.351-2.57c-.037-.274-.293-.464-.563-.428-.273.038-.465.29-.428.563l.332 2.435h-.2c-.276 0-.5.224-.5.5v2c0 .276.224.5.5.5h.6l.63 5.49c0 .004-.002.007-.002.01 0 .013.007.024.008.037l.037.326c.165 1.218 1.218 2.137 2.447 2.137h10.56c1.229 0 2.282-.918 2.449-2.147l.037-.325c.001-.01.006-.018.006-.028 0-.003-.002-.005-.002-.008l.63-5.492h.6c.276 0 .5-.224.5-.5v-2c0-.276-.224-.5-.5-.5h-.2l.138-1.013c.021.003.04.013.062.013h6c.022 0 .041-.01.062-.013l.138 1.013h-.2c-.276 0-.5.224-.5.5v2c0 .276.224.5.5.5h.599l.631 5.49c0 .004-.002.007-.002.01 0 .013.006.024.007.037l.038.327c.165 1.218 1.218 2.137 2.447 2.137h10.56c1.229 0 2.282-.918 2.449-2.147l.037-.325c.001-.01.006-.018.006-.028 0-.003-.002-.005-.002-.008l.63-5.492h.6c.276 0 .5-.224.5-.5v-2c0-.276-.224-.5-.5-.5h-.2l1.636-12h.988c.594 0 1.076-.483 1.076-1.077v-1.847c0-.594-.482-1.077-1.076-1.077zm-21.86 4 .818 6h-4.764l.818-6h.988c.217 0 .407-.08.576-.191.169.111.359.191.576.191zm-23.372-4.767c.072-.144.217-.233.377-.233h18.861c.16 0 .305.089.377.233l.384.767h-20.382zm-.192 3.767h-1.424c-.042 0-.076-.034-.076-.077v-1.847c0-.042.034-.077.076-.077h.424 22 .424c.042 0 .076.034.076.077v1.847c0 .042-.034.077-.076.077h-1.424zm10.5 13v-12h5.938l-1.412 12zm-6.938-12h5.938v12h-4.527zm11.718 22h-10.56c-.636 0-1.17-.423-1.368-1h13.297c-.203.58-.736 1-1.369 1zm1.541-2h-13.641l-.573-5h1.696l.199 2.539c.021.262.239.461.497.461.014 0 .026 0 .04-.001.275-.021.481-.262.459-.538l-.193-2.461h4.195v2.5c0 .276.224.5.5.5s.5-.224.5-.5v-2.5h4.195l-.193 2.461c-.022.275.184.516.459.538.014.001.026.001.04.001.258 0 .477-.199.497-.461l.199-2.539h1.697zm1.679-6h-.545-15.909-.546v-1h.272 16.455.273zm-2.467-2 1.412-12h1.983l-1.636 12zm3.467-2v-3h5v3zm5.073-10h1.983l1.412 12h-1.759zm15.865 0-1.412 12h-4.526v-12zm-6.938 12h-4.527l-1.412-12h5.939zm5.78 10h-10.56c-.636 0-1.17-.423-1.368-1h13.297c-.203.58-.736 1-1.369 1zm1.541-2h-13.641l-.574-5h1.697l.199 2.539c.021.262.239.461.497.461.014 0 .026 0 .04-.001.275-.021.481-.262.459-.538l-.193-2.461h4.195v2.5c0 .276.224.5.5.5s.5-.224.5-.5v-2.5h4.195l-.193 2.461c-.022.275.184.516.459.538.014.001.026.001.04.001.258 0 .477-.199.497-.461l.199-2.539h1.697zm1.679-6h-17v-1h17zm-.709-2h-1.759l1.412-12h1.983zm3.709-13.077c0 .042-.034.077-.076.077h-1.424-20-1.424c-.042 0-.076-.034-.076-.077v-1.847c0-.042.034-.077.076-.077h.424 22 .424c.042 0 .076.034.076.077z"/></svg>