<svg id="Layer_1" enable-background="new 0 0 64 64" height="512" viewBox="0 0 64 64" width="512" xmlns="http://www.w3.org/2000/svg"><circle cx="34" cy="32.001" r=".5"/><path d="m25.892 53.511c-.776.057-1.392.699-1.392 1.489 0 .827.673 1.5 1.5 1.5h12c.827 0 1.5-.673 1.5-1.5 0-.79-.616-1.432-1.392-1.489-3.554-.9-3.607-5.324-3.608-5.511v-6.5h1v1.5c0 .276.224.5.5.5s.5-.224.5-.5v-18c0-.276-.224-.5-.5-.5s-.5.224-.5.5v1.5h-1v-4.5-2-3-2-.66c0-.908-.091-1.832-.27-2.749l-.648-3.208c-.091-.512-.533-.883-1.052-.883h-1.06c-.519 0-.961.371-1.05.871l-.651 3.223c-.179.914-.269 1.838-.269 2.746v.66 2 3 2 2.797c-.603.351-1 .984-1 1.703 0 .722.4 1.357 1 1.705v1.592c-.603.351-1 .984-1 1.703 0 .722.4 1.357 1 1.705v1.592c-.603.351-1 .984-1 1.703 0 .722.4 1.357 1 1.705v1.592c-.603.351-1 .984-1 1.703 0 .722.4 1.357 1 1.705v4.795c0 .187-.054 4.611-3.608 5.511zm12.108 1.989h-12c-.276 0-.5-.224-.5-.5s.224-.5.5-.5h12c.275 0 .5.224.5.5s-.225.5-.5.5zm-2.12-2h-7.76c1.821-1.477 2.25-3.947 2.35-5h3.061c.1 1.053.529 3.523 2.349 5zm-.38-26v13h-1v-6.5c0-.276-.224-.5-.5-.5s-.5.224-.5.5v13.5h-3v-4c1.103 0 2-.897 2-2s-.897-2-2-2v-1c1.103 0 2-.897 2-2s-.897-2-2-2v-1c1.103 0 2-.897 2-2s-.897-2-2-2v-1c1.103 0 2-.897 2-2s-.897-2-2-2v-2h3v7.5c0 .276.224.5.5.5s.5-.224.5-.5v-2.5zm-5-12h3v1h-3zm0 5h3v1h-3zm3-3v2h-3v-2zm-2.75-5.711.72-3.289 1.13.069.649 3.216c.167.851.251 1.71.251 2.554v.16h-3v-.16c0-.843.084-1.702.25-2.55zm-.574 13.769c.107-.04.207-.058.324-.058.551 0 1 .449 1 1 0 .668-.65 1.192-1.337.938-.396-.137-.663-.514-.663-.938s.267-.801.676-.942zm0 5c.107-.04.207-.058.324-.058.551 0 1 .449 1 1 0 .668-.65 1.192-1.337.938-.396-.137-.663-.514-.663-.938s.267-.801.676-.942zm0 5c.107-.04.207-.058.324-.058.551 0 1 .449 1 1 0 .668-.65 1.192-1.337.938-.396-.137-.663-.514-.663-.938s.267-.801.676-.942zm0 5c.107-.04.207-.058.324-.058.551 0 1 .449 1 1 0 .668-.65 1.192-1.337.938-.396-.137-.663-.514-.663-.938s.267-.801.676-.942z"/></svg>