<svg id="Layer_1" enable-background="new 0 0 64 64" height="512" viewBox="0 0 64 64" width="512" xmlns="http://www.w3.org/2000/svg"><circle cx="21.71" cy="42.937" r=".5"/><path d="m51.5 22c0-.482-.032-.975-.095-1.464-.036-.273-.294-.473-.56-.432-.274.036-.467.286-.432.561.058.446.087.896.087 1.335 0 3.855-2.187 7.5-4.5 7.5s-4.5-3.645-4.5-7.5 2.187-7.5 4.5-7.5c1.437 0 2.875 1.379 3.754 3.599.102.258.392.385.649.281.257-.102.382-.393.281-.648-1.033-2.611-2.828-4.232-4.684-4.232-3.241 0-5.5 4.479-5.5 8.5s2.259 8.5 5.5 8.5 5.5-4.479 5.5-8.5z"/><path d="m18.5 33.5c-1.103 0-2 .897-2 2s.897 2 2 2h2.479l.138 3.32c.012.277.252.475.521.479.276-.012.49-.245.479-.521l-.137-3.278h12.04l-.396 9.518c-.058 1.392-1.195 2.482-2.589 2.482h-1.035-4-1.035c-1.394 0-2.531-1.091-2.589-2.482l-.083-2.012c-.012-.277-.265-.461-.52-.479-.276.012-.491.245-.479.521l.083 2.012c.08 1.93 1.656 3.441 3.588 3.441h.535v4.54c0 .805.655 1.46 1.46 1.46h2.08c.805 0 1.46-.655 1.46-1.46v-4.541h.535c1.932 0 3.508-1.512 3.588-3.441l.398-9.559h.702c.429 0 .777-.349.777-.777v-.223h7.879c1.169 0 2.121-.951 2.121-2.12v-1.915c3.902-.363 7-4.911 7-10.465 0-5.79-3.364-10.5-7.5-10.5s-7.5 4.71-7.5 10.5c0 5.554 3.098 10.102 7 10.465v1.915c0 .617-.503 1.12-1.121 1.12h-7.879v-1.223c0-.429-.349-.777-.777-.777h-.535l.185-4.43c.003-.017.011-.032.012-.05l.115-2.988v-.011-.001c0-.008-.004-.016-.004-.024s.004-.015.003-.023l-.889-16.005c-.077-1.384-1.222-2.468-2.609-2.468h-8.003c-1.386 0-2.532 1.084-2.608 2.468l-.889 16.005c0 .008.003.015.003.023s-.004.016-.004.024v.001.011l.115 2.988c.001.018.009.033.012.05l.185 4.43zm11 21.54c0 .254-.207.46-.46.46h-2.08c-.253 0-.46-.206-.46-.46v-4.54h3zm10-33.04c0-5.238 2.916-9.5 6.5-9.5s6.5 4.262 6.5 9.5-2.916 9.5-6.5 9.5-6.5-4.262-6.5-9.5zm-4 14.5h-.958-13.084-2.958c-.551 0-1-.448-1-1s.449-1 1-1h2.833 13.333.834zm-13.979-10h12.957l-.083 2h-12.79zm.867-16.478c.047-.854.755-1.522 1.61-1.522h8.003c.855 0 1.563.669 1.61 1.522l.86 15.478h-12.943zm-.742 19.478h12.707l-.167 4h-12.373z"/><path d="m24 10.5c-.276 0-.5.224-.5.5v1c0 .276.224.5.5.5s.5-.224.5-.5v-1c0-.276-.224-.5-.5-.5z"/><path d="m24 15.5c-.276 0-.5.224-.5.5v1c0 .276.224.5.5.5s.5-.224.5-.5v-1c0-.276-.224-.5-.5-.5z"/><path d="m28 10.5c-.276 0-.5.224-.5.5v1c0 .276.224.5.5.5s.5-.224.5-.5v-1c0-.276-.224-.5-.5-.5z"/><path d="m32 10.5c-.276 0-.5.224-.5.5v1c0 .276.224.5.5.5s.5-.224.5-.5v-1c0-.276-.224-.5-.5-.5z"/><path d="m28 15.5c-.276 0-.5.224-.5.5v1c0 .276.224.5.5.5s.5-.224.5-.5v-1c0-.276-.224-.5-.5-.5z"/><path d="m32 15.5c-.276 0-.5.224-.5.5v1c0 .276.224.5.5.5s.5-.224.5-.5v-1c0-.276-.224-.5-.5-.5z"/><path d="m24 20.5c-.276 0-.5.224-.5.5v1c0 .276.224.5.5.5s.5-.224.5-.5v-1c0-.276-.224-.5-.5-.5z"/><path d="m28 20.5c-.276 0-.5.224-.5.5v1c0 .276.224.5.5.5s.5-.224.5-.5v-1c0-.276-.224-.5-.5-.5z"/><path d="m32 20.5c-.276 0-.5.224-.5.5v1c0 .276.224.5.5.5s.5-.224.5-.5v-1c0-.276-.224-.5-.5-.5z"/></svg>