<svg id="Layer_1" enable-background="new 0 0 64 64" height="512" viewBox="0 0 64 64" width="512" xmlns="http://www.w3.org/2000/svg"><circle cx="15" cy="22.001" r=".5"/><path d="m52.5 25c0-.827-.673-1.5-1.5-1.5s-1.5.673-1.5 1.5.673 1.5 1.5 1.5 1.5-.673 1.5-1.5zm-2 0c0-.276.224-.5.5-.5s.5.224.5.5-.224.5-.5.5-.5-.224-.5-.5z"/><path d="m11.5 25c0 .827.673 1.5 1.5 1.5s1.5-.673 1.5-1.5-.673-1.5-1.5-1.5-1.5.673-1.5 1.5zm2 0c0 .276-.224.5-.5.5s-.5-.224-.5-.5.224-.5.5-.5.5.224.5.5z"/><path d="m36 17.5h2c.276 0 .5-.224.5-.5s-.224-.5-.5-.5h-2c-.276 0-.5.224-.5.5s.224.5.5.5z"/><path d="m27 17.5h6c.276 0 .5-.224.5-.5s-.224-.5-.5-.5h-6c-.276 0-.5.224-.5.5s.224.5.5.5z"/><path d="m39 18.5h-14c-.276 0-.5.224-.5.5s.224.5.5.5h14c.276 0 .5-.224.5-.5s-.224-.5-.5-.5z"/><path d="m39 20.5h-7c-.276 0-.5.224-.5.5s.224.5.5.5h7c.276 0 .5-.224.5-.5s-.224-.5-.5-.5z"/><path d="m25 21.5h3c.276 0 .5-.224.5-.5s-.224-.5-.5-.5h-3c-.276 0-.5.224-.5.5s.224.5.5.5z"/><path d="m39 22.5h-14c-.276 0-.5.224-.5.5s.224.5.5.5h14c.276 0 .5-.224.5-.5s-.224-.5-.5-.5z"/><path d="m54.56 40.5c1.07 0 1.94-.87 1.94-1.94v-15.23c0-1.009-.821-1.83-1.83-1.83h-13.17v-3h2.792c.666 0 1.208-.542 1.208-1.208v-1.096c0-1.352-.993-2.462-2.301-2.654-.061-.027-.128-.042-.199-.042h-17.613c-1.592 0-2.887 1.295-2.887 2.887v5.113h-5.5c-.276 0-.5.224-.5.5s.224.5.5.5h5.5v3h-2.5c-.276 0-.5.224-.5.5s.224.5.5.5h3 18 3c.276 0 .5-.224.5-.5s-.224-.5-.5-.5h-2.5v-3h13.17c.465 0 .83.365.83.83v15.23c0 .518-.422.94-.94.94h-1.06v-10.434c0-.864-.703-1.566-1.566-1.566h-39.868c-.864 0-1.566.703-1.566 1.566v10.434h-1.06c-.518 0-.94-.422-.94-.94v-15.23c0-.465.365-.83.83-.83h3.67c.276 0 .5-.224.5-.5s-.224-.5-.5-.5h-3.67c-1.009 0-1.83.821-1.83 1.83v15.23c0 1.07.87 1.94 1.94 1.94zm-11.638-25.992c.888.061 1.578.792 1.578 1.688v1.096c0 .114-.093.208-.208.208h-2.792v-1.5c0-.8.632-1.451 1.422-1.492zm-19.422 10.992v-9.113c0-1.041.846-1.887 1.887-1.887h15.614c-.314.418-.501.938-.501 1.5v9.5zm23.81 7h-.31-.31c-.103 0-.19-.087-.19-.19v-3.81h1v3.81c0 .103-.087.19-.19.19zm-9 0h-.31-.31c-.103 0-.19-.087-.19-.19v-3.81h1v3.81c0 .103-.087.19-.19.19zm-6 0h-.31-.31c-.103 0-.19-.087-.19-.19v-3.81h1v3.81c0 .103-.087.19-.19.19zm-9 0h-.31-.31c-.103 0-.19-.087-.19-.19v-3.81h1v3.81c0 .103-.087.19-.19.19zm-6 0h-.31-.31c-.103 0-.19-.087-.19-.19v-3.81h1v3.81c0 .103-.087.19-.19.19zm-5.81-3.434c0-.313.254-.566.566-.566h1.434v11h-2zm3-.566h1v3.81c0 .591.434 1.083 1 1.175v6.015h-2zm3 4.985c.566-.091 1-.583 1-1.175v-3.81h1v11h-2zm3-4.985h1v3.81c0 .591.434 1.083 1 1.175v6.015h-2zm3 4.985c.566-.091 1-.583 1-1.175v-3.81h1v11h-2zm3-4.985h2v11h-2zm3 0h1v3.81c0 .591.434 1.083 1 1.175v6.015h-2zm3 4.985c.566-.091 1-.583 1-1.175v-3.81h1v11h-2zm3-4.985h1v3.81c0 .591.434 1.083 1 1.175v6.015h-2zm3 4.985c.566-.091 1-.583 1-1.175v-3.81h1v11h-2zm3-4.985h2v11h-2zm3 0h1v3.81c0 .591.434 1.083 1 1.175v6.015h-2zm3 4.985c.566-.091 1-.583 1-1.175v-3.81h1v11h-2zm3 6.015v-11h1.434c.313 0 .566.254.566.566v10.434z"/></svg>