<svg id="Layer_1" enable-background="new 0 0 64 64" height="512" viewBox="0 0 64 64" width="512" xmlns="http://www.w3.org/2000/svg"><circle cx="41.47" cy="25.671" r=".5"/><path d="m54.411 18.5h-18.411-8-16-2-.411c-1.152 0-2.089.938-2.089 2.089v20.903c0 2.21 1.798 4.008 4.007 4.008h16.493 8 16.493c2.209 0 4.007-1.798 4.007-4.008v-20.903c0-1.151-.937-2.089-2.089-2.089zm-18.911 14h-7v-13h7zm-24-13v3.885c0 .063-.051.115-.115.115h-.771c-.063 0-.115-.052-.115-.115v-3.885zm-3 21.992v-20.903c0-.569.443-1.023 1-1.071v3.867c0 .575.442 1.032 1 1.092v1.255c0 .303.123.598.336.812l.689.689c-.647 1.108-1.025 2.393-1.025 3.767 0 4.136 3.364 7.5 7.5 7.5s7.5-3.364 7.5-7.5-3.364-7.5-7.5-7.5c-2.397 0-4.529 1.134-5.903 2.89l-.554-.554c-.027-.027-.043-.065-.043-.104v-1.255c.558-.06 1-.517 1-1.092v-3.885h15v13.5 11.5h-15.993c-1.658 0-3.007-1.35-3.007-3.008zm14.541-12.694c-.11-.254-.404-.367-.659-.258-.253.11-.368.405-.257.658.249.569.375 1.175.375 1.802 0 2.481-2.019 4.5-4.5 4.5s-4.5-2.019-4.5-4.5c0-.533.109-1.038.28-1.513l1.866 1.866c.098.098.226.147.354.147s.256-.049.354-.146c.195-.195.195-.512 0-.707l-2.111-2.111c.805-1.224 2.186-2.036 3.757-2.036.902 0 1.772.266 2.516.768.229.156.54.095.694-.134.155-.229.095-.54-.134-.694-.91-.615-1.973-.94-3.076-.94-1.846 0-3.478.917-4.477 2.316l-.713-.713c1.187-1.577 3.069-2.603 5.19-2.603 3.584 0 6.5 2.916 6.5 6.5s-2.916 6.5-6.5 6.5-6.5-2.916-6.5-6.5c0-1.096.275-2.129.757-3.036l.748.748c-.321.698-.505 1.471-.505 2.288 0 3.032 2.467 5.5 5.5 5.5s5.5-2.468 5.5-5.5c0-.766-.154-1.507-.459-2.202zm5.459 4.702h7v11h-7zm27 7.992c0 1.658-1.349 3.008-3.007 3.008h-15.993v-11.5-13.5h17.911c.601 0 1.089.488 1.089 1.089z"/><path d="m46 23.5c-1.158 0-2.268.257-3.298.763-.248.122-.35.422-.229.67s.421.349.669.229c.893-.439 1.855-.662 2.858-.662 3.584 0 6.5 2.916 6.5 6.5s-2.916 6.5-6.5 6.5-6.5-2.916-6.5-6.5c0-1.384.429-2.705 1.241-3.821.163-.223.113-.536-.11-.698-.223-.161-.537-.114-.699.11-.936 1.287-1.432 2.812-1.432 4.409 0 4.136 3.364 7.5 7.5 7.5s7.5-3.364 7.5-7.5-3.364-7.5-7.5-7.5z"/><path d="m46 36.5c3.033 0 5.5-2.468 5.5-5.5s-2.467-5.5-5.5-5.5-5.5 2.468-5.5 5.5 2.467 5.5 5.5 5.5zm0-10c2.481 0 4.5 2.019 4.5 4.5s-2.019 4.5-4.5 4.5-4.5-2.019-4.5-4.5 2.019-4.5 4.5-4.5z"/><path d="m24 39.5h-3-3-3-3c-.276 0-.5.224-.5.5v1.83c0 .921.749 1.67 1.669 1.67h1.831 3 3 1.831c.92 0 1.669-.749 1.669-1.67v-1.83c0-.276-.224-.5-.5-.5zm-11.5 2.33v-1.33h2v2h-1.331c-.369 0-.669-.301-.669-.67zm3-1.33h2v2h-2zm3 0h2v2h-2zm5 1.33c0 .369-.3.67-.669.67h-1.331v-2h2z"/><path d="m52 39.5h-3-3-3-3c-.276 0-.5.224-.5.5v1.83c0 .921.749 1.67 1.669 1.67h1.831 3 3 1.831c.92 0 1.669-.749 1.669-1.67v-1.83c0-.276-.224-.5-.5-.5zm-11.5 2.33v-1.33h2v2h-1.331c-.369 0-.669-.301-.669-.67zm3-1.33h2v2h-2zm3 0h2v2h-2zm5 1.33c0 .369-.3.67-.669.67h-1.331v-2h2z"/><path d="m52.5 20.5c-1.103 0-2 .897-2 2s.897 2 2 2 2-.897 2-2-.897-2-2-2zm0 3c-.551 0-1-.448-1-1s.449-1 1-1 1 .448 1 1-.449 1-1 1z"/><path d="m32 24.5c1.103 0 2-.897 2-2s-.897-2-2-2-2 .897-2 2 .897 2 2 2zm-.5-2.846v.346c0 .276.224.5.5.5s.5-.224.5-.5v-.346c.293.174.5.481.5.846 0 .552-.449 1-1 1s-1-.448-1-1c0-.366.207-.672.5-.846z"/><path d="m32 30.5c1.103 0 2-.897 2-2s-.897-2-2-2-2 .897-2 2 .897 2 2 2zm-.5-2.846v.346c0 .276.224.5.5.5s.5-.224.5-.5v-.346c.293.174.5.481.5.846 0 .552-.449 1-1 1s-1-.448-1-1c0-.366.207-.672.5-.846z"/><path d="m34 41.5h-2.5v-.5c0-.276-.224-.5-.5-.5s-.5.224-.5.5v.5h-.5c-.276 0-.5.224-.5.5s.224.5.5.5h.5v.5c0 .276.224.5.5.5s.5-.224.5-.5v-.5h2.5c.276 0 .5-.224.5-.5s-.224-.5-.5-.5z"/><path d="m34 38.5h-.5v-.5c0-.276-.224-.5-.5-.5s-.5.224-.5.5v.5h-2.5c-.276 0-.5.224-.5.5s.224.5.5.5h2.5v.5c0 .276.224.5.5.5s.5-.224.5-.5v-.5h.5c.276 0 .5-.224.5-.5s-.224-.5-.5-.5z"/><path d="m34 35.5h-2.5v-.5c0-.276-.224-.5-.5-.5s-.5.224-.5.5v.5h-.5c-.276 0-.5.224-.5.5s.224.5.5.5h.5v.5c0 .276.224.5.5.5s.5-.224.5-.5v-.5h2.5c.276 0 .5-.224.5-.5s-.224-.5-.5-.5z"/></svg>