<svg id="Layer_1" enable-background="new 0 0 64 64" height="512" viewBox="0 0 64 64" width="512" xmlns="http://www.w3.org/2000/svg"><circle cx="16" cy="36.001" r=".5"/><path d="m39.884 30.688c-.172-.215-.487-.25-.703-.077-.215.172-.25.487-.077.702 1.306 1.628 1.996 3.595 1.996 5.687 0 5.018-4.083 9.1-9.1 9.1s-9.1-4.082-9.1-9.1 4.083-9.1 9.1-9.1c1.799 0 3.539.523 5.031 1.515.231.153.541.091.693-.14.153-.229.09-.54-.14-.692-1.656-1.101-3.587-1.683-5.584-1.683-5.569 0-10.1 4.53-10.1 10.1s4.531 10.1 10.1 10.1 10.1-4.53 10.1-10.1c0-2.289-.787-4.53-2.216-6.312z"/><path d="m56 28.5c.276 0 .5-.224.5-.5v-.614c0-1.04-.846-1.886-1.886-1.886h-3.114v-.5c0-.276-.224-.5-.5-.5s-.5.224-.5.5v.5h-3.114c-1.04 0-1.886.846-1.886 1.886v.614c0 .276.224.5.5.5h4.5v4h-6.175c-.219 0-.433.041-.634.116-.579-1.539-1.451-2.933-2.552-4.116h1.554c.996 0 1.807-.811 1.807-1.807v-4.603c0-.877-.713-1.591-1.59-1.591h-8.82c-.877 0-1.59.714-1.59 1.591v2.435c-.167-.006-.331-.025-.5-.025-.509 0-1.007.04-1.5.099v-2.508c0-.877-.713-1.591-1.59-1.591h-8.82c-.877 0-1.59.714-1.59 1.591v4.603c0 .996.811 1.807 1.807 1.807h2.554c-1.101 1.183-1.972 2.576-2.552 4.116-.201-.075-.415-.116-.634-.116h-7.175v-9.092c.581-.207 1-.757 1-1.408 0-.336-.115-.644-.303-.895l3.071-4.605h6.118c.276 0 .5-.224.5-.5v-.614c0-1.04-.846-1.886-1.886-1.886h-4.5v-.501c0-.276-.224-.5-.5-.5s-.5.224-.5.5v.5h-4.5c-1.04 0-1.886.846-1.886 1.886v.614c0 .276.224.5.5.5h5.451l-2.701 4.05c-.118-.03-.239-.05-.365-.05-.827 0-1.5.673-1.5 1.5 0 .651.419 1.201 1 1.408v9.092h-2.174c-1.006 0-1.825.818-1.825 1.824v6.863c0 .724.589 1.313 1.312 1.313h4.429l-2.701 6.303c-.109.254.009.548.263.657.064.027.131.04.197.04.194 0 .378-.113.459-.303l2.87-6.697h.341l2.87 6.697c.082.19.266.303.46.303.066 0 .133-.013.197-.04.254-.109.372-.403.263-.657l-2.702-6.303h4.429c.192 0 .374-.052.542-.129.854 1.784 2.113 3.332 3.665 4.527l-1.749 1.749c-.195.195-.195.512 0 .707.099.097.227.146.355.146s.256-.049.354-.146l1.867-1.867c1.955 1.268 4.28 2.013 6.78 2.013s4.824-.745 6.78-2.013l1.867 1.867c.096.097.224.146.352.146s.256-.049.354-.146c.195-.195.195-.512 0-.707l-1.749-1.749c1.552-1.195 2.812-2.743 3.665-4.527.169.077.35.129.542.129h4.429l-2.701 6.303c-.109.254.009.548.263.657.064.027.131.04.197.04.194 0 .378-.113.459-.303l2.87-6.697h.341l2.87 6.697c.082.19.266.303.46.303.066 0 .133-.013.197-.04.254-.109.372-.403.263-.657l-2.702-6.303h4.429c.724 0 1.313-.589 1.313-1.313v-6.863c0-1.006-.818-1.824-1.825-1.824h-3.175v-4zm-45.886-13.114c0-.488.397-.886.886-.886h10c.488 0 .886.397.886.886v.114h-11.772zm1.886 6.114c.276 0 .5.225.5.5s-.224.5-.5.5-.5-.225-.5-.5.224-.5.5-.5zm28.5 2v4h-.397c-1.062-.908-2.279-1.635-3.603-2.148v-1.852zm2.193 4h-1.193v-4h2v3.193c0 .445-.362.807-.807.807zm-8.603-6h8.819c.326 0 .59.265.59.591v.409h-10v-.409c.001-.326.266-.591.591-.591zm-.59 2h2v1.508c-.647-.189-1.315-.327-2-.409zm-6 1.852v-1.852h2v1.252c-.691.141-1.355.35-2 .6zm-3.603 2.148h-1.397v-4h4v2.292c-.939.463-1.814 1.034-2.603 1.708zm-3.807-6h8.819c.326 0 .59.265.59.591v.409h-10v-.409c.001-.326.266-.591.591-.591zm-.59 5.193v-3.193h2v4h-1.193c-.445 0-.807-.362-.807-.807zm.687 14.807h-5.189c-.001 0-.002 0-.004 0h-6.182c-.172 0-.312-.141-.312-.312v-4.688h5.5c.276 0 .5-.224.5-.5s-.224-.5-.5-.5h-5.5v-1.176c0-.454.37-.824.825-.824h10.351c.11 0 .216.025.316.066-.179.626-.312 1.271-.392 1.934h-1.6c-.276 0-.5.224-.5.5s.224.5.5.5h1.525c-.006.167-.025.331-.025.5 0 1.572.304 3.072.836 4.459-.045.025-.095.041-.149.041zm11.813 7c-6.341 0-11.5-5.159-11.5-11.5s5.159-11.5 11.5-11.5 11.5 5.159 11.5 11.5-5.159 11.5-11.5 11.5zm23.187-7h-5.19c-.001 0-.002 0-.004 0h-6.182c-.053 0-.104-.016-.149-.041.534-1.387.838-2.887.838-4.459 0-.169-.019-.333-.025-.5h11.025v4.688c0 .171-.14.312-.313.312zm.313-7.176v1.176h-11.099c-.08-.662-.213-1.307-.392-1.934.099-.041.206-.066.316-.066h10.351c.454 0 .824.37.824.824zm-9-6.938c0-.488.397-.886.886-.886h7.229c.488 0 .886.397.886.886v.114h-9v-.114z"/></svg>