<svg id="Layer_1" enable-background="new 0 0 64 64" height="512" viewBox="0 0 64 64" width="512" xmlns="http://www.w3.org/2000/svg"><circle cx="27.5" cy="20.77" r=".5"/><path d="m34.497 31.879 7.742-13.411c.313-.541.783-1.037 1.438-1.517.86-.631 1.639-1.525 2.252-2.587.729-1.264 1.142-2.617 1.161-3.813.021-1.302-.421-2.281-1.247-2.757-.825-.479-1.896-.372-3.012.298-1.025.615-1.991 1.649-2.721 2.912-.613 1.061-.998 2.183-1.114 3.245-.088.806-.282 1.461-.595 2.002l-6.463 11.195-3.051-5.285c-.139-.239-.445-.322-.683-.183-.239.138-.321.443-.183.683l3.34 5.785-1.404 2.431-7.454-12.911c-.384-.665-.944-1.262-1.712-1.823-.75-.549-1.433-1.338-1.978-2.28-.646-1.118-1.011-2.301-1.028-3.329-.015-.922.25-1.588.748-1.875.496-.287 1.206-.184 1.998.29.882.529 1.724 1.437 2.369 2.555.545.943.886 1.93.986 2.853.103.947.339 1.73.723 2.395l1.459 2.527c.138.238.444.321.683.183s.321-.443.183-.683l-1.459-2.527c-.313-.541-.507-1.196-.595-2.002-.115-1.061-.501-2.183-1.114-3.245-.729-1.263-1.696-2.297-2.721-2.912-1.116-.67-2.186-.777-3.012-.298-.826.476-1.269 1.455-1.247 2.757.02 1.195.432 2.55 1.161 3.813.613 1.062 1.393 1.956 2.253 2.587.654.479 1.124.975 1.437 1.517l7.743 13.411-5.715 9.9c-.138.239-.056.545.183.683.237.139.544.057.683-.183l14.736-25.526c.384-.663.62-1.446.724-2.394.102-.926.442-1.912.985-2.854.646-1.118 1.488-2.025 2.37-2.555.79-.474 1.5-.578 1.997-.289.497.286.763.952.748 1.874-.018 1.028-.382 2.211-1.027 3.329-.545.942-1.229 1.731-1.978 2.28-.77.563-1.33 1.159-1.713 1.823l-21.32 36.927c-.162.281-.424.482-.738.566-.315.085-.641.04-.922-.121-.281-.163-.482-.425-.566-.738-.084-.314-.041-.642.122-.923l4.805-8.322c.138-.239.056-.545-.183-.683-.24-.14-.545-.057-.683.183l-4.805 8.322c-.296.513-.375 1.109-.222 1.682.153.571.52 1.05 1.033 1.345.341.197.72.298 1.104.298.192 0 .386-.025.577-.076.571-.153 1.049-.52 1.345-1.032l11.018-19.085 11.019 19.085c.296.513.773.879 1.345 1.032.19.051.385.076.577.076.384 0 .763-.101 1.104-.297.513-.296.88-.774 1.033-1.347.153-.571.074-1.169-.223-1.681zm11.554 22.722c-.084.314-.286.576-.567.739-.282.161-.608.205-.922.121s-.575-.285-.738-.566l-11.308-19.586 1.404-2.431 12.009 20.801c.162.281.206.608.122.922z"/></svg>