<svg id="Layer_1" enable-background="new 0 0 64 64" height="512" viewBox="0 0 64 64" width="512" xmlns="http://www.w3.org/2000/svg"><circle cx="11.58" cy="35.038" r=".5"/><path d="m13.802 42.955c-.195.195-.195.512 0 .707l6.536 6.536c.098.098.226.146.354.146s.256-.049.354-.146c.195-.195.195-.512 0-.707l-6.536-6.536c-.196-.196-.512-.196-.708 0z"/><path d="m22.536 36.705c-.631-.631-1.66-.631-2.293 0-.632.632-.632 1.661 0 2.293l4.759 4.759c.316.316.731.474 1.147.474.415 0 .831-.158 1.146-.474.632-.633.632-1.662 0-2.293zm4.052 6.345c-.242.242-.637.242-.879 0l-4.759-4.759c-.242-.243-.242-.637 0-.879s.637-.242.879 0l4.759 4.759c.242.242.242.637 0 .879z"/><path d="m17.07 39.877c-.632.632-.632 1.661 0 2.293l4.759 4.759c.316.316.731.474 1.146.474.416 0 .831-.158 1.147-.474.632-.632.632-1.661 0-2.293l-4.759-4.759c-.63-.631-1.66-.632-2.293 0zm6.346 6.346c-.241.243-.637.243-.879 0l-4.759-4.759c-.242-.243-.242-.637 0-.879.121-.121.28-.182.439-.182.16 0 .319.061.44.182l4.759 4.759c.242.242.242.636 0 .879z"/><path d="m25.795 48.602c-.632.632-.632 1.661 0 2.293.316.316.731.474 1.146.474s.83-.158 1.146-.474c.307-.306.476-.713.476-1.146 0-.434-.169-.841-.476-1.147-.631-.632-1.66-.632-2.292 0zm1.768 1.147c0 .166-.065.322-.183.439-.242.242-.637.242-.879 0-.242-.243-.242-.637 0-.879.121-.121.28-.182.439-.182s.318.061.439.182c.12.118.184.274.184.44z"/><path d="m21.829 50.981c-.632.632-.632 1.661 0 2.293.316.316.731.474 1.147.474.415 0 .831-.158 1.146-.474.632-.632.632-1.661 0-2.293-.632-.633-1.662-.632-2.293 0zm1.587 1.587c-.241.242-.637.243-.879 0s-.242-.637 0-.879c.121-.121.28-.182.439-.182.16 0 .319.061.44.182.242.242.242.636 0 .879z"/><path d="m51.968 13.618c.098.098.226.146.354.146s.256-.049.354-.146c.195-.195.195-.512 0-.707l-1.586-1.586c-.195-.195-.512-.195-.707 0s-.195.512 0 .707z"/><path d="m49.589 15.998c.098.098.226.146.354.146s.256-.049.354-.146c.195-.195.195-.512 0-.707l-1.586-1.586c-.195-.195-.512-.195-.707 0s-.195.512 0 .707z"/><path d="m47.209 18.377c.098.098.226.146.354.146s.256-.049.354-.146c.195-.195.195-.512 0-.707l-1.586-1.586c-.195-.195-.512-.195-.707 0s-.195.512 0 .707z"/><path d="m20.944 56.494c2.93 0 5.769-1.051 7.899-3.181 1.397-1.396 2.452-3.007 2.97-4.534.298-.879.323-1.775.323-2.693 0-1.048 1.007-1.826 2.835-2.192 1.374-.275 2.792-1.017 4.216-2.205.741-.619.966-1.589.572-2.472-.395-.885-1.273-1.366-2.224-1.231-1.068.153-2.057-.292-2.651-1.188-.596-.896-.62-1.982-.067-2.904l1.247-2.077 3.921-3.921h.001s.001-.001.001-.001l4.757-4.757h.001c.001-.001.001-.001.001-.002l2.033-2.034c.314.271.704.422 1.107.422.183 0 .367-.029.547-.089l.753-.251c.672-.224 1.292-.607 1.792-1.108l5.173-5.173c.465-.465.465-1.222 0-1.688l-5.365-5.365c-.449-.452-1.238-.452-1.688 0l-5.173 5.172c-.5.501-.884 1.121-1.108 1.792l-.251.752c-.192.578-.056 1.194.337 1.651l-10.35 10.35c-3.346-2.351-6.497-2.331-8.906.079-.525.525-.871 1.227-1.056 2.14-.393 1.851-2.005 3.117-3.842 3.015-2.189-.128-4.174.158-5.742.818-.254.107-.374.4-.267.655.081.191.266.306.461.306.065 0 .13-.013.194-.039 1.429-.602 3.262-.857 5.298-.742 2.32.136 4.38-1.468 4.878-3.81.146-.719.402-1.254.783-1.636 2.501-2.502 5.371-1.513 7.484-.07l-6.028 6.028c-.64.641-.64 1.683 0 2.322l1.558 1.558c.32.32.74.48 1.161.48s.841-.16 1.162-.48l3.868-3.868c-.279 1.018-.114 2.113.494 3.028.802 1.208 2.194 1.831 3.625 1.625.615-.084 1.005.278 1.17.647.164.369.172.904-.3 1.298-1.294 1.08-2.563 1.75-3.771 1.992-3.167.633-3.64 2.259-3.64 3.172 0 .831-.021 1.637-.27 2.372-.469 1.384-1.438 2.857-2.729 4.148-2.007 2.007-4.765 3.019-7.758 2.88-3.015-.151-5.91-1.469-8.152-3.711-4.316-4.316-4.984-10.809-1.554-15.103.172-.216.137-.53-.079-.703s-.53-.137-.703.079c-3.748 4.692-3.048 11.757 1.628 16.434 2.659 2.661 6.101 4.013 9.424 4.013zm11.549-22.522-2.466-2.466 1.672-1.672 2.466 2.465zm-2.379 2.38-2.466-2.466 1.672-1.672 2.466 2.466zm3.966-8.897 2.465 2.466-1.672 1.672-2.466-2.465zm2.379-2.379 2.466 2.465-1.672 1.673-2.465-2.466zm2.38-2.38 2.465 2.466-1.672 1.672-2.466-2.465zm2.379-2.379 2.466 2.465-1.673 1.673-2.465-2.466zm3.172 1.758-2.466-2.465 1.673-1.672 2.157 2.157.308.308zm-.874-6.192.251-.752c.176-.526.476-1.011.866-1.402l5.173-5.172c.05-.049.106-.056.137-.056s.087.007.137.057l5.364 5.363c.075.076.075.199 0 .275l-5.173 5.172c-.392.392-.876.691-1.401.866l-.753.251c-.258.086-.538.021-.73-.172l-.46-.46-2.975-2.975s-.001-.001-.002-.001l-.261-.261c-.193-.195-.259-.475-.173-.733zm-15.442 21.601-1.558-1.558c-.25-.25-.25-.658 0-.908l.425-.425 2.466 2.466-.425.425c-.25.25-.658.25-.908 0z"/></svg>