<svg id="Layer_1" enable-background="new 0 0 64 64" height="512" viewBox="0 0 64 64" width="512" xmlns="http://www.w3.org/2000/svg"><circle cx="34" cy="40.004" r=".5"/><path d="m34.5 50.795v-1.592c.603-.351 1-.984 1-1.703 0-.722-.401-1.358-1-1.705v-3.795c0-.276-.224-.5-.5-.5s-.5.224-.5.5v3.5c-1.103 0-2 .897-2 2s.897 2 2 2v1c-1.103 0-2 .897-2 2s.897 2 2 2v.5c0 .276-.224.5-.5.5h-2c-.276 0-.5-.224-.5-.5v-11.592c.581-.207 1-.757 1-1.408s-.419-1.201-1-1.408v-1.092c1.103 0 2-.897 2-2s-.897-2-2-2v-1.092c.581-.207 1-.757 1-1.408s-.419-1.201-1-1.408v-1.092c1.103 0 2-.897 2-2s-.897-2-2-2v-1.092c.581-.207 1-.757 1-1.408s-.419-1.201-1-1.408v-4.092h.55c.8 0 1.45-.65 1.45-1.45v-4.1c0-.8-.65-1.45-1.45-1.45h-.55v-1h3v27.5c0 .276.224.5.5.5s.5-.224.5-.5v-29.17c0-.733-.597-1.33-1.33-1.33h-2.34c-.733 0-1.33.597-1.33 1.33v2.684c-.556.038-1 .491-1 1.056v4.86c0 .565.444 1.018 1 1.056v2.014h-1.048c-1.076 0-1.952.875-1.952 1.952v18.097c0 1.076.875 1.952 1.952 1.952h.14c.151.424.484.757.908.908v11.591c0 .827.673 1.5 1.5 1.5h2c.827 0 1.5-.673 1.5-1.5v-.797c.603-.351 1-.984 1-1.703 0-.722-.401-1.358-1-1.705zm-4.5-8.295c-.276 0-.5-.224-.5-.5s.224-.5.5-.5.5.224.5.5-.224.5-.5.5zm-1.408-18c.151.424.484.757.908.908v1.389c-.603.351-1 .984-1 1.703h-1v-4zm0 8h-1.092v-3h1.289c.172.294.414.532.711.705v1.387c-.424.151-.757.484-.908.908zm-1.092 1h1.092c.151.424.484.757.908.908v1.389c-.603.351-1 .984-1 1.703h-1zm4 4c0 .668-.65 1.19-1.337.938-.396-.137-.663-.514-.663-.938s.267-.801.676-.942c.107-.04.207-.058.324-.058.551 0 1 .449 1 1zm-1.5-4c-.276 0-.5-.224-.5-.5s.224-.5.5-.5.5.224.5.5-.224.5-.5.5zm1.5-5c0 .668-.65 1.191-1.337.938-.396-.137-.663-.514-.663-.938s.267-.801.676-.942c.107-.04.207-.058.324-.058.551 0 1 .449 1 1zm-1.5-4c-.276 0-.5-.224-.5-.5s.224-.5.5-.5.5.224.5.5-.224.5-.5.5zm.83-16h2.34c.185 0 .33.145.33.33v.67h-3v-.67c0-.185.145-.33.33-.33zm-1.26 4h1.48c.244 0 .45.206.45.45v4.1c0 .244-.206.45-.45.45l-1.55-.07zm-1.118 9h1.048v1.092c-.424.151-.757.484-.908.908h-1.092v-1.048c0-.525.427-.952.952-.952zm-.952 19.048v-2.048h1.289c.172.294.414.532.711.705v1.387c-.424.151-.757.484-.908.908h-.14c-.525 0-.952-.427-.952-.952zm5 6.952c0-.551.449-1 1-1 .117 0 .217.018.337.063.396.137.663.514.663.938s-.267.801-.674.941c-.624.231-1.326-.275-1.326-.942zm1.326 5.941c-.624.232-1.326-.273-1.326-.941 0-.551.449-1 1-1 .117 0 .217.018.337.063.396.137.663.514.663.938s-.267.8-.674.94z"/></svg>