<svg id="Layer_1" enable-background="new 0 0 64 64" height="512" viewBox="0 0 64 64" width="512" xmlns="http://www.w3.org/2000/svg"><circle cx="21.95" cy="32.53" r=".5"/><path d="m54.667 15.5h-13.167-19-13.167c-1.011 0-1.833.822-1.833 1.833 0 .574.274 1.123.733 1.468l2.764 2.072c.54.404 1.208.627 1.882.627h1.621v28h-.366c-.901 0-1.634.732-1.634 1.634v1.366h-.589c-.761 0-1.434.485-1.674 1.207l-.712 2.135c-.051.152-.025.32.069.45.094.131.245.208.406.208h13c.161 0 .312-.077.405-.208.095-.13.12-.298.069-.45l-.712-2.135c-.24-.722-.913-1.207-1.674-1.207h-.588v-1.366c0-.901-.732-1.634-1.634-1.634h-.366v-28h2.191l3.523 7.037c-.686.632-1.303 1.351-1.829 2.151-.151.23-.088.54.144.692.227.15.539.088.692-.144 1.951-2.965 5.233-4.736 8.779-4.736 5.79 0 10.5 4.71 10.5 10.5s-4.71 10.5-10.5 10.5-10.5-4.71-10.5-10.5c0-.973.133-1.937.396-2.864.075-.266-.08-.542-.346-.617-.265-.076-.542.08-.617.346-.287 1.015-.433 2.07-.433 3.135 0 6.341 5.159 11.5 11.5 11.5s11.5-5.159 11.5-11.5c0-3.339-1.439-6.34-3.719-8.443l3.528-7.057h2.191v28h-.366c-.901 0-1.634.732-1.634 1.634v1.366h-.589c-.761 0-1.434.485-1.674 1.207l-.712 2.135c-.051.152-.025.32.069.45.094.131.245.208.406.208h13c.161 0 .312-.077.405-.208.095-.13.12-.298.069-.45l-.712-2.135c-.24-.722-.913-1.207-1.674-1.207h-.588v-1.366c0-.901-.732-1.634-1.634-1.634h-.366v-28h1.621c.674 0 1.342-.223 1.882-.627l2.764-2.072c.459-.345.733-.894.733-1.468 0-1.011-.822-1.833-1.833-1.833zm-13.667 1v4h-18v-4zm-29.403 3.572-2.764-2.072c-.208-.156-.333-.405-.333-.667 0-.459.374-.833.833-.833h12.667v4h-4-3-2.121c-.459 0-.914-.151-1.282-.428zm10.216 33.951.493 1.477h-11.613l.493-1.477c.104-.313.396-.523.725-.523h1.089 7 1.089c.329 0 .621.21.724.523zm-2.313-2.889v1.366h-6v-1.366c0-.35.284-.634.634-.634h.866 3 .866c.35 0 .634.284.634.634zm-2-1.634h-2v-28h2zm21.495-21.607c-1.941-1.494-4.362-2.393-6.995-2.393-2.574 0-5.011.868-6.992 2.389l-3.198-6.389h.69 19 .691zm13.818 26.13.493 1.477h-11.613l.493-1.477c.104-.313.396-.523.725-.523h1.089 7 1.089c.329 0 .621.21.724.523zm-2.313-2.889v1.366h-6v-1.366c0-.35.284-.634.634-.634h.866 3 .866c.35 0 .634.284.634.634zm-2-1.634h-2v-28h2zm6.667-31.5-2.764 2.072c-.368.276-.823.428-1.282.428h-2.121-3-4v-4h12.667c.459 0 .833.374.833.833 0 .262-.125.511-.333.667z"/><path d="m39.181 42.449c.229.156.54.095.694-.134 1.063-1.573 1.625-3.411 1.625-5.315 0-5.238-4.262-9.5-9.5-9.5s-9.5 4.262-9.5 9.5 4.262 9.5 9.5 9.5c2.322 0 4.559-.848 6.296-2.387.207-.183.227-.499.043-.705-.184-.209-.5-.228-.705-.043-1.555 1.377-3.556 2.135-5.634 2.135-4.687 0-8.5-3.813-8.5-8.5s3.813-8.5 8.5-8.5 8.5 3.813 8.5 8.5c0 1.704-.503 3.349-1.453 4.755-.155.229-.095.54.134.694z"/><path d="m28.5 37c0 1.93 1.57 3.5 3.5 3.5s3.5-1.57 3.5-3.5-1.57-3.5-3.5-3.5-3.5 1.57-3.5 3.5zm6 0c0 1.379-1.121 2.5-2.5 2.5s-2.5-1.121-2.5-2.5 1.121-2.5 2.5-2.5 2.5 1.121 2.5 2.5z"/></svg>