<svg id="Layer_1" enable-background="new 0 0 64 64" height="512" viewBox="0 0 64 64" width="512" xmlns="http://www.w3.org/2000/svg"><circle cx="14.17" cy="14.166" r=".5"/><path d="m52.17 27.5h-14.67c-.537 0-1.04-.207-1.417-.583s-.583-.88-.583-1.417c0-3.734-1.455-7.251-4.097-9.904-2.652-2.641-6.169-4.096-9.903-4.096-1.92 0-3.793.387-5.568 1.15-.253.109-.371.403-.262.657.11.254.406.369.657.262 1.649-.709 3.389-1.069 5.173-1.069 3.468 0 6.734 1.351 9.196 3.803 2.453 2.462 3.804 5.729 3.804 9.197 0 .804.311 1.559.876 2.124s1.319.876 2.124.876h14.67c1.836 0 3.33 1.494 3.33 3.33v6.67h-7.5c-.276 0-.5.224-.5.5s.224.5.5.5h7.5v2h-47v-2h36.5c.276 0 .5-.224.5-.5s-.224-.5-.5-.5h-36.5v-13c0-3.688 1.576-7.22 4.324-9.688.206-.185.223-.501.038-.706-.185-.207-.502-.222-.706-.038-2.959 2.658-4.656 6.46-4.656 10.432v13.5 3 7.608c0 1.595 1.297 2.892 2.892 2.892h43.216c1.595 0 2.892-1.297 2.892-2.892v-7.608-3-7.17c0-2.388-1.942-4.33-4.33-4.33zm-1.9 19h-.27-.27c-.125 0-.23-.105-.23-.23v-3.77h1v3.77c0 .125-.105.23-.23.23zm-6 0h-.27-.27c-.125 0-.23-.105-.23-.23v-3.77h1v3.77c0 .125-.105.23-.23.23zm-6 0h-.27-.27c-.125 0-.23-.105-.23-.23v-3.77h1v3.77c0 .125-.105.23-.23.23zm-12 0h-.27-.27c-.125 0-.23-.105-.23-.23v-3.77h1v3.77c0 .125-.105.23-.23.23zm-6 0h-.27-.27c-.125 0-.23-.105-.23-.23v-3.77h1v3.77c0 .125-.105.23-.23.23zm-11.77 3.108v-7.108h2v9h-.108c-1.043 0-1.892-.849-1.892-1.892zm3-7.108h2v9h-2zm3 0h2v9h-2zm3 0h1v3.77c0 .6.431 1.101 1 1.208v4.022h-2zm3 4.979c.569-.108 1-.609 1-1.208v-3.771h1v9h-2zm3-4.979h1v3.77c0 .6.431 1.101 1 1.208v4.022h-2zm3 4.979c.569-.108 1-.609 1-1.208v-3.771h1v9h-2zm3-4.979h2v9h-2zm3 0h2v9h-2zm3 0h1v3.77c0 .6.431 1.101 1 1.208v4.022h-2zm3 4.979c.569-.108 1-.609 1-1.208v-3.771h1v9h-2zm3-4.979h1v3.77c0 .6.431 1.101 1 1.208v4.022h-2zm3 4.979c.569-.108 1-.609 1-1.208v-3.771h1v9h-2zm3-4.979h1v3.77c0 .6.431 1.101 1 1.208v4.022h-2zm3 4.979c.569-.108 1-.609 1-1.208v-3.771h1v9h-2zm5 2.129c0 1.043-.849 1.892-1.892 1.892h-.108v-9h2z"/></svg>