<svg id="Layer_1" enable-background="new 0 0 64 64" height="512" viewBox="0 0 64 64" width="512" xmlns="http://www.w3.org/2000/svg"><circle cx="20" cy="24.001" r=".5"/><path d="m19.5 29.693c-1.153.421-1.982 1.513-1.997 2.807h-1.177c-.456 0-.826.371-.826.826v5.348c0 .455.371.826.826.826h1.174v11.967c0 1.673 1.361 3.033 3.034 3.033h2.466v.336c0 .918.747 1.664 1.664 1.664h14.672c.917 0 1.664-.746 1.664-1.664v-.336h2.466c1.673 0 3.034-1.36 3.034-3.033v-12.967h1.174c.456 0 .826-.371.826-.826v-4.348c0-.455-.371-.826-.826-.826h-1.177c-.014-1.294-.844-2.386-1.997-2.807v-20.311c0-1.038-.844-1.882-1.881-1.882h-21.238c-1.038 0-1.881.844-1.881 1.882v12.618c0 .276.224.5.5.5s.5-.224.5-.5v-12.618c0-.486.396-.882.881-.882h21.237c.486 0 .881.396.881.882v20.118h-.034-22.931-.034v-3.5c0-.276-.224-.5-.5-.5s-.5.224-.5.5zm-3 8.807v-5h1v5zm23.5 16.336c0 .366-.298.664-.664.664h-14.672c-.366 0-.664-.298-.664-.664v-.836-11.836c0-.366.298-.664.664-.664h14.672c.366 0 .664.298.664.664v11.836zm7.5-17.336h-1v-4h1zm-4.034-7c1.122 0 2.034.912 2.034 2.033v.467 5 13.467c0 1.121-.912 2.033-2.034 2.033h-2.466v-11.336c0-.918-.747-1.664-1.664-1.664h-14.672c-.917 0-1.664.746-1.664 1.664v11.336h-2.466c-1.122 0-2.034-.912-2.034-2.033v-12.467-6-.467c0-1.121.912-2.033 2.034-2.033z"/><path d="m26 9.5c-2.481 0-4.5 2.019-4.5 4.5s2.019 4.5 4.5 4.5 4.5-2.019 4.5-4.5-2.019-4.5-4.5-4.5zm0 8c-1.93 0-3.5-1.57-3.5-3.5 0-1.758 1.308-3.204 3-3.449v1.449c0 .276.224.5.5.5s.5-.224.5-.5v-1.449c1.692.245 3 1.691 3 3.449 0 1.93-1.57 3.5-3.5 3.5z"/><path d="m41.182 17.182c.85-.85 1.318-1.979 1.318-3.182s-.468-2.332-1.318-3.182c-1.755-1.756-4.609-1.754-6.364 0-.85.85-1.318 1.98-1.318 3.182s.468 2.332 1.318 3.182c.877.877 2.03 1.316 3.182 1.316s2.305-.439 3.182-1.316zm-6.682-3.182c0-.935.364-1.813 1.025-2.475.683-.683 1.579-1.023 2.475-1.023s1.792.341 2.475 1.023c.541.541.87 1.231.976 1.975h-1.451c-.276 0-.5.224-.5.5s.224.5.5.5h1.451c-.106.744-.435 1.434-.976 1.975-1.365 1.365-3.585 1.365-4.95 0-.661-.662-1.025-1.54-1.025-2.475z"/><path d="m27.5 23c0 2.481 2.019 4.5 4.5 4.5s4.5-2.019 4.5-4.5-2.019-4.5-4.5-4.5-4.5 2.019-4.5 4.5zm8 0c0 1.93-1.57 3.5-3.5 3.5s-3.5-1.57-3.5-3.5c0-1.758 1.308-3.204 3-3.449v1.449c0 .276.224.5.5.5s.5-.224.5-.5v-1.449c1.692.245 3 1.691 3 3.449z"/><path d="m32 37.5c1.378 0 2.5-1.121 2.5-2.5s-1.122-2.5-2.5-2.5-2.5 1.121-2.5 2.5 1.122 2.5 2.5 2.5zm0-4c.827 0 1.5.673 1.5 1.5s-.673 1.5-1.5 1.5-1.5-.673-1.5-1.5.673-1.5 1.5-1.5z"/><path d="m20.5 36c0 .076.019.146.049.21.002.004.001.009.003.014l1 2c.089.174.265.276.448.276.075 0 .151-.017.223-.053.247-.124.347-.424.224-.671l-.638-1.276h3.191c.276 0 .5-.224.5-.5s-.224-.5-.5-.5h-3.191l.638-1.276c.124-.247.023-.547-.224-.671s-.547-.023-.671.224l-1 2c-.002.004-.001.009-.003.014-.03.063-.049.133-.049.209z"/><path d="m39.549 36.21c.002.004.001.009.003.014l1 2c.089.174.265.276.448.276.075 0 .151-.017.223-.053.247-.124.347-.424.224-.671l-.638-1.276h3.191c.276 0 .5-.224.5-.5s-.224-.5-.5-.5h-3.191l.638-1.276c.124-.247.023-.547-.224-.671s-.547-.023-.671.224l-1 2c-.002.004-.001.009-.003.014-.03.063-.049.133-.049.209s.019.146.049.21z"/><path d="m38 43.5h-12c-.276 0-.5.224-.5.5s.224.5.5.5h12c.276 0 .5-.224.5-.5s-.224-.5-.5-.5z"/><path d="m38 46.5h-2c-.276 0-.5.224-.5.5s.224.5.5.5h2c.276 0 .5-.224.5-.5s-.224-.5-.5-.5z"/><path d="m26 47.5h8c.276 0 .5-.224.5-.5s-.224-.5-.5-.5h-8c-.276 0-.5.224-.5.5s.224.5.5.5z"/><path d="m38 49.5h-12c-.276 0-.5.224-.5.5s.224.5.5.5h12c.276 0 .5-.224.5-.5s-.224-.5-.5-.5z"/><path d="m38 52.5h-8c-.276 0-.5.224-.5.5s.224.5.5.5h8c.276 0 .5-.224.5-.5s-.224-.5-.5-.5z"/><path d="m28 52.5h-2c-.276 0-.5.224-.5.5s.224.5.5.5h2c.276 0 .5-.224.5-.5s-.224-.5-.5-.5z"/></svg>