<svg id="Layer_1" enable-background="new 0 0 64 64" height="512" viewBox="0 0 64 64" width="512" xmlns="http://www.w3.org/2000/svg"><circle cx="17.91" cy="42.251" r=".5"/><path d="m32 7.5c-8.699 0-22.5 3.665-22.5 13.5 0 4.217 2.623 11.761 6.682 19.219.133.242.437.331.679.2.242-.132.332-.436.2-.679-3.924-7.209-6.561-14.74-6.561-18.74 0-5.005 4.07-7.966 7.485-9.568 3.911-1.836 9.151-2.932 14.015-2.932s10.104 1.096 14.015 2.932c3.415 1.602 7.485 4.563 7.485 9.568 0 9.297-13.327 34.5-21.5 34.5-3.313 0-7.897-4.271-12.577-11.72-.148-.234-.459-.304-.689-.158-.234.147-.305.456-.158.689 2.86 4.553 8.407 12.189 13.424 12.189 9.225 0 22.5-26.483 22.5-35.5 0-9.835-13.801-13.5-22.5-13.5z"/><path d="m41.054 16.31c.171-.217.134-.531-.083-.702-2.578-2.034-5.68-3.108-8.971-3.108-7.995 0-14.5 6.505-14.5 14.5s6.505 14.5 14.5 14.5 14.5-6.505 14.5-14.5c0-3.291-1.074-6.393-3.107-8.971-.172-.218-.485-.255-.702-.083-.217.171-.254.485-.083.702 1.892 2.401 2.892 5.289 2.892 8.352 0 7.444-6.056 13.5-13.5 13.5s-13.5-6.056-13.5-13.5 6.056-13.5 13.5-13.5c3.063 0 5.951 1 8.352 2.893.216.17.531.133.702-.083z"/><path d="m29.805 38.46c.063.027.13.04.195.04.16 0 .315-.077.411-.216l8.317-12.014c.239-.347.267-.794.071-1.166-.195-.373-.578-.604-.999-.604h-3.78c-.133 0-.213-.075-.249-.119-.035-.045-.091-.139-.062-.269l1.778-8.004c.051-.229-.065-.464-.279-.563-.213-.1-.467-.034-.609.154l-8.246 10.995c-.258.344-.298.796-.106 1.181s.579.624 1.01.624h3.744c.131 0 .211.073.246.117.036.043.092.136.066.265l-1.804 9.021c-.046.233.077.465.296.558zm2.489-9.382c.078-.39-.021-.788-.273-1.096-.251-.307-.623-.482-1.02-.482h-3.744c-.065 0-.099-.039-.115-.071s-.026-.081.013-.134l6.854-9.141-1.275 5.74c-.087.393.007.797.258 1.111.252.313.627.494 1.029.494h3.78c.063 0 .097.037.113.068.017.032.028.081-.008.134l-6.942 10.027z"/></svg>