<svg id="Layer_1" enable-background="new 0 0 64 64" height="512" viewBox="0 0 64 64" width="512" xmlns="http://www.w3.org/2000/svg"><circle cx="17.78" cy="34.001" r=".5"/><path d="m55.642 21.611c-1.108-2.064-2.931-3.111-5.415-3.111-1.644 0-4.171-.14-6.879-.805-1.841-.453-3.48-1.083-4.872-1.873-1.765-1.003-3.133-2.267-4.038-3.705-1.024-2.194-3.242-3.612-5.648-3.612l-2.381-.004c-.207-.581-.757-1.001-1.409-1.001h-12c-.827 0-1.5.673-1.5 1.5s.673 1.5 1.5 1.5h1c.004 0 .401.015.688.354.326.384.418 1.069.267 1.981-.067.403.049.817.319 1.135.286.337.706.531 1.151.531h.09l.681 16.521c.011.275.237.495.52.479.276-.011.49-.244.479-.52l-.679-16.476h2.984l.223 34.995h-2.008l-.366-13.076c-.008-.276-.229-.497-.514-.486-.276.008-.493.238-.486.514l.365 13.048h-1.412c-.994 0-1.802.809-1.802 1.802v1.207c-1.11.05-2 .962-2 2.084v1.407c0 .276.224.5.5.5h12 .001.001 1.227c.126 0 .248-.048.341-.134l27.44-25.531c2.553-2.465 3.224-6.259 1.632-9.224zm-43.142-12.611c0-.276.224-.5.5-.5h12c.276 0 .5.224.5.5s-.224.5-.5.5h-1.298-9.702-1c-.276 0-.5-.224-.5-.5zm3.538 4.322c-.047-.055-.121-.17-.096-.325.174-1.049.079-1.887-.283-2.498h6.384c-.353.597-.448 1.414-.29 2.43-.003.038-.005.079-.002.107 0 .005.003.008.004.013.001.125-.049.225-.09.273-.096.113-.237.178-.388.178h-4.851c-.151 0-.293-.065-.388-.178zm5.461 1.154c.36-.053.691-.227.928-.507.122-.144.209-.31.265-.483h1.808v37.816c0-.994-.809-1.802-1.802-1.802h-.974zm6.501 7.029c.276 0 .5-.224.5-.5v-5.844c.639.788 1.307 1.531 2 2.228v29.565l-2 1.991v-24.737c0-.276-.224-.5-.5-.5s-.5.224-.5.5v25.732l-.552.549c-.581.605-1.065 1.255-1.448 1.924v-38.927h.148c.683 0 1.323.226 1.852.618v6.901c0 .277.224.5.5.5zm6 14.995c.276 0 .5-.224.5-.5v-15.292c.655.441 1.321.851 2 1.218v19.055l-2 1.991v-3.866c0-.276-.224-.5-.5-.5s-.5.224-.5.5v4.862l-2 1.991v-27.614c.651.592 1.32 1.145 2.007 1.657-.001.012-.007.022-.007.034v15.964c0 .276.224.5.5.5zm5.5-13.234v14.729l-2 1.991v-17.556c.658.315 1.326.591 2 .836zm7 1.234h2.588c.903 0 1.639.735 1.639 1.639 0 .426-.163.829-.45 1.128l-3.777 3.76zm-1 7.522-2 1.991v-9.727c.664.098 1.331.159 2 .188zm-3 2.986-2 1.991v-13.396c.662.204 1.328.381 2 .515zm-27 16.294c0-.442.36-.802.802-.802h1.926 2.998 1.471c.442 0 .802.36.802.802v1.134h-8v-1.134zm9 4.198h-11v-.906c0-.603.491-1.094 1.094-1.094h9.636c.149 0 .271.122.271.271v1.729zm28.822-25.391-27.29 25.391h-.518c.11-1.441.877-2.988 2.147-4.309l.691-.688c.001-.001.002-.002.003-.003l2.997-2.983.003-.003 2.998-2.984s.001-.001.001-.001l5.998-5.971c.001-.001.002-.002.002-.002l2.999-2.985 2.999-2.986s.001-.001.001-.001l4.636-4.615c.475-.494.737-1.144.737-1.829 0-1.455-1.184-2.639-2.639-2.639h-2.787c-3.055 0-6.095-.792-8.947-2.263-.065-.065-.152-.103-.246-.124-3.028-1.61-5.836-3.992-8.207-7.041-.783-1.008-1.968-1.585-3.252-1.585h-2.938c-.072-.725.021-1.287.294-1.621.288-.349.688-.365.698-.365h1.298c.65 0 1.2-.418 1.407-.998l2.381.004c2.02 0 3.882 1.191 4.772 3.089 1.023 1.633 2.511 3.012 4.421 4.097 1.472.836 3.198 1.5 5.128 1.974 2.805.69 5.418.834 7.117.834 2.088 0 3.613.87 4.534 2.584 1.383 2.571.788 5.873-1.438 8.023z"/></svg>