<svg id="Layer_1" enable-background="new 0 0 64 64" height="512" viewBox="0 0 64 64" width="512" xmlns="http://www.w3.org/2000/svg"><path d="m46.5 24.58c0-15.822-6.284-17.08-14.5-17.08s-14.5 1.258-14.5 17.08c0 10.815 2.931 20.525 7.667 25.537-1.347 1.6-2.667 3.717-2.667 5.883 0 .276.224.5.5.5h18c.276 0 .5-.224.5-.5 0-2.166-1.32-4.284-2.667-5.883 4.736-5.012 7.667-14.722 7.667-25.537zm-28 0c0-14.927 5.596-16.08 13.5-16.08s13.5 1.153 13.5 16.08c0 10.362-2.868 19.99-7.334 24.785-.353-.378-.693-.713-.994-.996-.463-.435-1.035-.713-1.646-.818l.551-9.915c4.051-1.771 6.923-6.091 6.923-11.136 0-4.53-2.315-8.481-5.72-10.523l.193-3.477h1.527c.276 0 .5-.224.5-.5s-.224-.5-.5-.5h-14c-.276 0-.5.224-.5.5s.224.5.5.5h1.527l.193 3.477c-3.405 2.042-5.72 5.993-5.72 10.523 0 5.045 2.872 9.365 6.924 11.136l.551 9.915c-.611.105-1.183.383-1.645.817-.302.283-.642.619-.995.997-4.467-4.794-7.335-14.423-7.335-24.785zm12.987 22.92-.251-9.042c.253.019.506.042.764.042s.511-.023.765-.042l-.252 9.042zm-2.014 0-.527-9.48c.418.132.848.233 1.285.31l.255 9.17zm-1.719-30.944c.589-.306 1.208-.549 1.852-.724l.597 21.48c-.45-.09-.889-.211-1.316-.366zm.107 19.945c-3.452-1.736-5.861-5.561-5.861-10.001 0-3.962 1.92-7.431 4.785-9.367zm8.611-24.001-.164 2.96c-.602-.281-1.234-.497-1.885-.657l.064-2.303zm-1.359 24.447c-.427.154-.866.275-1.316.365l.597-21.48c.645.175 1.264.418 1.852.724zm2.102-19.814c2.865 1.936 4.785 5.405 4.785 9.367 0 4.44-2.409 8.265-5.861 10.001zm-4.422 20.323c-.263.023-.525.044-.793.044s-.53-.021-.793-.044l-.607-21.835c.459-.072.924-.121 1.4-.121s.941.049 1.399.121zm.634-22.843c-.468-.067-.942-.113-1.427-.113s-.959.046-1.427.113l-.059-2.113h2.971zm-3.914-2.113.064 2.303c-.651.16-1.283.377-1.885.657l-.164-2.96zm4.256 25.83c.437-.078.867-.178 1.285-.31l-.527 9.48h-1.013zm-10.241 17.17c.296-2.669 2.85-5.336 3.985-6.403.409-.385.94-.597 1.494-.597h1.993.014 1.973.013 1.992c.554 0 1.085.212 1.495.598 1.135 1.066 3.688 3.733 3.984 6.402z"/></svg>