<svg id="Layer_1" enable-background="new 0 0 64 64" height="512" viewBox="0 0 64 64" width="512" xmlns="http://www.w3.org/2000/svg"><circle cx="42" cy="23.001" r=".5"/><path d="m17.5 26.5v-2.854c0-.08.065-.146.145-.146h22.355c.276 0 .5-.224.5-.5s-.224-.5-.5-.5h-22.355c-.631 0-1.145.514-1.145 1.146v2.854h-5.5c-.276 0-.5.224-.5.5v.5h-1.868c-.624 0-1.132.508-1.132 1.132v2.833c0 1.122.913 2.035 2.035 2.035h4.465c.276 0 .5-.224.5-.5s-.224-.5-.5-.5h-4.465c-.57 0-1.035-.465-1.035-1.035v-2.833c0-.072.059-.132.132-.132h1.868v1.5c0 .276.224.5.5.5h42c.276 0 .5-.224.5-.5v-1.5h1.868c.073 0 .132.06.132.132v2.833c0 .57-.464 1.035-1.035 1.035h-14.465-3-10-3-7c-.276 0-.5.224-.5.5s.224.5.5.5h6.697l6.239 11.958-5.239 10.042h-2.697c-.276 0-.5.224-.5.5s.224.5.5.5h20c.276 0 .5-.224.5-.5s-.224-.5-.5-.5h-2.697l-5.239-10.042 6.239-11.958h14.162c1.122 0 2.035-.913 2.035-2.035v-2.833c0-.624-.508-1.132-1.132-1.132h-1.868v-.5c0-.276-.224-.5-.5-.5h-5.5v-2.854c0-.632-.514-1.146-1.145-1.146h-2.355c-.276 0-.5.224-.5.5s.224.5.5.5h2.355c.08 0 .145.065.145.146v2.854zm-6 1.5v-.5h2v2h-2zm3-.5h2v2h-2zm3 0h2v2h-2zm3 0h2v2h-2zm3 0h2v2h-2zm3 0h2v2h-2zm3 0h2v2h-2zm3 0h2v2h-2zm3 0h2v2h-2zm3 0h2v2h-2zm3 0h2v2h-2zm3 0h2v2h-2zm3 0h2v2h-2zm5 2h-2v-2h2v.5zm-25.803 4 4.739 9.083-.936 1.794-5.675-10.877zm1.128 0h8.35l-4.175 8.002zm4.175 15.914 3.175 6.086h-6.35zm6.175 6.086h-1.872l-3.739-7.167.936-1.794zm-5.118-10.274-1.501 2.876v.001l-3.86 7.397h-1.872l11.479-22h1.872z"/></svg>