<svg id="Layer_1" enable-background="new 0 0 64 64" height="512" viewBox="0 0 64 64" width="512" xmlns="http://www.w3.org/2000/svg"><circle cx="9.08" cy="29.601" r=".5"/><path d="m49.904 29.107-12.378 1.238c-1.155.114-2.026 1.077-2.026 2.238v3.39c0 .29-.236.526-.526.526h-.752c.172-.295.278-.634.278-1 0-1.103-.897-2-2-2s-2 .897-2 2c0 .366.106.705.278 1h-1.557c.172-.295.278-.634.278-1 0-1.103-.897-2-2-2s-2 .897-2 2c0 .366.106.705.278 1h-5.277v-1.057c0-.521-.423-.943-.943-.943h-2.113c-.521 0-.943.423-.943.943v1.058h-1v-1.057c0-.521-.423-.943-.943-.943h-2.113c-.521 0-.943.423-.943.943v1.057h-2.476c-.29 0-.526-.236-.526-.526 0 0 .013-.984.036-1.104l.688-3.44c.054-.271-.121-.534-.393-.588-.268-.056-.533.121-.588.393l-.688 3.44c-.036.183-.055.37-.055.558v.74c0 .842.685 1.526 1.526 1.526h2.974 3 2 3 14.974c.842 0 1.526-.685 1.526-1.526v-3.39c0-.646.484-1.18 1.126-1.244l12.378-1.238c.274-.027.476-.272.447-.547-.027-.275-.281-.479-.547-.447zm-18.404 6.393c0-.552.448-1 1-1s1 .448 1 1-.448 1-1 1-1-.448-1-1zm-5 0c0-.552.448-1 1-1s1 .448 1 1-.448 1-1 1-1-.448-1-1zm-14.019 1-.038-1 2.057-.057v1.057zm5 0-.038-1 2.057-.057v1.057z"/><path d="m10.608 24.5c-.59 0-1.103.42-1.218.999l-.446 2.232c-.054.271.121.534.393.588.265.055.533-.12.588-.393l.446-2.232c.022-.112.122-.194.237-.194h.892v5.5c0 .827.673 1.5 1.5 1.5h19c.827 0 1.5-.673 1.5-1.5v-5.5h6v.918c0 .597.485 1.082 1.082 1.082h.836c.597 0 1.082-.485 1.082-1.082v-.918h1v.607c0 .768.625 1.393 1.393 1.393h7.215c.768 0 1.393-.625 1.393-1.393v-.607h2v2.398c0 .37-.277.677-.646.714l-2.924.293c-.274.027-.476.272-.447.547.025.258.243.45.496.45.017 0 .034-.001.051-.003l2.923-.292c.882-.088 1.547-.822 1.547-1.709v-2.898c0-.276-.224-.5-.5-.5zm18.905 4h.487l.5.013v2.987h-1v-2.987c0-.007.006-.013.013-.013zm-6 0h.487l.5.013v2.987h-1v-2.987c0-.007.006-.013.013-.013zm-9 0h.487l.5.013v2.987h-1v-2.987c0-.007.006-.013.013-.013zm-2.013 2.5v-5.5h2v2c-.553.007-1 .459-1 1.013v2.987h-.5c-.275 0-.5-.225-.5-.5zm3-3.5v-2h2v6h-1v-2.987c0-.554-.447-1.006-1-1.013zm3-2h2v6h-2zm3 6v-6h2v2c-.553.007-1 .459-1 1.013v2.987zm3-4v-2h2v6h-1v-2.987c0-.554-.447-1.006-1-1.013zm3 4v-6h2v2c-.553.007-1 .459-1 1.013v2.987zm5-.5c0 .275-.225.5-.5.5h-.5v-2.987c0-.554-.447-1.006-1-1.013v-2h2zm9-4.582c0 .045-.037.082-.082.082h-.836c-.045 0-.082-.037-.082-.082v-.918h1zm11-.311c0 .217-.176.393-.393.393h-7.215c-.217 0-.393-.176-.393-.393v-.607h8v.607z"/><path d="m38.5 28c0-.827-.673-1.5-1.5-1.5s-1.5.673-1.5 1.5.673 1.5 1.5 1.5 1.5-.673 1.5-1.5zm-2 0c0-.275.225-.5.5-.5s.5.225.5.5-.225.5-.5.5-.5-.225-.5-.5z"/></svg>