<svg id="Layer_1" enable-background="new 0 0 64 64" height="512" viewBox="0 0 64 64" width="512" xmlns="http://www.w3.org/2000/svg"><circle cx="20.63" cy="15.996" r=".5"/><path d="m18.5 51.675c0 1.007.819 1.825 1.826 1.825h1.981l-.781 2.342c-.051.152-.025.32.068.45.094.131.245.208.406.208h4c.161 0 .312-.077.406-.208.094-.13.12-.298.068-.45l-.78-2.342h12.612l-.781 2.342c-.051.152-.025.32.069.45.094.131.245.208.406.208h4c.161 0 .312-.077.405-.208.095-.13.12-.298.069-.45l-.78-2.342h1.981c1.007 0 1.825-.818 1.824-1.848l-1.928-42.088c-.052-1.157-1-2.064-2.159-2.064h-18.824c-1.159 0-2.108.906-2.161 2.064l-.202 4.413c-.013.275.201.51.477.521.269.05.51-.2.522-.477l.202-4.413c.029-.621.539-1.108 1.162-1.108h18.824c.623 0 1.133.487 1.161 1.109l1.927 42.066c0 .455-.37.825-.825.825h-2.675-2-14-2-2.674c-.455 0-.826-.37-.826-.803l1.542-33.675c.013-.275-.201-.51-.477-.521-.277-.047-.51.2-.522.477zm22.14 1.825.667 2h-2.613l.667-2zm-16 0 .667 2h-2.612l.667-2z"/><path d="m32 46.5c5.238 0 9.5-4.262 9.5-9.5s-4.262-9.5-9.5-9.5-9.5 4.262-9.5 9.5 4.262 9.5 9.5 9.5zm0-18c4.687 0 8.5 3.813 8.5 8.5s-3.813 8.5-8.5 8.5-8.5-3.813-8.5-8.5 3.813-8.5 8.5-8.5z"/><path d="m32 25.5c4.136 0 7.5-3.364 7.5-7.5s-3.364-7.5-7.5-7.5-7.5 3.364-7.5 7.5 3.364 7.5 7.5 7.5zm0-14c3.584 0 6.5 2.916 6.5 6.5s-2.916 6.5-6.5 6.5-6.5-2.916-6.5-6.5 2.916-6.5 6.5-6.5z"/><path d="m32 22.5c2.481 0 4.5-2.019 4.5-4.5s-2.019-4.5-4.5-4.5-4.5 2.019-4.5 4.5 2.019 4.5 4.5 4.5zm0-8c1.93 0 3.5 1.57 3.5 3.5s-1.57 3.5-3.5 3.5-3.5-1.57-3.5-3.5 1.57-3.5 3.5-3.5z"/><path d="m32 43.5c3.584 0 6.5-2.916 6.5-6.5 0-.415-.039-.831-.117-1.234-.054-.272-.318-.444-.586-.396-.271.053-.448.314-.396.586.066.342.1.693.1 1.045 0 3.032-2.468 5.5-5.5 5.5-3.033 0-5.5-2.468-5.5-5.5s2.467-5.5 5.5-5.5c1.758 0 3.425.852 4.458 2.277.164.226.478.271.698.112.224-.162.274-.476.112-.698-1.222-1.686-3.192-2.692-5.269-2.692-3.584 0-6.5 2.916-6.5 6.5s2.916 6.5 6.5 6.5z"/><path d="m25 48.5c-.827 0-1.5.673-1.5 1.5s.673 1.5 1.5 1.5h14c.827 0 1.5-.673 1.5-1.5s-.673-1.5-1.5-1.5zm14.5 1.5c0 .275-.225.5-.5.5h-14c-.276 0-.5-.225-.5-.5s.224-.5.5-.5h14c.275 0 .5.225.5.5z"/></svg>