<svg id="Layer_1" enable-background="new 0 0 64 64" height="512" viewBox="0 0 64 64" width="512" xmlns="http://www.w3.org/2000/svg"><circle cx="52" cy="29.001" r=".5"/><circle cx="12" cy="29.001" r=".5"/><circle cx="46" cy="39.001" r=".5"/><path d="m56.483 30.917c-.012-.067-.035-.127-.07-.182-.007-.011-.006-.024-.013-.034l-2.318-3.091c-.521-.694-1.35-1.109-2.217-1.109h-3.342c-.567-.624-1.373-1-2.254-1h-28.538c-.882 0-1.687.376-2.254 1h-3.342c-.868 0-1.697.415-2.217 1.109l-2.318 3.09c-.008.01-.006.024-.013.034-.035.055-.059.115-.07.182-.003.019-.01.036-.011.056-.001.01-.006.018-.006.028v6.805c0 .935.761 1.695 1.695 1.695h.805 34c.276 0 .5-.224.5-.5s-.224-.5-.5-.5h-33.5v-7h3.5 36 3.5v7h-5.5c-.276 0-.5.224-.5.5s.224.5.5.5h6 .805c.935 0 1.695-.761 1.695-1.695v-6.805c0-.01-.005-.018-.005-.027-.001-.02-.008-.037-.012-.056zm-4.619-3.417c.555 0 1.084.265 1.417.708l1.719 2.292h-1-3.661l-1.187-2.967-.013-.033zm-5.595-1c.846 0 1.596.507 1.91 1.293l1.083 2.707h-34.523l1.083-2.707c.003-.007.008-.012.011-.019.319-.774 1.061-1.275 1.9-1.275h28.536zm-35.551 1.708c.333-.443.863-.708 1.417-.708h2.726l-.013.033-1.187 2.967h-3.661-1zm-1.218 10.292h-.305c-.383 0-.695-.312-.695-.695v-6.305h1zm46-.695c0 .383-.312.695-.695.695h-.305v-7h1z"/><path d="m12.835 32.5c-.736 0-1.335.599-1.335 1.335v2.329c0 .736.599 1.335 1.335 1.335h2.329c.736 0 1.335-.599 1.335-1.335v-2.329c0-.736-.599-1.335-1.335-1.335zm2.665 1.335v2.329c0 .185-.15.335-.335.335h-2.329c-.185 0-.335-.15-.335-.335v-2.329c0-.185.15-.335.335-.335h2.329c.185 0 .335.15.335.335z"/><path d="m18.835 32.5c-.736 0-1.335.599-1.335 1.335v2.329c0 .736.599 1.335 1.335 1.335h2.329c.736 0 1.335-.599 1.335-1.335v-2.329c0-.736-.599-1.335-1.335-1.335zm2.665 1.335v2.329c0 .185-.15.335-.335.335h-2.329c-.185 0-.335-.15-.335-.335v-2.329c0-.185.15-.335.335-.335h2.329c.185 0 .335.15.335.335z"/><path d="m24.835 32.5c-.736 0-1.335.599-1.335 1.335v2.329c0 .736.599 1.335 1.335 1.335h2.329c.736 0 1.335-.599 1.335-1.335v-2.329c0-.736-.599-1.335-1.335-1.335zm2.665 1.335v2.329c0 .185-.15.335-.335.335h-2.329c-.185 0-.335-.15-.335-.335v-2.329c0-.185.15-.335.335-.335h2.329c.185 0 .335.15.335.335z"/><path d="m30.835 32.5c-.736 0-1.335.599-1.335 1.335v2.329c0 .736.599 1.335 1.335 1.335h2.329c.736 0 1.335-.599 1.335-1.335v-2.329c0-.736-.599-1.335-1.335-1.335zm2.665 1.335v2.329c0 .185-.15.335-.335.335h-2.329c-.185 0-.335-.15-.335-.335v-2.329c0-.185.15-.335.335-.335h2.329c.185 0 .335.15.335.335z"/><path d="m36.835 32.5c-.736 0-1.335.599-1.335 1.335v2.329c0 .736.599 1.335 1.335 1.335h2.329c.736 0 1.335-.599 1.335-1.335v-2.329c0-.736-.599-1.335-1.335-1.335zm2.665 1.335v2.329c0 .185-.15.335-.335.335h-2.329c-.185 0-.335-.15-.335-.335v-2.329c0-.185.15-.335.335-.335h2.329c.185 0 .335.15.335.335z"/><path d="m46.5 33.835c0-.736-.599-1.335-1.335-1.335h-2.329c-.736 0-1.335.599-1.335 1.335v2.329c0 .736.599 1.335 1.335 1.335h2.329c.736 0 1.335-.599 1.335-1.335zm-1 2.33c0 .185-.15.335-.335.335h-2.329c-.185 0-.335-.15-.335-.335v-2.329c0-.185.15-.335.335-.335h2.329c.185 0 .335.15.335.335z"/><path d="m48.835 37.5h2.329c.736 0 1.335-.599 1.335-1.335v-2.329c0-.736-.599-1.335-1.335-1.335h-2.329c-.736 0-1.335.599-1.335 1.335v2.329c0 .736.599 1.335 1.335 1.335zm-.335-3.665c0-.185.15-.335.335-.335h2.329c.185 0 .335.15.335.335v2.329c0 .185-.15.335-.335.335h-2.329c-.185 0-.335-.15-.335-.335z"/><path d="m24 28.5h22c.276 0 .5-.224.5-.5s-.224-.5-.5-.5h-22c-.276 0-.5.224-.5.5s.224.5.5.5z"/><path d="m18 28.5h3c.276 0 .5-.224.5-.5s-.224-.5-.5-.5h-3c-.276 0-.5.224-.5.5s.224.5.5.5z"/></svg>