<svg id="Layer_1" enable-background="new 0 0 64 64" height="512" viewBox="0 0 64 64" width="512" xmlns="http://www.w3.org/2000/svg"><circle cx="36" cy="53.004" r=".5"/><path d="m17 10.5h-.45c-1.13 0-2.05.92-2.05 2.05v.45c0 .276.224.5.5.5s.5-.224.5-.5v-.45c0-.579.471-1.05 1.05-1.05h.45c.276 0 .5-.224.5-.5s-.224-.5-.5-.5z"/><path d="m47.45 10.5h-.45c-.276 0-.5.224-.5.5s.224.5.5.5h.45c.579 0 1.05.471 1.05 1.05v.45c0 .276.224.5.5.5s.5-.224.5-.5v-.45c0-1.13-.92-2.05-2.05-2.05z"/><path d="m52.38 10.946c-.375-1.645-1.681-2.95-3.326-3.326-1.375-.315-2.779 0-3.857.859-1.078.86-1.696 2.143-1.696 3.547.009 1.59-.363 2.943-1.107 4.021-.107.155-.199.299-.273.428-.004.008-.008.016-.012.024h-5.609v-.499c0-.276-.224-.5-.5-.5s-.5.224-.5.5v.5h-1v-.5c0-.276-.224-.5-.5-.5s-.5.224-.5.5v.5h-1v-.5c0-.276-.224-.5-.5-.5s-.5.224-.5.5v.5h-1v-.5c0-.276-.224-.5-.5-.5s-.5.224-.5.5v.5h-1v-.5c0-.276-.224-.5-.5-.5s-.5.224-.5.5v.5h-5.608c-.004-.008-.008-.016-.012-.024-.121-.213-.298-.488-.499-.784-.635-.933-.932-2.126-.883-3.547.018-.533-.065-1.072-.247-1.603-.52-1.515-1.796-2.646-3.332-2.95-1.353-.268-2.726.07-3.771.928-1.046.858-1.647 2.126-1.648 3.479 0 1.094.481 2.162 1.357 3.007 1.081 1.044 2.137 1.521 3.272 1.493.489-.042.976.308 1.216.808 1.02 2.117 1.579 4.375 1.662 6.669l-.148 2.957c-.224 1.618-.68 3.192-1.356 4.68l-1.594 3.507c-3.264 7.18-.799 15.262 5.706 19.059l-.512.768c-.205.307-.224.7-.05 1.026s.513.529.882.529h20.129c.37 0 .708-.203.883-.53.174-.326.154-.72-.051-1.025l-.511-.767c6.505-3.795 8.97-11.877 5.706-19.059l-1.594-3.507c-2.063-4.539-2.019-9.729.124-14.237.253-.531.832-.873 1.379-.874 1.377 0 2.66-.618 3.521-1.696.859-1.081 1.172-2.488.859-3.861zm-10.764 6.554c-.452.963-.799 1.967-1.043 3h-4.073v-3zm-7.116 33v-2.574c.332-.048.665-.107 1-.183v2.757zm-2 0v-2.445s.769-.014 1-.028v2.473zm-2 0v-2.471c.229.013 1 .026 1 .026v2.445zm-2 0v-2.739c.331.072.665.129 1 .174v2.565zm-4.851-29h3.851v24.944c-2.618-.875-4.678-2.629-5.81-4.982-1.223-2.544-1.251-5.567-.08-8.513l1.149-2.892c1.088-2.732 1.372-5.714.89-8.557zm9.851 25.527c-.231.015-1 .028-1 .028v-25.555h1zm1-25.527h1v25.215c-.335.082-.669.153-1 .205zm-3 25.555s-.771-.012-1-.026v-25.529h1zm-2-.125c-.336-.049-.669-.116-1-.195v-25.235h1zm7-25.43h3.85c-.482 2.843-.197 5.825.89 8.558l1.149 2.892c1.17 2.941 1.143 5.958-.077 8.494-1.129 2.349-3.191 4.102-5.813 4.978v-24.922zm-1-4v3h-1v-3zm-2 0v3h-1v-3zm-2 0v3h-1v-3zm-2 0v3h-1v-3zm-2 0v3h-4.073c-.245-1.033-.592-2.037-1.044-3zm23.238-3.32c-.669.839-1.667 1.32-2.749 1.32-.002 0-.004 0-.006 0-.959 0-1.848.566-2.265 1.444-2.27 4.775-2.318 10.272-.132 15.081l1.594 3.507c3.065 6.744.734 14.334-5.401 17.843-.521-.546-1.232-.875-2.003-.875h-1.776c-.276 0-.5.224-.5.5s.224.5.5.5h1.776c.599 0 1.154.298 1.486.796l.802 1.204-20.129-.001.802-1.203c.332-.498.887-.796 1.486-.796h9.777c.276 0 .5-.224.5-.5s-.224-.5-.5-.5h-9.776c-.77 0-1.482.328-2.003.874-6.135-3.509-8.467-11.099-5.401-17.842l1.594-3.507c.716-1.576 1.2-3.243 1.44-5l.153-3.043c-.088-2.476-.681-4.868-1.76-7.11-.417-.866-1.273-1.412-2.153-1.374-.527.034-1.376-.086-2.542-1.212-.678-.655-1.052-1.468-1.051-2.288 0-1.052.468-2.038 1.282-2.706s1.889-.928 2.942-.72c1.169.232 2.183 1.133 2.581 2.294.142.415.208.834.194 1.244-.057 1.638.299 3.032 1.056 4.143.183.27.345.521.456.715 2.162 3.82 2.469 8.576.82 12.721l-1.149 2.892c-1.275 3.208-1.237 6.516.109 9.314 1.294 2.693 3.673 4.684 6.698 5.606.004.001.008.002.012.003v2.996h-1.502c-.276 0-.5.224-.5.5s.224.5.5.5h12c.276 0 .5-.224.5-.5s-.224-.5-.5-.5h-1.5v-3.018l.012-.003c3.029-.924 5.409-2.913 6.702-5.603 1.342-2.79 1.379-6.092.105-9.296l-1.149-2.892c-1.648-4.145-1.342-8.899.819-12.719.06-.105.138-.226.226-.354.863-1.251 1.296-2.797 1.285-4.616 0-1.071.481-2.069 1.319-2.738.84-.669 1.937-.912 3.012-.667 1.254.286 2.288 1.321 2.574 2.574.245 1.075.002 2.173-.667 3.012z"/></svg>