<svg id="Layer_1" enable-background="new 0 0 64 64" height="512" viewBox="0 0 64 64" width="512" xmlns="http://www.w3.org/2000/svg"><circle cx="45.78" cy="20.077" r=".5"/><path d="m56.45 20.969c.101-1.324.003-2.635-.302-3.888-.001-.003-.001-.006-.002-.008-.02-.084-.031-.17-.053-.254-.711-2.654-2.331-4.815-4.563-6.084-2.383-1.355-5.173-1.54-7.842-.769-.032.006-.061.016-.091.028-1.209.36-2.389.914-3.495 1.653-.015.01-.03.017-.043.028-1.491 1.004-2.838 2.336-3.93 3.954-.179.265-.358.529-.522.809-1.562 2.664-2.481 6.118-2.6 9.368-.003.021-.003.042-.004.063-.042 1.241.024 2.454.23 3.578.614 3.343.167 6.658-1.233 9.443-1.379-2.743-1.828-5.999-1.256-9.289l.022-.154c.206-1.122.272-2.333.23-3.573 0-.024 0-.047-.004-.071-.12-3.25-1.038-6.703-2.6-9.366-.164-.28-.343-.544-.522-.809-1.092-1.618-2.439-2.951-3.93-3.955-.012-.01-.025-.016-.038-.024-1.109-.742-2.293-1.298-3.505-1.658-.027-.01-.052-.019-.081-.025-2.67-.773-5.462-.589-7.847.768-2.232 1.269-3.854 3.43-4.564 6.084-.357 1.332-.465 2.738-.356 4.154 0 .002 0 .005.001.007.164 2.112.824 4.248 1.969 6.202 1.569 2.677 4.164 5.199 6.979 6.925.014.009.026.019.041.026 1.061.647 2.149 1.19 3.229 1.572.028.01.055.023.083.033.001 0 .002.002.003.002l.122.048h.002c3.446 1.269 6.265 3.532 7.948 6.401l1.093 1.865-3.884 6.624c-.378.645-.452 1.418-.202 2.122.253.711.813 1.274 1.536 1.544.275.103.563.152.849.152.92 0 1.836-.505 2.337-1.359l2.345-4 2.345 4c.502.854 1.417 1.359 2.338 1.359.286 0 .573-.049.849-.152.723-.27 1.282-.832 1.535-1.543.251-.704.178-1.478-.2-2.123l-3.885-6.625 1.093-1.864c1.707-2.912 4.584-5.204 8.102-6.462l.056-.022h.001c1.08-.382 2.169-.925 3.229-1.572.014-.007.025-.016.039-.025 2.815-1.727 5.41-4.25 6.98-6.926 1.145-1.952 1.804-4.087 1.968-6.198-.001-.004 0-.009 0-.014zm-18.326 31.498c-.156.439-.49.773-.942.942-.708.266-1.558-.069-1.974-.777l-2.628-4.482 1.822-3.107 3.602 6.142c.227.39.271.857.12 1.282zm5.597-41.474 11.502 6.538c.183.827.27 1.68.262 2.545l-14.127-8.031c.764-.441 1.555-.798 2.363-1.052zm3.052-.492c1.488 0 2.945.354 4.263 1.103 1.735.987 3.058 2.584 3.796 4.555l-9.689-5.508c.544-.091 1.089-.15 1.63-.15zm-2.873 24.262-.008.003-9.674-5.5c-.147-.799-.208-1.651-.221-2.521l12.224 6.95c-.769.422-1.547.794-2.321 1.068zm-17.784-19.778-1.236-.347c-.549-.154-1.124-.084-1.619.196-.488.276-.837.725-.983 1.262l-.766 2.815c-.132.486-.604.819-1.115.783l-4.605-.292c-1.148-.073-2.209.674-2.509 1.776l-.808 2.97c-.044.163-.151.299-.301.384-.156.088-.336.109-.507.059l-2.527-.722c-.284-.884-.471-1.78-.562-2.675l15.01-8.533c.913.642 1.764 1.42 2.528 2.324zm-17.339 2.547 11.503-6.539c.808.254 1.599.611 2.363 1.053l-14.128 8.031c-.008-.865.079-1.718.262-2.545zm4.187-5.928c1.317-.749 2.774-1.103 4.262-1.103.541 0 1.086.058 1.631.15l-9.69 5.508c.739-1.971 2.062-3.568 3.797-4.555zm-3.392 13.428 1.818.52c.152.044.307.065.461.065.282 0 .561-.072.813-.215.385-.217.66-.569.775-.992l.808-2.97c.176-.646.8-1.086 1.48-1.041l4.605.292c.982.069 1.888-.576 2.144-1.519l.766-2.814c.076-.278.257-.51.512-.654.262-.148.566-.184.855-.103l2.489.698c.143.216.3.418.433.645.451.769.836 1.616 1.171 2.497l-2.045-.594c-.328-.095-.67-.055-.967.111-.292.165-.502.432-.59.754l-.964 3.542c-.146.538-.664.902-1.233.866l-5.125-.326c-.803-.055-1.529.467-1.737 1.232l-.968 3.557c-.044.163-.151.299-.301.384-.154.087-.333.109-.506.061l-2.827-.799c-.385-.509-.747-1.026-1.056-1.553-.314-.534-.575-1.086-.811-1.644zm3.007 4.558 1.414.4c.151.043.304.064.456.064.282 0 .562-.073.814-.216.383-.217.658-.569.773-.991l.968-3.558c.083-.308.38-.522.709-.497l5.125.326c1.032.067 1.99-.607 2.261-1.602l.964-3.542c.022-.083.082-.126.115-.145.036-.02.107-.049.199-.023l2.718.789c.503 1.625.808 3.337.889 5.01l-3.187 1.811c-.24.136-.324.441-.188.682.092.162.261.253.435.253.083 0 .168-.021.247-.065l2.712-1.542c-.013.87-.074 1.722-.221 2.521l-9.674 5.5c-.003-.001-.005-.002-.007-.003-.774-.274-1.552-.646-2.322-1.069l7.443-4.232c.24-.136.324-.441.188-.682-.136-.239-.44-.324-.682-.188l-7.942 4.515c-1.529-.965-2.975-2.172-4.207-3.516zm8.718 5.651 8.308-4.723c-.369 3.35.248 6.635 1.817 9.439l-1.823 3.11-.811-1.382c-1.637-2.793-4.271-5.044-7.491-6.444zm13.914 6.444-6.418 10.948c-.415.708-1.264 1.041-1.974.777-.452-.169-.787-.504-.943-.943-.151-.425-.106-.891.122-1.281l6.475-11.042c1.64-2.797 2.303-6.174 1.922-9.626l8.31 4.724c-3.222 1.399-5.856 3.65-7.494 6.443zm12.003-8.576-13.197-7.503c.081-1.672.386-3.385.889-5.009l2.718-.789c.09-.028.164.002.199.022.033.019.092.062.114.145l.964 3.542c.271.995 1.23 1.67 2.261 1.602l5.124-.326c.347-.019.626.188.71.497l.968 3.558c.115.422.39.774.772.991.253.143.532.216.815.216.152 0 .305-.021.455-.064l1.416-.4c-1.232 1.343-2.678 2.55-4.208 3.518zm5.348-4.88-2.827.799c-.175.047-.352.026-.506-.061-.149-.084-.257-.221-.301-.383l-.968-3.558c-.207-.764-.942-1.288-1.737-1.232l-5.124.326c-.58.035-1.087-.329-1.233-.866l-.964-3.542c-.087-.322-.296-.59-.589-.754-.297-.167-.639-.208-.969-.111l-2.045.594c.336-.881.721-1.728 1.172-2.497.133-.227.29-.429.433-.646l2.488-.698c.286-.081.593-.046.855.103.254.144.437.376.512.654l.766 2.814c.245.9 1.078 1.523 2.011 1.523.044 0 .089-.001.133-.004.276-.018.485-.255.468-.531-.017-.275-.26-.475-.53-.467-.527.028-.984-.297-1.116-.783l-.766-2.814c-.146-.537-.495-.985-.984-1.262-.496-.281-1.073-.351-1.618-.196l-1.236.347c.763-.904 1.614-1.681 2.529-2.325l15.009 8.532c-.09.895-.278 1.791-.562 2.675l-2.527.723c-.172.048-.352.028-.507-.06-.15-.084-.257-.221-.302-.384l-.809-2.97c-.3-1.103-1.358-1.85-2.508-1.777l-.342.021c-.275.017-.485.255-.468.53.018.275.231.48.53.468l.343-.021c.647-.042 1.303.394 1.479 1.041l.809 2.971c.115.423.392.775.776.992.252.142.53.214.812.214.154 0 .309-.021.461-.065l1.818-.52c-.236.558-.497 1.11-.811 1.644-.308.53-.67 1.047-1.055 1.556z"/></svg>