<svg id="Layer_1" enable-background="new 0 0 64 64" height="512" viewBox="0 0 64 64" width="512" xmlns="http://www.w3.org/2000/svg"><path d="m31 32.5c-.276 0-.5.224-.5.5s.224.5.5.5h.5v3.5c0 .276.224.5.5.5s.5-.224.5-.5v-3.5h.5c.276 0 .5-.224.5-.5s-.224-.5-.5-.5h-.5v-5h.5c.276 0 .5-.224.5-.5s-.224-.5-.5-.5h-.5v-5h.5c.276 0 .5-.224.5-.5s-.224-.5-.5-.5h-.5v-5h.5c.276 0 .5-.224.5-.5s-.224-.5-.5-.5h-.5v-1.5c0-.276-.224-.5-.5-.5s-.5.224-.5.5v1.5h-.5c-.276 0-.5.224-.5.5s.224.5.5.5h.5v5h-.5c-.276 0-.5.224-.5.5s.224.5.5.5h.5v5h-.5c-.276 0-.5.224-.5.5s.224.5.5.5h.5v5z"/><path d="m32 46.5c-1.378 0-2.5 1.121-2.5 2.5s1.122 2.5 2.5 2.5 2.5-1.121 2.5-2.5-1.122-2.5-2.5-2.5zm0 4c-.827 0-1.5-.673-1.5-1.5s.673-1.5 1.5-1.5 1.5.673 1.5 1.5-.673 1.5-1.5 1.5z"/><path d="m48.427 49.709-5.269-24.237 4.617-8.946c.224-.434.206-.941-.048-1.359-.254-.417-.698-.666-1.186-.666-.522 0-.995.288-1.234.752l-3.076 5.959-2.428-11.17c-.325-1.497-1.603-2.542-3.108-2.542h-9.391c-1.505 0-2.783 1.045-3.108 2.541l-8.624 39.668c-.204.941.023 1.908.624 2.652.57.707 1.408 1.114 2.303 1.132v2.507c0 .276.224.5.5.5h5c.276 0 .5-.224.5-.5v-2.5h15v2.5c0 .276.224.5.5.5h5c.276 0 .5-.224.5-.5v-2.507c.896-.018 1.733-.424 2.303-1.132.602-.744.829-1.711.625-2.652zm-2.156-5.209h-10.771v-4.191l4.067-7.88c1.105-.258 1.933-1.246 1.933-2.429 0-.336-.069-.656-.19-.949l1.127-2.183zm-28.542 0 7.174-33h3.597v33zm11.771-33h5v24.691l-4.289 8.309h-.711zm5.944 25.042 2.274-4.407c.222.133.463.237.722.296l-3.885 7.526-2.344 4.543h-.874zm3.556-8.042c.827 0 1.5.673 1.5 1.5s-.673 1.5-1.5 1.5-1.5-.673-1.5-1.5.673-1.5 1.5-1.5zm-4.5 13.747v2.253h-1.163zm11.696-26.537c.067-.129.199-.21.345-.21.197 0 .298.131.332.187s.104.205.014.38l-6.232 12.074c-.195-.173-.412-.322-.653-.428zm-7.211 11.792c-1.371.008-2.485 1.124-2.485 2.498 0 .533.171 1.026.456 1.432l-1.456 2.821v-22.753h3.597l2.415 11.107zm-11.68-19.002h9.391c1.03 0 1.906.721 2.13 1.754l.054.246h-3.88-6-3.879l.054-.246c.223-1.033 1.099-1.754 2.13-1.754zm-3.805 47h-4v-2h4zm21 0h-4v-2h4zm2.525-3.766c-.393.486-.97.766-1.585.766h-.44-5-16-5-.439c-.615 0-1.193-.279-1.585-.766-.41-.509-.564-1.169-.424-1.813l.961-4.422h11.487 1.516 2 2.484 11.488l.961 4.422c.14.644-.014 1.305-.424 1.813z"/></svg>