<svg id="Layer_1" enable-background="new 0 0 64 64" height="512" viewBox="0 0 64 64" width="512" xmlns="http://www.w3.org/2000/svg"><circle cx="44" cy="43.004" r=".5"/><path d="m55.36 35.5h-3.36-.5v-.96c0-1.125-.915-2.04-2.04-2.04h-1.96v-7.896c0-1.16-.944-2.104-2.104-2.104h-.896v-1.978c0-1.115-.907-2.022-2.022-2.022h-.978v-1.05c0-1.075-.875-1.95-1.95-1.95h-1.05v-1.23c0-.976-.794-1.77-1.77-1.77h-1.23v-1.23c0-.976-.794-1.77-1.77-1.77h-1.73-1.73c-.976 0-1.77.794-1.77 1.77v1.23h-1.23c-.976 0-1.77.794-1.77 1.77v1.23h-1.05c-1.075 0-1.95.875-1.95 1.95v1.05h-.978c-1.115 0-2.022.907-2.022 2.022v1.978h-.896c-1.16 0-2.104.944-2.104 2.104v1.396c0 .276.224.5.5.5s.5-.224.5-.5v-1.396c0-.609.495-1.104 1.104-1.104h.896v9h-2v-4.5c0-.276-.224-.5-.5-.5s-.5.224-.5.5v4.5h-1.96c-1.125 0-2.04.915-2.04 2.04v.96h-.5-4c-.276 0-.5.224-.5.5v5.649c0 1.021.831 1.851 1.851 1.851h1.149v8h-1.5c-.276 0-.5.224-.5.5s.224.5.5.5h2 2 12.684 12.633 12.683 2 2c.276 0 .5-.224.5-.5s-.224-.5-.5-.5h-1.5v-8h1.149c1.021 0 1.851-.831 1.851-1.851v-5.009c0-.629-.512-1.14-1.14-1.14zm-7.86 3h-3v-2h3zm-4 0h-3v-2h3zm-4 0h-3v-2h3zm-4 0h-3v-2h3zm-4 0h-3v-2h3zm-4 0h-3v-2h3zm-4 0h-3v-2h3zm-4 0h-3v-2h3zm29-2h2.5.5v2h-3zm-3.104-13c.609 0 1.104.495 1.104 1.104v7.896h-2v-9zm-2.918-4c.563 0 1.022.458 1.022 1.022v2.478 9.5h-2v-13zm-2.928-3c.524 0 .95.426.95.95v1.55 13.5h-1v-2.44c0-.668-.412-1.236-1-1.455v-12.105zm-14.05 16v-2.44c0-.298.228-.54.518-.551.003 0 .006-.002.01-.002.024-.001.047-.002.07-.007h2.902 2.999l5.985.01c.289.012.516.253.516.55v2.44zm9-21.23v4.73c0 .276.224.5.5.5s.5-.224.5-.5v-2.5h1.23c.425 0 .77.345.77.77v1.73 12.509l-2-.003v-9.506c0-.276-.224-.5-.5-.5s-.5.224-.5.5v9.504l-2-.003v-18.001h1.23c.425 0 .77.345.77.77zm-5 0c0-.425.345-.77.77-.77h1.23v18h-2v-15.5zm-3 3c0-.425.345-.77.77-.77h1.23v15h-2v-12.5zm-3 3.18c0-.524.426-.95.95-.95h1.05v12.105c-.587.219-1 .787-1 1.455v2.44h-1v-13.5zm-3 5.55v-2.478c0-.564.458-1.022 1.022-1.022h.978v13h-2zm-7 11.54c0-.573.467-1.04 1.04-1.04h2.46 3 3 2 14 2 3 3 2.46c.573 0 1.04.467 1.04 1.04v.96h-2.5-4-4-4-4-4-4-4-4-2.5zm-.5 1.96h2.5v2h-3v-2zm-1.5 7h1v8h-1zm14.684 8v-1.448c0-.305.248-.552.552-.552h10.529c.305 0 .552.248.552.552v1.448zm26.316 0h-1v-8h1zm3-9.851c0 .469-.382.851-.851.851h-1.649-2-5c-.276 0-.5.224-.5.5s.224.5.5.5h4.5v8h-11.684v-1.448c0-.856-.696-1.552-1.552-1.552h-10.528c-.856 0-1.552.696-1.552 1.552v1.448h-11.684v-8h28.5c.276 0 .5-.224.5-.5s-.224-.5-.5-.5h-29-2-1.649c-.469 0-.851-.382-.851-.851v-5.149h3v2.5c0 .276.224.5.5.5h4 4 4 4 4 4 4 4 4 4c.276 0 .5-.224.5-.5v-2.5h2.86c.077 0 .14.063.14.14z"/></svg>