<svg id="Layer_1" enable-background="new 0 0 64 64" height="512" viewBox="0 0 64 64" width="512" xmlns="http://www.w3.org/2000/svg"><circle cx="16" cy="47.001" r=".5"/><path d="m46.665 7.5h-2.665-4-4-4-4-4-4-2.665c-1.012 0-1.835.823-1.835 1.835v3.165h-.759c-.685 0-1.241.557-1.241 1.241v1.021c0 1.253.85 2.299 2 2.624v27.659c0 .276.224.5.5.5s.5-.224.5-.5v-3.545h3v7.5 4.951c0 .854-.694 1.549-1.549 1.549h-1.451v-6.5c0-.276-.224-.5-.5-.5s-.5.224-.5.5v7c0 .276.224.5.5.5h1.951c1.405 0 2.549-1.144 2.549-2.549v-4.451h1.451c1.405 0 2.549-1.144 2.549-2.549v-2.451h1.451c1.405 0 2.549-1.144 2.549-2.549v-2.451h1.451c1.405 0 2.549-1.144 2.549-2.549v-1.451h1.451c1.405 0 2.549-1.144 2.549-2.549v-.451h1.451c1.405 0 2.549-1.144 2.549-2.549v-.451h1.451c1.405 0 2.549-1.144 2.549-2.549v-.451h1.451c1.405 0 2.549-1.144 2.549-2.549v-6.565c1.15-.324 2-1.371 2-2.624v-1.021c0-.685-.557-1.241-1.241-1.241h-.759v-3.165c0-1.012-.823-1.835-1.835-1.835zm.835 1.835v3.165h-3v-4h2.165c.46 0 .835.375.835.835zm-8 3.165h-3v-4h3zm-4 0h-3v-4h3zm-4 0h-3v-4h3zm-4 0h-3v-4h3zm-4 0h-3v-4h3zm-7-3.165c0-.46.375-.835.835-.835h2.165v4h-3zm0 31.165v-23h3v23zm7-23v20h-3v-20zm0 29.451c0 .854-.694 1.549-1.549 1.549h-1.451v-10h3v5.5zm4-5c0 .854-.694 1.549-1.549 1.549h-1.451v-8h3v3.5zm4-24.451v14h-3v-14zm4 0v11h-3v-11zm4 0v9h-3v-9zm4 0v6h-3v-6zm4 0v3h-3v-3zm-16 19.451c0 .854-.694 1.549-1.549 1.549h-1.451v-6h3v2.5zm4-4c0 .854-.694 1.549-1.549 1.549h-1.451v-5h3v2.5zm4-3c0 .854-.694 1.549-1.549 1.549h-1.451v-4h3v1.5zm4-3c0 .854-.694 1.549-1.549 1.549h-1.451v-4h3v1.5zm2.451-1.451h-1.451v-4h3v2.451c0 .855-.694 1.549-1.549 1.549zm3.549-11.759v1.021c0 .958-.779 1.737-1.737 1.737h-3.763-4-4-4-4-1c-.276 0-.5.224-.5.5s.224.5.5.5h.5v17h-3v-17h.5c.276 0 .5-.224.5-.5s-.224-.5-.5-.5h-1-4-3.763c-.958 0-1.737-.779-1.737-1.737v-1.021c0-.133.108-.241.241-.241h1.259 4 4 4 4 4 4 1c.276 0 .5-.224.5-.5s-.224-.5-.5-.5h-.5v-4h3v4h-.5c-.276 0-.5.224-.5.5s.224.5.5.5h1 4 1.259c.133 0 .241.108.241.241z"/></svg>