<svg id="Layer_1" enable-background="new 0 0 64 64" height="512" viewBox="0 0 64 64" width="512" xmlns="http://www.w3.org/2000/svg"><circle cx="28.56" cy="11.48" r=".5"/><path d="m40.594 38.5c1.051 0 1.906-.855 1.906-1.906v-27.188c0-1.051-.855-1.906-1.906-1.906h-17.188c-1.051 0-1.906.855-1.906 1.906v27.188c0 1.051.855 1.906 1.906 1.906h7.094v8.033c-.542.076-1.033.365-1.343.829l-5.573 8.36c-.103.153-.112.351-.024.514.086.162.255.264.44.264h2c.146 0 .284-.063.38-.175l5.62-6.557 5.62 6.557c.096.112.234.175.38.175h2c.185 0 .354-.102.44-.264.088-.163.078-.36-.024-.514l-5.573-8.36c-.309-.464-.801-.753-1.343-.829v-8.033zm-18.094-1.906v-27.188c0-.5.406-.906.906-.906h17.188c.5 0 .906.406.906.906v27.188c0 .5-.406.906-.906.906h-7.594-2-7.594c-.5 0-.906-.406-.906-.906zm3.271 18.906h-.836l5.055-7.583c.174-.261.466-.417.779-.417h.731v1.315zm8.24-7.583 5.055 7.583h-.836l-5.73-6.685v-1.315h.731c.314 0 .606.156.78.417zm-1.511-1.417h-.5-.5v-8h1z"/><path d="m39.5 29c0-2.032-.8-3.935-2.252-5.357-.195-.192-.513-.19-.707.008-.193.197-.189.514.008.707 1.258 1.232 1.951 2.881 1.951 4.642 0 3.584-2.916 6.5-6.5 6.5s-6.5-2.916-6.5-6.5 2.916-6.5 6.5-6.5c.974 0 1.911.211 2.785.626.249.116.548.012.667-.237.118-.25.012-.548-.237-.667-1.01-.479-2.091-.722-3.215-.722-4.136 0-7.5 3.364-7.5 7.5s3.364 7.5 7.5 7.5 7.5-3.364 7.5-7.5z"/><path d="m32 20c2.895 0 5.25-2.355 5.25-5.25s-2.355-5.25-5.25-5.25c-.778 0-1.528.166-2.228.494-.25.117-.358.415-.241.665.118.251.417.358.665.241.566-.266 1.173-.4 1.804-.4 2.344 0 4.25 1.906 4.25 4.25s-1.906 4.25-4.25 4.25-4.25-1.906-4.25-4.25c0-.55.104-1.084.308-1.589.104-.256-.021-.548-.276-.651-.256-.102-.548.02-.651.276-.252.625-.38 1.285-.38 1.964-.001 2.895 2.354 5.25 5.249 5.25z"/><path d="m32 18c1.792 0 3.25-1.458 3.25-3.25s-1.458-3.25-3.25-3.25-3.25 1.458-3.25 3.25 1.458 3.25 3.25 3.25zm0-5.5c1.24 0 2.25 1.01 2.25 2.25s-1.01 2.25-2.25 2.25-2.25-1.01-2.25-2.25 1.01-2.25 2.25-2.25z"/><path d="m26.5 29c0 3.032 2.468 5.5 5.5 5.5s5.5-2.468 5.5-5.5-2.468-5.5-5.5-5.5-5.5 2.468-5.5 5.5zm10 0c0 2.481-2.019 4.5-4.5 4.5s-4.5-2.019-4.5-4.5 2.019-4.5 4.5-4.5 4.5 2.019 4.5 4.5z"/></svg>