<svg id="Layer_1" enable-background="new 0 0 64 64" height="512" viewBox="0 0 64 64" width="512" xmlns="http://www.w3.org/2000/svg"><circle cx="49.59" cy="39.412" r=".5"/><path d="m34.771 9.719c-.886 0-1.777.055-2.651.161-.86-.103-1.733-.161-2.62-.161-12.131 0-22 9.869-22 22s9.869 22 22 22c1.65 0 3.269-.194 4.839-.548l.432.005c11.981 0 21.729-9.748 21.729-21.729s-9.747-21.728-21.729-21.728zm3.61 42.121c4.369-1.928 8.074-5.256 10.443-9.599.133-.242.043-.546-.199-.678-.243-.131-.547-.043-.678.2-3.687 6.758-10.756 10.956-18.447 10.956-11.579 0-21-9.42-21-21s9.421-21 21-21 21 9.42 21 21c0 1.424-.144 2.849-.427 4.233-.055.271.119.535.39.59.271.056.535-.119.591-.39.296-1.45.446-2.941.446-4.433 0-9.762-6.393-18.055-15.211-20.923 10.721.782 19.211 9.734 19.211 20.651 0 10.197-7.407 18.677-17.119 20.393z"/><path d="m29.5 14.233c-3.736 0-7.3 1.161-10.307 3.358-.223.163-.271.476-.108.699.163.224.477.27.698.109 2.834-2.071 6.194-3.166 9.717-3.166 9.091 0 16.486 7.396 16.486 16.486s-7.395 16.486-16.486 16.486-16.486-7.396-16.486-16.486c0-3.77 1.306-7.456 3.676-10.377.174-.214.141-.529-.073-.703-.214-.173-.528-.142-.704.073-2.514 3.1-3.898 7.009-3.898 11.007 0 9.642 7.845 17.486 17.486 17.486s17.486-7.844 17.486-17.486-7.845-17.486-17.487-17.486z"/><path d="m34.5 31.719c0-2.757-2.243-5-5-5s-5 2.243-5 5c0 1.693.85 3.186 2.141 4.091l-.129.582c-.008.035-.012.071-.012.108 0 1.654 1.346 3 3 3s3-1.346 3-3c0-.037-.004-.073-.012-.108l-.129-.582c1.291-.905 2.141-2.399 2.141-4.091zm-3.001 4.833c-.027 1.079-.914 1.948-1.999 1.948s-1.972-.869-1.999-1.948l.051-.229c.599.254 1.257.396 1.948.396s1.349-.141 1.948-.396zm-3.723-1.239.625-2.813h2.197l.625 2.813c-.524.253-1.104.406-1.724.406s-1.199-.154-1.723-.406zm3.712-3.421c-.051-.229-.254-.392-.488-.392h-3c-.234 0-.438.163-.488.392l-.628 2.828c-.841-.734-1.383-1.8-1.383-3.001 0-2.206 1.794-4 4-4s4 1.794 4 4c0 1.201-.543 2.267-1.383 3.001z"/></svg>