<svg id="Layer_1" enable-background="new 0 0 64 64" height="512" viewBox="0 0 64 64" width="512" xmlns="http://www.w3.org/2000/svg"><circle cx="44.42" cy="19.004" r=".5"/><path d="m42 56.5c.276 0 .5-.224.5-.5s-.224-.5-.5-.5h-1.839l-6.661-4.758v-20.242h.435c.863 0 1.565-.702 1.565-1.565v-1.435h10.5c.276 0 .5-.224.5-.5s-.224-.5-.5-.5h-1.473l.288-5.474c.015-.275-.197-.511-.473-.525-.265-.015-.512.197-.525.473l-.292 5.526h-5.025v-1.763c0-.683-.555-1.237-1.237-1.237h-10.526c-.682 0-1.237.555-1.237 1.237v1.763h-5.025l-.907-17.231c-.011-.202.06-.395.199-.541s.327-.228.53-.228h23.406c.202 0 .391.081.53.228.139.146.21.339.199.541l-.405 7.705c-.015.275.197.511.473.525.275.04.512-.197.525-.473l.405-7.705c.025-.479-.143-.935-.473-1.282-.328-.348-.774-.539-1.254-.539h-23.406c-.479 0-.925.191-1.255.539s-.498.804-.473 1.282l.904 17.179h-1.473c-.276 0-.5.224-.5.5s.224.5.5.5h10.5v1.435c0 .863.702 1.565 1.565 1.565h.435v15.5c0 .276.224.5.5.5s.5-.224.5-.5v-15.5h1v20h-1v-1.5c0-.276-.224-.5-.5-.5s-.5.224-.5.5v1.742l-6.661 4.758h-1.839c-.276 0-.5.224-.5.5s.224.5.5.5zm-12.793-1 .482-.482c1.234-1.234 3.387-1.235 4.621 0l.482.482zm7 0-1.189-1.189c-.807-.807-1.878-1.25-3.018-1.25s-2.212.443-3.018 1.25l-1.189 1.189h-2.233l5.6-4h1.68l5.6 4zm-1.707-26.565c0 .312-.254.565-.565.565h-.935-2-.935c-.312 0-.565-.254-.565-.565v-1.435h5zm.5-2.435h-6-2.5v-1.763c0-.131.106-.237.237-.237h10.525c.131 0 .237.106.237.237v1.763z"/><path d="m43.5 13c0-.827-.673-1.5-1.5-1.5s-1.5.673-1.5 1.5.673 1.5 1.5 1.5 1.5-.673 1.5-1.5zm-1.5.5c-.275 0-.5-.225-.5-.5s.225-.5.5-.5.5.225.5.5-.225.5-.5.5z"/><path d="m27 9.5c-.827 0-1.5.673-1.5 1.5s.673 1.5 1.5 1.5 1.5-.673 1.5-1.5-.673-1.5-1.5-1.5zm0 2c-.276 0-.5-.225-.5-.5s.224-.5.5-.5.5.225.5.5-.224.5-.5.5z"/><path d="m32 9.5c-.827 0-1.5.673-1.5 1.5s.673 1.5 1.5 1.5 1.5-.673 1.5-1.5-.673-1.5-1.5-1.5zm0 2c-.276 0-.5-.225-.5-.5s.224-.5.5-.5.5.225.5.5-.224.5-.5.5z"/><path d="m27 14.5c-.827 0-1.5.673-1.5 1.5s.673 1.5 1.5 1.5 1.5-.673 1.5-1.5-.673-1.5-1.5-1.5zm0 2c-.276 0-.5-.225-.5-.5s.224-.5.5-.5.5.225.5.5-.224.5-.5.5z"/><path d="m23 19.5c.827 0 1.5-.673 1.5-1.5s-.673-1.5-1.5-1.5-1.5.673-1.5 1.5.673 1.5 1.5 1.5zm0-2c.276 0 .5.225.5.5s-.224.5-.5.5-.5-.225-.5-.5.224-.5.5-.5z"/><path d="m32 14.5c-.827 0-1.5.673-1.5 1.5s.673 1.5 1.5 1.5 1.5-.673 1.5-1.5-.673-1.5-1.5-1.5zm0 2c-.276 0-.5-.225-.5-.5s.224-.5.5-.5.5.225.5.5-.224.5-.5.5z"/><path d="m23.5 13c0-.827-.673-1.5-1.5-1.5s-1.5.673-1.5 1.5.673 1.5 1.5 1.5 1.5-.673 1.5-1.5zm-2 0c0-.275.224-.5.5-.5s.5.225.5.5-.224.5-.5.5-.5-.225-.5-.5z"/><path d="m32 19.5c-.827 0-1.5.673-1.5 1.5s.673 1.5 1.5 1.5 1.5-.673 1.5-1.5-.673-1.5-1.5-1.5zm0 2c-.276 0-.5-.225-.5-.5s.224-.5.5-.5.5.225.5.5-.224.5-.5.5z"/><path d="m37 19.5c-.827 0-1.5.673-1.5 1.5s.673 1.5 1.5 1.5 1.5-.673 1.5-1.5-.673-1.5-1.5-1.5zm0 2c-.275 0-.5-.225-.5-.5s.225-.5.5-.5.5.225.5.5-.225.5-.5.5z"/><path d="m37 9.5c-.827 0-1.5.673-1.5 1.5s.673 1.5 1.5 1.5 1.5-.673 1.5-1.5-.673-1.5-1.5-1.5zm0 2c-.275 0-.5-.225-.5-.5s.225-.5.5-.5.5.225.5.5-.225.5-.5.5z"/><path d="m27 19.5c-.827 0-1.5.673-1.5 1.5s.673 1.5 1.5 1.5 1.5-.673 1.5-1.5-.673-1.5-1.5-1.5zm0 2c-.276 0-.5-.225-.5-.5s.224-.5.5-.5.5.225.5.5-.224.5-.5.5z"/><path d="m37 14.5c-.827 0-1.5.673-1.5 1.5s.673 1.5 1.5 1.5 1.5-.673 1.5-1.5-.673-1.5-1.5-1.5zm0 2c-.275 0-.5-.225-.5-.5s.225-.5.5-.5.5.225.5.5-.225.5-.5.5z"/><path d="m39.5 18c0 .827.673 1.5 1.5 1.5s1.5-.673 1.5-1.5-.673-1.5-1.5-1.5-1.5.673-1.5 1.5zm2 0c0 .275-.225.5-.5.5s-.5-.225-.5-.5.225-.5.5-.5.5.225.5.5z"/></svg>