<svg id="Layer_1" enable-background="new 0 0 64 64" height="512" viewBox="0 0 64 64" width="512" xmlns="http://www.w3.org/2000/svg"><circle cx="38.966" cy="45.009" r=".5"/><path d="m39.082 46.507c-.27-.048-.529.139-.575.411-.928 5.565-6.359 6.55-6.59 6.589-.271.046-.455.304-.41.576.042.244.253.417.492.417.027 0 .056-.002.083-.007.063-.011 6.364-1.131 7.411-7.411.046-.272-.139-.53-.411-.575z"/><path d="m46.676 33.262-13.947-7.383c-.515-.273-1.132-.173-1.535.251-.402.424-.471 1.045-.17 1.547l.228.379c.245.408.444.839.618 1.278.001.005.003.009.005.013.404 1.022.626 2.111.626 3.219v6.025c-.581.207-1 .757-1 1.408s.419 1.201 1 1.408v1.184c-.581.207-1 .757-1 1.408 0 .625.385 1.161.93 1.386-.19.647-.781 1.114-1.513 1.114-.811 0-1.479-.63-1.524-1.435l-.369-6.643c.847-.231 1.475-1 1.475-1.921 0-.998-.736-1.819-1.692-1.969l-.059-1.056c.984-.124 1.751-.957 1.751-1.975 0-1.093-.882-1.981-1.971-1.997l-.232-4.171c.707-.309 1.203-1.013 1.203-1.832 0-.896-.597-1.648-1.411-1.901l-.065-1.177c.848-.232 1.476-1.002 1.476-1.922 0-.998-.736-1.82-1.692-1.969l-.014-.241c-.186-3.367-2.641-6.105-5.971-6.66l-6.324-1.054c-.002-.593-.485-1.076-1.078-1.076h-2.81c-.612 0-1.111.499-1.111 1.111v1.927c0 .476.265.903.689 1.116l2.748 1.374c.153.077.319.115.483.115.197 0 .393-.055.567-.163.169-.105.3-.252.388-.421l3.559.514c.974.141 1.708.989 1.708 1.974v5.453h-1.142v-2.5c0-.276-.224-.5-.5-.5s-.5.224-.5.5v25c0 .276.224.5.5.5s.5-.224.5-.5v-2.5h1.143v6.627c0 5.168 4.205 9.373 9.374 9.373h2.11c5.168 0 9.373-4.205 9.373-9.373v-9.81c0-.45.366-.817.817-.817h3.633c.854 0 1.55-.695 1.55-1.55v-.317c0-.576-.316-1.101-.824-1.371zm-13.676 6.238c.275 0 .5.224.5.5s-.225.5-.5.5-.5-.224-.5-.5.225-.5.5-.5zm0 4c.275 0 .5.224.5.5s-.225.5-.5.5-.5-.224-.5-.5.225-.5.5-.5zm-3.5-7c0 .551-.448 1-1 1s-1-.449-1-1 .448-1 1-1 1 .449 1 1zm0-5c0 .551-.448 1-1 1s-1-.449-1-1 .448-1 1-1 1 .449 1 1zm-1-8c0 .551-.448 1-1 1s-1-.449-1-1 .448-1 1-1 1 .449 1 1zm0-5c0 .551-.448 1-1 1s-1-.449-1-1 .448-1 1-1 1 .449 1 1zm-14-6.437-.115.071-2.748-1.374c-.084-.042-.137-.127-.137-.221v-1.928c0-.061.05-.111.111-.111h2.81c.044 0 .079.036.079.08zm6.143 9.437v6h-1.143v-6zm-1.143 7h1.143v5h-1.143zm0 11v-5h1.143v5zm21-2.183v9.81c0 4.617-3.756 8.373-8.373 8.373h-2.11c-4.617 0-8.374-3.756-8.374-8.373v-6.627h1.357c.276 0 .5-.224.5-.5s-.224-.5-.5-.5h-1.357v-5h1.357c.276 0 .5-.224.5-.5s-.224-.5-.5-.5h-1.357v-5h1.357c.276 0 .5-.224.5-.5s-.224-.5-.5-.5h-1.357v-6h1.357c.276 0 .5-.224.5-.5s-.224-.5-.5-.5h-1.357v-5.453c0-1.478-1.103-2.752-2.565-2.963l-3.578-.517v-1.977l6.159 1.027c2.864.477 4.977 2.833 5.137 5.729l.016.284c-.763.282-1.312 1.01-1.312 1.87h-1.5c-.276 0-.5.224-.5.5s.224.5.5.5h1.778c.269.462.714.805 1.245.936l.062 1.108c-.904.192-1.585.995-1.585 1.956h-1.5c-.276 0-.5.224-.5.5s.224.5.5.5h1.778c.315.541.873.915 1.526.98l.238 4.275c-.617.341-1.042.99-1.042 1.744h-1.5c-.276 0-.5.224-.5.5s.224.5.5.5h1.778c.22.378.555.68.963.848l.071 1.281c-.763.283-1.312 1.012-1.312 1.872h-1.5c-.276 0-.5.224-.5.5s.224.5.5.5h1.778c.269.462.713.805 1.245.936l.371 6.684c.074 1.334 1.182 2.379 2.55 2.379 1.253 0 2.28-.885 2.504-2.076.608-.191 1.052-.753 1.052-1.423 0-.651-.419-1.201-1-1.408v-1.184c.581-.207 1-.757 1-1.408s-.419-1.201-1-1.408v-6.025c0-.795-.111-1.581-.301-2.346l9.815 5.279h-.697c-1.002 0-1.817.815-1.817 1.817zm6-2.367c0 .303-.247.55-.55.55h-.824l-12.371-6.653c-.185-.448-.396-.887-.647-1.305l-.228-.378c-.101-.169-.007-.297.038-.345.046-.047.169-.147.341-.056l13.947 7.383c.181.096.293.282.293.486v.318z"/></svg>