<svg id="Layer_1" enable-background="new 0 0 64 64" height="512" viewBox="0 0 64 64" width="512" xmlns="http://www.w3.org/2000/svg"><circle cx="38.32" cy="43.113" r=".5"/><path d="m34 50.5c.276 0 .5-.224.5-.5s-.224-.5-.5-.5h-4c-.276 0-.5.224-.5.5s.224.5.5.5z"/><path d="m39.636 44.579c-.099-.257-.389-.385-.646-.287-.258.1-.386.389-.287.646.514 1.333.796 2.664.796 3.749 0 3.757-3.364 6.813-7.5 6.813s-7.5-3.056-7.5-6.813c0-3.079 2.135-7.589 5-9.397v3.231c-.263.114-.518.247-.761.396-.236.145-.31.452-.166.688s.453.311.687.166c.289-.177.596-.325.913-.443h.001c1.167-.433 2.48-.435 3.652-.001 2.048.76 3.424 2.738 3.424 4.924 0 2.895-2.355 5.25-5.25 5.25s-5.25-2.355-5.25-5.25c0-1.066.317-2.092.918-2.967.156-.228.099-.539-.129-.695s-.538-.099-.694.128c-.715 1.042-1.094 2.264-1.094 3.533 0 3.446 2.804 6.25 6.25 6.25s6.25-2.804 6.25-6.25c0-2.483-1.493-4.743-3.75-5.729v-3.229c.893.564 1.756 1.42 2.531 2.511.159.226.472.276.697.119.225-.16.278-.473.118-.697-.997-1.406-2.15-2.445-3.346-3.063v-25.162c0-.019-.009-.035-.011-.054-.002-.015.004-.029.001-.044l-.804-4.021c-.16-.8-.869-1.381-1.686-1.381s-1.526.581-1.687 1.383l-.123.617h-1.19c-.276 0-.5.224-.5.5s.224.5.5.5h.99l-.199.994h-.791c-.276 0-.5.224-.5.5s.224.5.5.5h.591l-.082.408c-.003.015.003.029.001.044-.001.019-.01.035-.01.054v2.5h-1v-.139c0-.475-.387-.861-.862-.861h-1.276c-.475 0-.862.387-.862.861v1.277c0 .475.387.861.862.861h1.276c.475 0 .862-.387.862-.861v-.138h1v3h-1v-.139c0-.475-.387-.861-.862-.861h-1.276c-.475 0-.862.387-.862.861v1.277c0 .475.387.861.862.861h1.276c.475 0 .862-.387.862-.861v-.138h1v7h-1v-.139c0-.475-.387-.861-.862-.861h-1.276c-.475 0-.862.387-.862.861v1.277c0 .475.387.861.862.861h1.276c.475 0 .862-.387.862-.861v-.138h1v7h-1v-.139c0-.475-.387-.861-.862-.861h-1.276c-.475 0-.862.387-.862.861v1.277c0 .475.387.861.862.861h1.276c.475 0 .862-.387.862-.861v-.138h1v1.651c-3.453 1.782-6 6.938-6 10.536 0 4.308 3.813 7.813 8.5 7.813s8.5-3.505 8.5-7.813c0-1.205-.307-2.664-.864-4.108zm-12.136-28.079h-1v-1h1zm0 4h-1v-1h1zm0 8h-1v-1h1zm0 8h-1v-1h1zm4.5-28c.342 0 .639.243.706.578l.684 3.422h-2.78l.684-3.421c.067-.336.364-.579.706-.579zm-1.5 5h3v2h-3zm0 3h3v3h-3zm3 4v3h-3v-3zm-3 4h3v3h-3zm3 4v3h-3v-3zm-3 4h3v3h-3zm3 4v1.952 3.729c-.979-.242-2.023-.242-3 0v-3.729-1.952z"/></svg>