<svg id="Layer_1" enable-background="new 0 0 64 64" height="512" viewBox="0 0 64 64" width="512" xmlns="http://www.w3.org/2000/svg"><circle cx="15" cy="24.001" r=".5"/><path d="m55.083 22.626-2.323-1.859c-1.021-.816-2.305-1.267-3.612-1.267h-34.96c-1.545 0-2.997.602-4.089 1.693l-1.494 1.494c-.712.713-1.105 1.662-1.105 2.669v12.35c0 1.541 1.253 2.794 2.794 2.794h43.412c1.541 0 2.794-1.253 2.794-2.794v-12.132c0-1.152-.517-2.227-1.417-2.948zm.417 15.08c0 .989-.805 1.794-1.794 1.794h-43.412c-.989 0-1.794-.805-1.794-1.794v-12.35c0-.297.058-.582.147-.856h4.353c.276 0 .5-.224.5-.5s-.224-.5-.5-.5h-3.774c.031-.034.054-.073.087-.105l1.494-1.494c.903-.903 2.104-1.4 3.382-1.4h34.959c1.082 0 2.143.372 2.987 1.048l2.323 1.859c.035.028.06.064.093.093h-37.551c-.276 0-.5.224-.5.5s.224.5.5.5h38.272c.142.336.228.697.228 1.074z"/><path d="m43 25.5c-1.93 0-3.5 1.57-3.5 3.5s1.57 3.5 3.5 3.5 3.5-1.57 3.5-3.5-1.57-3.5-3.5-3.5zm0 6c-1.379 0-2.5-1.121-2.5-2.5s1.121-2.5 2.5-2.5c1.208 0 2.217.86 2.449 2h-1.449c-.276 0-.5.224-.5.5s.224.5.5.5h1.449c-.232 1.14-1.241 2-2.449 2z"/><path d="m43 33.5c-1.379 0-2.5 1.121-2.5 2.5s1.121 2.5 2.5 2.5 2.5-1.121 2.5-2.5-1.121-2.5-2.5-2.5zm0 4c-.827 0-1.5-.673-1.5-1.5s.673-1.5 1.5-1.5 1.5.673 1.5 1.5-.673 1.5-1.5 1.5z"/><path d="m51 33.5c-1.379 0-2.5 1.121-2.5 2.5s1.121 2.5 2.5 2.5 2.5-1.121 2.5-2.5-1.121-2.5-2.5-2.5zm0 4c-.827 0-1.5-.673-1.5-1.5s.673-1.5 1.5-1.5 1.5.673 1.5 1.5-.673 1.5-1.5 1.5z"/><path d="m51 25.5c-1.93 0-3.5 1.57-3.5 3.5s1.57 3.5 3.5 3.5 3.5-1.57 3.5-3.5-1.57-3.5-3.5-3.5zm0 6c-1.379 0-2.5-1.121-2.5-2.5 0-1.208.86-2.217 2-2.449v1.449c0 .276.224.5.5.5s.5-.224.5-.5v-1.449c1.14.232 2 1.242 2 2.449 0 1.379-1.121 2.5-2.5 2.5z"/><path d="m33 27.5c-.766 0-1.508.154-2.204.46-.253.11-.368.405-.258.658.111.255.411.367.658.258.416-.182.855-.275 1.304-.325v1.449c0 .276.224.5.5.5s.5-.224.5-.5v-1.449c2.244.252 4 2.139 4 4.449 0 2.481-2.019 4.5-4.5 4.5s-4.5-2.019-4.5-4.5c0-.984.312-1.918.9-2.701.166-.221.122-.534-.099-.7-.219-.167-.534-.123-.7.099-.72.957-1.101 2.099-1.101 3.302 0 3.032 2.468 5.5 5.5 5.5s5.5-2.468 5.5-5.5-2.468-5.5-5.5-5.5z"/><path d="m14 28.5c-2.481 0-4.5 2.019-4.5 4.5s2.019 4.5 4.5 4.5 4.5-2.019 4.5-4.5-2.019-4.5-4.5-4.5zm0 8c-1.93 0-3.5-1.57-3.5-3.5s1.57-3.5 3.5-3.5 3.5 1.57 3.5 3.5-1.57 3.5-3.5 3.5z"/><path d="m14 30.5c-1.379 0-2.5 1.121-2.5 2.5s1.121 2.5 2.5 2.5 2.5-1.121 2.5-2.5-1.121-2.5-2.5-2.5zm0 4c-.827 0-1.5-.673-1.5-1.5s.673-1.5 1.5-1.5 1.5.673 1.5 1.5-.673 1.5-1.5 1.5z"/><path d="m23 31.5c-.827 0-1.5.673-1.5 1.5s.673 1.5 1.5 1.5 1.5-.673 1.5-1.5-.673-1.5-1.5-1.5zm0 2c-.275 0-.5-.225-.5-.5s.225-.5.5-.5.5.225.5.5-.225.5-.5.5z"/><path d="m23 29.5c-1.93 0-3.5 1.57-3.5 3.5s1.57 3.5 3.5 3.5 3.5-1.57 3.5-3.5-1.57-3.5-3.5-3.5zm0 6c-1.379 0-2.5-1.121-2.5-2.5s1.121-2.5 2.5-2.5 2.5 1.121 2.5 2.5-1.121 2.5-2.5 2.5z"/></svg>