<svg id="Layer_1" enable-background="new 0 0 64 64" height="512" viewBox="0 0 64 64" width="512" xmlns="http://www.w3.org/2000/svg"><circle cx="41" cy="27.001" r=".5"/><path d="m53.79 19.5h-33.79c-.276 0-.5.224-.5.5s.224.5.5.5h33.79c.942 0 1.71.767 1.71 1.71v9.29h-9v-3.51c0-.822-.669-1.49-1.49-1.49h-2.01c-.276 0-.5.224-.5.5s.224.5.5.5h2.01c.274 0 .49.215.49.49v3.51h-20v-3.51c0-.275.216-.49.49-.49h13.01c.276 0 .5-.224.5-.5s-.224-.5-.5-.5h-13.01c-.821 0-1.49.668-1.49 1.49v3.51h-16v-9.29c0-.943.768-1.71 1.71-1.71h6.79c.276 0 .5-.224.5-.5s-.224-.5-.5-.5h-6.79c-1.494 0-2.71 1.216-2.71 2.71v9.79 10.5c0 1.103.897 2 2 2h2.5 4 4 4 4 4 4 4 4 4 4 2.5c1.103 0 2-.897 2-2v-10.5-9.79c0-1.494-1.216-2.71-2.71-2.71zm-5.37 19h-.42-.42c-.044 0-.08-.036-.08-.08v-5.92h1v5.92c0 .044-.036.08-.08.08zm-4 0h-.42-.42c-.044 0-.08-.036-.08-.08v-5.92h1v5.92c0 .044-.036.08-.08.08zm-8 0h-.42-.42c-.044 0-.08-.036-.08-.08v-5.92h1v5.92c0 .044-.036.08-.08.08zm-8 0h-.42-.42c-.044 0-.08-.036-.08-.08v-5.92h1v5.92c0 .044-.036.08-.08.08zm-4 0h-.42-.42c-.044 0-.08-.036-.08-.08v-5.92h1v5.92c0 .044-.036.08-.08.08zm-8 0h-.42-.42c-.044 0-.08-.036-.08-.08v-5.92h1v5.92c0 .044-.036.08-.08.08zm-7.92 4v-10h3v11h-2c-.552 0-1-.449-1-1zm4-10h2v5.92c0 .569.441 1.036 1 1.077v4.003h-3zm4 6.997c.559-.041 1-.508 1-1.077v-5.92h2v11h-3zm4-6.997h2v5.92c0 .569.441 1.036 1 1.077v4.003h-3zm4 6.997c.559-.041 1-.508 1-1.077v-5.92h1v5.92c0 .569.441 1.036 1 1.077v4.003h-3zm4 0c.559-.041 1-.508 1-1.077v-5.92h2v11h-3zm4-6.997h2v5.92c0 .569.441 1.036 1 1.077v4.003h-3zm4 6.997c.559-.041 1-.508 1-1.077v-5.92h2v11h-3zm4-6.997h2v5.92c0 .569.441 1.036 1 1.077v4.003h-3zm4 6.997c.559-.041 1-.508 1-1.077v-5.92h.5.5v5.92c0 .569.441 1.036 1 1.077v4.003h-3zm4 0c.559-.041 1-.508 1-1.077v-5.92h2v11h-3zm7 3.003c0 .551-.448 1-1 1h-2v-11h3z"/><path d="m51.5 25.5c1.103 0 2-.897 2-2s-.897-2-2-2-2 .897-2 2 .897 2 2 2zm0-3c.552 0 1 .449 1 1s-.448 1-1 1-1-.449-1-1 .448-1 1-1z"/><path d="m51.5 30.5c1.103 0 2-.897 2-2s-.897-2-2-2-2 .897-2 2 .897 2 2 2zm0-3c.552 0 1 .449 1 1s-.448 1-1 1-1-.449-1-1 .448-1 1-1z"/><path d="m22 23.5h-6.5v-1.029c0-.535-.436-.971-.971-.971h-1.059c-.535 0-.971.436-.971.971v1.029h-1.499c-.276 0-.5.224-.5.5s.224.5.5.5h1.5v1.029c0 .535.436.971.971.971h1.059c.535 0 .971-.436.971-.971v-1.029h6.499c.276 0 .5-.224.5-.5s-.224-.5-.5-.5zm-7.5 2.001-1 .028-.014-1.459c.003-.024.014-.045.014-.07 0-.027-.011-.051-.016-.077l-.013-1.423 1.029-.029z"/><path d="m18.471 30.5h1.059c.535 0 .971-.436.971-.971v-1.029h1.499c.276 0 .5-.224.5-.5s-.224-.5-.5-.5h-1.5v-1.029c0-.535-.436-.971-.971-.971h-1.059c-.535 0-.971.436-.971.971v1.029h-6.499c-.276 0-.5.224-.5.5s.224.5.5.5h6.5v1.029c0 .535.436.971.971.971zm1.029-4.029v3.03l-1 .028-.014-1.459c.003-.024.014-.045.014-.07 0-.027-.011-.051-.016-.077l-.013-1.423z"/><path d="m29.509 24.5c.547 0 .991-.444.991-.991v-1.019c0-.546-.444-.991-.991-.991h-4.018c-.547 0-.991.444-.991.991v1.019c0 .546.444.991.991.991zm-.009-2.009v1.009l-4 .009-.009-1.009z"/><path d="m37.509 24.5c.547 0 .991-.444.991-.991v-1.019c0-.546-.444-.991-.991-.991h-4.018c-.547 0-.991.444-.991.991v1.019c0 .546.444.991.991.991zm-.009-2.009v1.009l-4 .009-.009-1.009z"/><path d="m41.491 24.5h4.018c.547 0 .991-.444.991-.991v-1.019c0-.546-.444-.991-.991-.991h-4.018c-.547 0-.991.444-.991.991v1.019c0 .547.444.991.991.991zm4.009-2.009v1.009l-4 .009-.009-1.009z"/></svg>