<svg id="Layer_1" enable-background="new 0 0 64 64" height="512" viewBox="0 0 64 64" width="512" xmlns="http://www.w3.org/2000/svg"><circle cx="31" cy="18.004" r=".5"/><path d="m52 27.5c-.005 0-.009.001-.013.001-.523-2.322-1.443-4.491-2.682-6.443.006-.006.013-.011.019-.017 1.754-1.755 1.754-4.61 0-6.364-1.755-1.754-4.609-1.754-6.365.001-.006.006-.011.012-.016.018-1.952-1.239-4.121-2.159-6.443-2.682 0-.005.001-.009.001-.013 0-2.481-2.019-4.5-4.5-4.5s-4.5 2.019-4.5 4.5c0 .005.001.009.001.013-2.322.523-4.491 1.443-6.443 2.682-.006-.006-.011-.013-.017-.019-1.755-1.754-4.609-1.754-6.364 0-1.754 1.754-1.754 4.609.001 6.365.006.006.012.011.018.016-1.239 1.952-2.159 4.121-2.682 6.443-.005 0-.009-.001-.013-.001-2.481 0-4.5 2.019-4.5 4.5s2.019 4.5 4.5 4.5c.005 0 .009-.001.013-.001.523 2.322 1.443 4.491 2.682 6.443-.006.006-.013.011-.019.017-1.754 1.755-1.754 4.61 0 6.364.877.877 2.029 1.315 3.182 1.315s2.306-.438 3.184-1.316c.006-.006.011-.012.016-.018 1.952 1.239 4.121 2.159 6.443 2.682 0 .005-.001.009-.001.013 0 2.481 2.019 4.5 4.5 4.5s4.5-2.019 4.5-4.5c0-.005-.001-.009-.001-.013 2.322-.523 4.491-1.443 6.443-2.682.006.006.011.013.017.019.877.877 2.03 1.315 3.182 1.315s2.305-.438 3.182-1.315c1.754-1.754 1.754-4.609-.001-6.365-.006-.006-.012-.011-.018-.016 1.239-1.952 2.159-4.121 2.682-6.443.005 0 .009.001.013.001 2.481 0 4.5-2.019 4.5-4.5s-2.02-4.5-4.501-4.5zm-.7 7.137c-1.176 8.642-8.021 15.487-16.663 16.663-.223.03-.441.077-.664.1-.649.065-1.307.1-1.973.1s-1.324-.034-1.973-.1c-.223-.022-.442-.07-.664-.1-8.642-1.176-15.487-8.021-16.663-16.663-.03-.223-.077-.441-.1-.664-.065-.649-.1-1.307-.1-1.973s.034-1.324.1-1.973c.022-.223.07-.442.1-.664 1.176-8.642 8.021-15.487 16.663-16.663.223-.03.441-.077.664-.1.649-.065 1.307-.1 1.973-.1s1.324.034 1.973.1c.223.022.442.07.664.1 8.642 1.176 15.487 8.021 16.663 16.663.03.223.077.441.1.664.065.649.1 1.307.1 1.973s-.034 1.324-.1 1.973c-.022.223-.07.441-.1.664zm-2.683-19.254c1.317 1.317 1.363 3.432.138 4.804-.198-.281-.404-.557-.615-.826.325-.431.501-.953.501-1.502 0-.668-.26-1.296-.732-1.768-.86-.86-2.319-.949-3.271-.231-.269-.211-.545-.417-.826-.615 1.374-1.226 3.489-1.179 4.805.138zm-1.414 1.414c.283.283.439.66.439 1.061 0 .248-.068.485-.193.71-.622-.714-1.291-1.384-2.005-2.006.566-.291 1.297-.226 1.759.235zm-15.203-8.297c1.862 0 3.389 1.461 3.494 3.297-.337-.058-.678-.108-1.019-.149-.171-1.212-1.216-2.148-2.475-2.148s-2.304.936-2.475 2.148c-.341.041-.682.091-1.019.149.105-1.836 1.632-3.297 3.494-3.297zm0 2c.663 0 1.22.435 1.417 1.072-.47-.033-.939-.072-1.417-.072-.483 0-.956.039-1.43.072.185-.618.752-1.072 1.43-1.072zm-16.617 4.883c.683-.682 1.579-1.023 2.476-1.023.833 0 1.667.295 2.328.885-.281.198-.557.404-.826.615-.955-.72-2.411-.63-3.27.231-.472.472-.732 1.1-.732 1.768 0 .55.177 1.074.501 1.503-.211.269-.417.545-.615.826-1.225-1.375-1.179-3.488.138-4.805zm.975 2.475c0-.401.156-.777.439-1.061.459-.459 1.161-.573 1.767-.244-.719.626-1.392 1.3-2.018 2.019-.118-.217-.188-.459-.188-.714zm-7.858 14.142c0-1.862 1.461-3.389 3.297-3.494-.058.337-.108.678-.149 1.019-1.212.171-2.148 1.216-2.148 2.475s.936 2.304 2.148 2.475c.041.341.091.682.149 1.019-1.836-.105-3.297-1.632-3.297-3.494zm2 0c0-.663.435-1.22 1.072-1.417-.033.47-.072.939-.072 1.417 0 .483.039.956.072 1.43-.618-.185-1.072-.752-1.072-1.43zm4.883 16.617c-1.317-1.317-1.363-3.432-.138-4.804.198.281.404.557.615.826-.325.431-.501.953-.501 1.502 0 .668.26 1.296.732 1.768.861.862 2.321.95 3.271.231.27.211.545.417.826.615-1.375 1.224-3.49 1.178-4.805-.138zm1.414-1.414c-.283-.283-.439-.66-.439-1.061 0-.248.068-.485.193-.71.622.714 1.291 1.383 2.005 2.006-.566.291-1.297.226-1.759-.235zm15.203 8.297c-1.862 0-3.389-1.461-3.494-3.297.337.058.678.108 1.019.149.171 1.212 1.216 2.148 2.475 2.148s2.304-.936 2.475-2.148c.341-.041.682-.091 1.019-.149-.105 1.836-1.632 3.297-3.494 3.297zm0-2c-.663 0-1.22-.435-1.417-1.072.47.033.939.072 1.417.072.483 0 .956-.039 1.43-.072-.185.618-.752 1.072-1.43 1.072zm16.617-4.883c-1.317 1.317-3.432 1.363-4.804.138.28-.198.557-.404.826-.615.954.721 2.411.63 3.27-.231.472-.472.732-1.1.732-1.768 0-.55-.177-1.074-.501-1.503.211-.269.417-.545.615-.826 1.225 1.375 1.179 3.488-.138 4.805zm-.975-2.475c0 .401-.156.777-.439 1.061-.459.459-1.161.573-1.767.244.719-.626 1.392-1.3 2.018-2.019.119.217.188.459.188.714zm4.786-15.572c.618.185 1.072.752 1.072 1.43 0 .663-.435 1.22-1.072 1.417.033-.47.072-.939.072-1.417 0-.483-.039-.956-.072-1.43zm-.225 4.924c.058-.337.108-.678.149-1.019 1.212-.171 2.148-1.216 2.148-2.475s-.936-2.304-2.148-2.475c-.041-.341-.091-.682-.149-1.019 1.836.105 3.297 1.632 3.297 3.494s-1.461 3.389-3.297 3.494z"/><path d="m32 14.5c-9.649 0-17.5 7.851-17.5 17.5s7.851 17.5 17.5 17.5c1.755 0 3.486-.259 5.147-.769.264-.081.412-.361.331-.625-.082-.264-.36-.415-.625-.331-1.565.481-3.198.725-4.853.725-9.098 0-16.5-7.402-16.5-16.5s7.402-16.5 16.5-16.5 16.5 7.402 16.5 16.5c0 6.101-3.345 11.68-8.729 14.56-.244.13-.335.433-.205.677.13.243.433.335.677.205 5.71-3.055 9.257-8.972 9.257-15.442 0-9.649-7.851-17.5-17.5-17.5z"/><path d="m28.894 17.834c-6.602 1.441-11.394 7.398-11.394 14.166 0 .276.224.5.5.5s.5-.224.5-.5c0-6.301 4.461-11.848 10.606-13.189.27-.059.441-.325.382-.595-.058-.27-.328-.445-.594-.382z"/></svg>