<svg id="Layer_1" enable-background="new 0 0 64 64" height="512" viewBox="0 0 64 64" width="512" xmlns="http://www.w3.org/2000/svg"><circle cx="29.025" cy="40.601" r=".5"/><path d="m52 32.52c-.001 0-.003 0-.004 0-.51-2.298-1.421-4.468-2.682-6.451.003-.003.007-.006.011-.01 1.754-1.755 1.754-4.609 0-6.364-1.754-1.754-4.608-1.755-6.364 0-1.988-1.266-4.168-2.155-6.461-2.665 0-.004.001-.007.001-.011 0-2.481-2.019-4.5-4.5-4.5s-4.5 2.019-4.5 4.5c0 .008.001.016.001.025-2.302.531-4.459 1.462-6.406 2.713-.019-.02-.036-.042-.056-.062-1.755-1.755-4.611-1.753-6.364 0-1.754 1.755-1.754 4.609.001 6.365.019.019.04.035.06.053-1.248 1.949-2.166 4.114-2.7 6.408-.013 0-.024-.002-.037-.002-2.481 0-4.5 2.019-4.5 4.5s2.019 4.5 4.5 4.5c.007 0 .014-.001.021-.001.739 3.279 2.259 6.354 4.493 8.927.571.657 1.394 1.035 2.255 1.035h.001c.863 0 1.687-.379 2.259-1.039.879-1.014 2.188-1.885 3.777-2.555.282.382.731.633 1.241.633h11.908c.51 0 .959-.251 1.241-.633 1.589.67 2.898 1.541 3.777 2.555.572.66 1.396 1.039 2.26 1.039.862 0 1.684-.377 2.255-1.036 2.233-2.572 3.754-5.648 4.493-8.926.007 0 .014.001.021.001 2.481 0 4.5-2.019 4.5-4.5s-2.021-4.499-4.502-4.499zm.428 3.069c.618.186 1.072.753 1.072 1.43 0 .66-.432 1.215-1.064 1.414.033-.47.064-.94.064-1.414 0-.481-.039-.955-.072-1.43zm-3.811-15.187c1.315 1.315 1.349 3.419.129 4.792-.196-.276-.415-.538-.626-.805.333-.433.522-.956.522-1.512 0-.668-.26-1.296-.732-1.768-.891-.891-2.288-.958-3.267-.22-.271-.214-.555-.404-.835-.603 1.374-1.233 3.488-1.204 4.809.116zm-1.156 3.163c-.427-.489-.874-.965-1.352-1.418-.214-.203-.445-.379-.666-.571.568-.304 1.281-.237 1.76.241.283.283.439.66.439 1.061.001.239-.063.468-.181.687zm-15.461-10.045c1.863 0 3.377 1.467 3.48 3.305-.336-.057-.674-.099-1.014-.139-.165-1.22-1.202-2.166-2.466-2.166-1.266 0-2.303.948-2.467 2.17-.34.042-.679.087-1.015.146.099-1.844 1.616-3.316 3.482-3.316zm1.415 3.062c-.831-.056-1.669-.078-2.518-.033-.11.006-.216.026-.325.034.189-.613.753-1.062 1.427-1.062.662-.001 1.217.431 1.416 1.061zm-18.032 3.82c1.336-1.334 3.488-1.354 4.856-.077-.277.198-.541.413-.809.624-.981-.8-2.426-.754-3.34.16-.473.472-.732 1.1-.732 1.768 0 .577.204 1.118.563 1.562-.212.27-.402.556-.601.836-1.293-1.369-1.278-3.532.063-4.873zm1.203 3.265c-.147-.235-.229-.505-.229-.79 0-.401.156-.777.439-1.061.494-.494 1.235-.545 1.81-.207-.723.635-1.389 1.331-2.02 2.058zm-5.022 14.78c-.614-.188-1.064-.753-1.064-1.427 0-.663.436-1.221 1.071-1.417-.034.468-.071.936-.071 1.411 0 .48.031.957.064 1.433zm-3.064-1.427c0-1.87 1.479-3.39 3.326-3.482-.06.336-.111.675-.154 1.016-1.223.161-2.172 1.199-2.172 2.466 0 1.265.947 2.302 2.167 2.466.041.339.079.678.137 1.014-1.837-.104-3.304-1.618-3.304-3.48zm29.454 10.5h-11.908c-.301 0-.546-.245-.546-.545v-4.039c0-.356.212-.677.539-.817 0 0 .999-.419 1.267-.515.261-.093.396-.379.303-.639s-.377-.395-.639-.302c-.287.103-1.325.537-1.325.537-.658.282-1.082.91-1.127 1.617-1.713.613-3.3 1.415-4.711 2.401-.175.123-.385.165-.593.121s-.384-.169-.495-.353c-1.836-3.045-2.554-6.536-2.076-10.093.935-6.943 6.667-12.528 13.631-13.279 5.617-.603 11.127 1.865 14.354 6.412l1.428 2.449c.959 2.057 1.445 4.259 1.445 6.545 0 2.805-.768 5.56-2.222 7.969-.109.182-.284.307-.491.351-.21.045-.419.001-.595-.122-1.409-.986-2.995-1.787-4.71-2.401-.045-.707-.469-1.336-1.127-1.617l-.472-.202c-2.21-.946-4.646-1.348-7.033-1.163-.275.021-.481.262-.46.537.021.276.283.481.536.46 2.238-.171 4.504.203 6.563 1.085l.472.202c.327.14.539.461.539.817v4.039c-.001.3-.246.545-.547.545zm8.776 2.27c-.381.439-.927.691-1.499.691-.573 0-1.122-.253-1.504-.694-.994-1.147-2.459-2.123-4.228-2.856v-3.039c1.494.565 2.882 1.279 4.119 2.145.299.208.653.318 1.013.318.121 0 .243-.013.362-.038.475-.1.891-.396 1.141-.812 1.548-2.564 2.365-5.499 2.365-8.485 0-2.433-.518-4.778-1.56-7.008l-1.473-2.527c-3.462-4.88-9.332-7.507-15.302-6.865-7.416.8-13.52 6.747-14.514 14.14-.509 3.785.256 7.5 2.211 10.743.251.417.668.714 1.144.815.476.1.976-.001 1.373-.28 1.239-.866 2.627-1.579 4.12-2.144v3.038c-1.768.732-3.232 1.709-4.228 2.856-.382.441-.93.694-1.503.694-.001 0-.001 0-.001 0-.572 0-1.118-.252-1.499-.69-3.078-3.544-4.771-8.082-4.77-12.777.003-10.201 8.279-18.933 18.45-19.466 5.403-.283 10.553 1.608 14.471 5.326 2.947 2.797 4.898 6.332 5.685 10.21 0 .002-.001.003 0 .004 0 .002.002.004.002.007.258 1.276.392 2.589.392 3.925.003 4.691-1.69 9.226-4.767 12.769zm5.465-9.29c.058-.336.096-.675.137-1.014 1.221-.164 2.168-1.202 2.168-2.466 0-1.262-.943-2.298-2.16-2.466-.04-.341-.097-.679-.154-1.016 1.842.099 3.314 1.615 3.314 3.481 0 1.863-1.467 3.377-3.305 3.481z"/></svg>