<svg id="Layer_1" enable-background="new 0 0 64 64" height="512" viewBox="0 0 64 64" width="512" xmlns="http://www.w3.org/2000/svg"><path d="m48.276 43.435-12.37-24.742c-.332-.662-.818-1.212-1.406-1.623v-1.07c0-1.207-.86-2.217-2-2.449v-3.972c0-1.146-.933-2.079-2.078-2.079h-1.844c-1.146 0-2.078.933-2.078 2.079v6.921c0 .551-.448 1-1 1s-1-.449-1-1v-7c0-1.103-.897-2-2-2s-2 .897-2 2v11c0 .551-.448 1-1 1s-1-.449-1-1v-12.5c0-.276-.224-.5-.5-.5s-.5.224-.5.5v12.5c0 1.103.897 2 2 2s2-.897 2-2v-11c0-.551.448-1 1-1s1 .449 1 1v7c0 1.103.897 2 2 2s2-.897 2-2v-6.921c0-.595.483-1.079 1.078-1.079h1.844c.595 0 1.078.484 1.078 1.079v3.972c-1.14.232-2 1.242-2 2.449v1.07c-.588.411-1.074.961-1.406 1.623l-14.199 28.4c-.258.516-.395 1.094-.395 1.67 0 2.06 1.676 3.736 3.736 3.736h14.264v1.501c0 1.378 1.121 2.5 2.5 2.5s2.5-1.122 2.5-2.5v-1.5h5c1.103 0 2-.897 2-2s-.897-2-2-2h-5.051c-.103-.481-.468-.846-.949-.949v-15.551c0-.827-.673-1.5-1.5-1.5s-1.5.673-1.5 1.5v10.017c0 .276.224.5.5.5s.5-.224.5-.5v-10.017c0-.276.225-.5.5-.5s.5.224.5.5v15.5h-1v-3.478c0-.276-.224-.5-.5-.5s-.5.224-.5.5v3.529c-.481.103-.846.467-.949.949h-11.753c-.225 0-.423-.109-.544-.298-.121-.19-.136-.416-.041-.619l11.088-23.759c.447.416 1.041.676 1.699.676s1.252-.26 1.699-.677l9.695 20.773c.54 1.156 1.713 1.903 2.988 1.903 1.168 0 2.118-.95 2.118-2.118 0-.326-.077-.654-.224-.946zm-5.776 7.065c0 .551-.448 1-1 1h-5v-2h5c.552 0 1 .449 1 1zm-10-1.747c0-.14.113-.253.253-.253h2.494c.14 0 .253.113.253.253v5.247c0 .827-.673 1.5-1.5 1.5s-1.5-.673-1.5-1.5zm-14.193-1.593c-.238.512-.2 1.103.104 1.579s.822.761 1.388.761h11.701v2h-14.264c-1.509 0-2.736-1.228-2.736-2.736 0-.422.1-.845.289-1.223l14.199-28.399c.14-.28.314-.527.512-.749v3.607c0 .296.061.577.156.841zm13.693-23.66c-.827 0-1.5-.673-1.5-1.5v-6c0-.651.419-1.201 1-1.408v1.408c0 .276.224.5.5.5s.5-.224.5-.5v-1.408c.581.207 1 .757 1 1.408v6c0 .827-.673 1.5-1.5 1.5zm14.382 22c-.889 0-1.706-.521-2.082-1.326l-9.956-21.333c.095-.264.156-.545.156-.841v-3.608c.197.222.372.469.512.748l12.37 24.741c.077.154.118.328.118.5 0 .618-.502 1.119-1.118 1.119z"/></svg>