<svg id="Layer_1" enable-background="new 0 0 64 64" height="512" viewBox="0 0 64 64" width="512" xmlns="http://www.w3.org/2000/svg"><circle cx="26" cy="24.001" r=".5"/><path d="m17 42.5h19c.276 0 .5-.224.5-.5s-.224-.5-.5-.5h-19c-4.687 0-8.5-3.813-8.5-8.5s3.813-8.5 8.5-8.5h7c.276 0 .5-.224.5-.5s-.224-.5-.5-.5h-7c-5.238 0-9.5 4.262-9.5 9.5s4.262 9.5 9.5 9.5z"/><path d="m56 15.5c-.276 0-.5.224-.5.5v1.732l-2.558 1.706-.215.132s-.001.001-.001.001c-3.936 2.567-8.492 3.929-13.198 3.929h-11.528c-.276 0-.5.224-.5.5s.224.5.5.5h11.528c4.597 0 9.052-1.256 12.972-3.617v9.233c-3.92-2.36-8.375-3.617-12.971-3.617h-22.529c-.02 0-.039.003-.059.003-.005 0-.01-.003-.015-.003-.009 0-.016.005-.025.005-3.538.055-6.401 2.945-6.401 6.496s2.863 6.441 6.401 6.495c.009 0 .016.005.025.005.005 0 .01-.003.015-.003.02 0 .039.003.059.003h10 2 3 2 8c1.379 0 2.5-1.122 2.5-2.5s-1.121-2.5-2.5-2.5h-8-2-3-2-2.5v-2h2.5 2 3 2 8c2.481 0 4.5 2.019 4.5 4.5s-2.019 4.5-4.5 4.5h-3c-.276 0-.5.224-.5.5s.224.5.5.5h3c3.032 0 5.5-2.467 5.5-5.5s-2.468-5.5-5.5-5.5h-7.5v-.5c0-.827-.673-1.5-1.5-1.5s-1.5.673-1.5 1.5v.5h-2v-.5c0-.827-.673-1.5-1.5-1.5s-1.5.673-1.5 1.5v.5h-2.5-.298c-.091 0-.179-.015-.269-.022-.319-.023-.635-.073-.942-.175l-2.333-.778c-.154-.052-.321-.025-.45.068-.131.095-.208.246-.208.407v5c0 .161.077.312.208.406.077.055.168.079.261.084.011.001.02.01.031.01.053 0 .106-.008.158-.026l2.334-.778c.391-.13.798-.196 1.21-.196h.298 2.5v3h-9.074v-11h22.104c4.704 0 9.26 1.362 13.197 3.929 0 0 .001.001.001.001l2.772 1.838v1.732c0 .276.224.5.5.5s.5-.224.5-.5v-2-15-2c0-.276-.224-.5-.5-.5zm-44.5 17.5c0-2.839 2.162-5.181 4.926-5.47v10.94c-2.764-.289-4.926-2.631-4.926-5.47zm18 5.5v-3h2v3zm14-1.5c0 .827-.673 1.5-1.5 1.5h-7.5v-3h7.5c.827 0 1.5.673 1.5 1.5zm-10-1.5v3h-1v-3zm-1-4.5c0-.276.225-.5.5-.5s.5.224.5.5v.5h-1zm-5 0c0-.276.225-.5.5-.5s.5.224.5.5v.5h-1zm-7 4.306v-3.612l1.676.559c.008.003.016.003.023.006.224.073.453.128.684.168.081.014.163.018.244.027.124.015.248.037.374.042v2.009c-.126.005-.25.027-.376.042-.08.01-.161.013-.241.027-.239.041-.476.097-.708.174zm7 .194h1v3h-1zm28-3.435-2-1.333v-10.464l2-1.333z"/></svg>