<svg id="Layer_1" enable-background="new 0 0 64 64" height="512" viewBox="0 0 64 64" width="512" xmlns="http://www.w3.org/2000/svg"><circle cx="26.955" cy="11.001" r=".5"/><path d="m18.345 35.5c-.268-.588-.858-1-1.545-1h-1.8c-.276 0-.5.224-.5.5v5c0 .276.224.5.5.5h1.8c.687 0 1.277-.412 1.545-1h2.655 5.5v5.5c0 6.341 5.159 11.5 11.5 11.5h1.273c6.742 0 12.227-5.484 12.227-12.227v-9.773c0-4.411-3.589-8-8-8s-8 3.589-8 8v1h-1.061c-.168-13.855 2.925-20.801 5.547-24.185.003-.004.008-.005.011-.009.483-.626.989-1.181 1.502-1.648.385-.351.513-.889.326-1.371-.185-.478-.637-.787-1.151-.787h-20.512c-.511 0-.949.293-1.142.764-.192.468-.083 1 .278 1.355.476.47.95 1.032 1.411 1.673.003.005.009.006.013.011 2.446 3.393 5.422 10.345 5.747 24.197h-5.469zm-1.545 4h-1.3v-4h1.3c.386 0 .7.314.7.7v2.6c0 .386-.314.7-.7.7zm1.7-1v-2h2v2zm18-4c0-3.859 3.141-7 7-7s7 3.141 7 7v9.773c0 6.19-5.036 11.227-11.227 11.227h-1.273c-5.79 0-10.5-4.71-10.5-10.5v-5.5h6v7c0 3.309 2.691 6 6.099 6 3.875 0 7.23-2.891 7.8-6.694.092-.429.102-.987.102-1.207v-2.597c0-.001 0-.003 0-.004v-7.998c0-2.481-2.019-4.5-4.5-4.5s-4.5 2.019-4.5 4.5v5.844c0 1.357 1.027 2.467 2.343 2.625.05.017 5.655.032 5.655.032l-.006 1.483c-.524.271-1.771.516-2.493.516h-3.014c-2.474 0-4.486-2.013-4.486-4.486v-1.014-3zm-1 5v.514c0 3.025 2.461 5.486 5.486 5.486h3.014c.492 0 1.624-.13 2.484-.433-.012.182-.032.385-.069.56-.502 3.349-3.433 5.873-6.915 5.873-2.757 0-5-2.243-5-5v-7zm8 2v-3h1v3zm-2 0v-3h1v3zm4-3.5c0-.276-.224-.5-.5-.5h-.5v-.5c0-.276-.224-.5-.5-.5s-.5.224-.5.5v.5h-1v-.5c0-.276-.224-.5-.5-.5s-.5.224-.5.5v.5h-.5c-.276 0-.5.224-.5.5v3.363c-.587-.255-1-.839-1-1.519v-5.844c0-1.93 1.57-3.5 3.5-3.5s3.5 1.57 3.5 3.5v7.5h-1zm-10 .5h-1.5-7-5.5v-2h5.481 6.962 1.557zm-13.441-27h2.882c.276 0 .5-.224.5-.5s-.224-.5-.5-.5h-3.57c-.232-.312-.457-.591-.676-.845-.003-.003-.006-.006-.009-.01-.238-.276-.469-.523-.686-.737-.105-.104-.074-.22-.056-.265.022-.053.08-.143.218-.143h20.512c.141 0 .197.092.219.146.018.047.047.167-.067.271-.236.215-.485.462-.743.739-.001.001-.002.002-.003.003-.235.253-.477.53-.724.84h-10.356c-.276 0-.5.224-.5.5s.224.5.5.5h9.619c-2.584 3.776-5.341 10.888-5.184 24h-5.964c-.304-13.115-2.99-20.225-5.412-23.999z"/></svg>