<svg id="Layer_1" enable-background="new 0 0 64 64" height="512" viewBox="0 0 64 64" width="512" xmlns="http://www.w3.org/2000/svg"><circle cx="24.63" cy="32.891" r=".5"/><path d="m41.357 41.534c-.791-1.518-1.088-3.053-.858-4.44.064-.39.097-.785.097-1.176 0-3.475-2.489-6.505-6.096-7.502v-12.916h.247c.591 0 1.086-.475 1.127-1.08l.002-.034h.954c.276 0 .5-.224.5-.5s-.224-.5-.5-.5h-.886l.199-2.927h.687c.276 0 .5-.224.5-.5s-.224-.5-.5-.5h-.619l.025-.369c.028-.419-.117-.833-.399-1.136-.274-.293-.642-.454-1.035-.454h-5.604c-.394 0-.762.161-1.035.454-.282.303-.428.717-.399 1.136l.025.37h-.599c-.276 0-.5.224-.5.5s.224.5.5.5h.666l.199 2.93h-.865c-.276 0-.5.224-.5.5s.224.5.5.5h.933l.002.03c.041.605.536 1.08 1.127 1.08h.248v12.932c-1.657.462-3.156 1.368-4.239 2.614-.181.209-.158.524.05.706.095.082.212.122.328.122.14 0 .278-.059.378-.172.896-1.033 2.122-1.795 3.483-2.226v5.952c0 .167.083.322.221.415.139.094.313.109.468.048l.362-.147c.908-.371 1.991-.371 2.899 0l.361.147c.061.024.125.037.188.037.098 0 .195-.028.279-.085.138-.093.221-.248.221-.415v-5.952c3.023.951 5.096 3.508 5.096 6.441 0 .337-.028.678-.083 1.013-.266 1.603.065 3.354.958 5.065.683 1.313 1.029 2.729 1.029 4.208 0 5.126-4.262 9.296-9.5 9.296s-9.5-4.17-9.5-9.296c0-1.479.347-2.896 1.029-4.207.893-1.712 1.224-3.464.958-5.065-.055-.336-.083-.677-.083-1.014 0-.378.034-.757.103-1.126.051-.271-.129-.532-.4-.582-.267-.054-.533.128-.582.4-.08.429-.12.869-.12 1.308 0 .391.032.786.097 1.177.229 1.387-.067 2.922-.858 4.44-.758 1.456-1.143 3.027-1.143 4.669 0 5.678 4.71 10.297 10.5 10.297s10.5-4.619 10.5-10.296c0-1.641-.385-3.213-1.143-4.67zm-7.857-17.039v2.021h-3v-2.021zm-3-1v-2.004h3v2.004zm3-3.004h-3v-2.004h3zm-3 9.993h3v2.004h-3zm0-1v-1.968h3v1.968zm-1.376-15.132-.362-5.33c-.01-.144.038-.284.133-.385.082-.088.189-.137.303-.137h5.604c.114 0 .222.049.304.137.095.101.143.241.133.385l-.362 5.33c-.005.082-.063.148-.129.148h-.748-4-.747c-.066 0-.124-.066-.129-.148zm4.376 1.148v1.987h-3v-1.987zm-1.5 18.967c-.51 0-1.02.078-1.5.232v-1.211h3v1.211c-.48-.154-.99-.232-1.5-.232z"/><path d="m32 37.5c-2.688 0-4.875 2.243-4.875 5s2.187 5 4.875 5 4.875-2.243 4.875-5-2.187-5-4.875-5zm0 9c-2.137 0-3.875-1.794-3.875-4s1.738-4 3.875-4 3.875 1.794 3.875 4-1.738 4-3.875 4z"/><path d="m32 39.3c-.276 0-.5.224-.5.5s.224.5.5.5c1.172 0 2.125.987 2.125 2.2s-.953 2.2-2.125 2.2-2.125-.987-2.125-2.2c0-.545.194-1.067.546-1.472.182-.208.16-.523-.049-.705-.209-.183-.524-.162-.705.049-.511.586-.792 1.342-.792 2.128 0 1.765 1.402 3.2 3.125 3.2s3.125-1.436 3.125-3.2-1.402-3.2-3.125-3.2z"/><path d="m29 48.5c-.827 0-1.5.673-1.5 1.5s.673 1.5 1.5 1.5h6c.827 0 1.5-.673 1.5-1.5s-.673-1.5-1.5-1.5zm6.5 1.5c0 .275-.225.5-.5.5h-6c-.275 0-.5-.225-.5-.5s.225-.5.5-.5h6c.275 0 .5.225.5.5z"/><path d="m33.904 10.5c.276 0 .5-.224.5-.5s-.224-.5-.5-.5h-3.809c-.276 0-.5.224-.5.5s.224.5.5.5z"/><path d="m32.952 12.398h-1.904c-.276 0-.5.224-.5.5s.224.5.5.5h1.904c.276 0 .5-.224.5-.5s-.223-.5-.5-.5z"/></svg>