<svg id="Layer_1" enable-background="new 0 0 64 64" height="512" viewBox="0 0 64 64" width="512" xmlns="http://www.w3.org/2000/svg"><circle cx="26.905" cy="28.531" r=".5"/><path d="m31 44.5h2c.276 0 .5-.224.5-.5s-.224-.5-.5-.5h-2c-.276 0-.5.224-.5.5s.224.5.5.5z"/><path d="m44.322 12.602-.099-.049c-.155-.078-.34-.069-.486.022-.147.091-.237.252-.237.425v36c0 .189.107.362.276.447.268.134.556.2.843.2.343 0 .685-.095.988-.283.559-.345.893-.944.893-1.601v-31.638c0-1.501-.834-2.851-2.178-3.523zm1.178 3.523v27.375h-1v-29.585c.63.549 1 1.346 1 2.21zm-.418 32.389c-.182.111-.384.151-.582.126v-4.14h1v3.264c0 .313-.152.586-.418.75z"/><path d="m38.297 40.598c-.086-.064-.191-.098-.297-.098h-.873c-.897 0-1.627-.73-1.627-1.627v-.357c0-.914.216-1.83.625-2.648.111-.223.346-.368.596-.368h1.279c.152 0 .296-.069.392-.188.982-1.235 1.108-2.419 1.108-3.312 0-2.434-2.163-4.537-5.293-5.241l-.37-7.735c-.013-.275-.246-.497-.522-.476-.276.013-.489.248-.476.523l.606 12.688c.009.195-.062.38-.196.521-.135.141-.316.218-.512.218h-1.475c-.195 0-.377-.078-.512-.218-.135-.141-.205-.326-.197-.519l.924-19.261h1.047l.209 4.348c.013.275.209.5.523.476.275-.013.488-.248.475-.523l-.216-4.499c.344-.175.623-.455.795-.801h.69c.276 0 .5-.224.5-.5s-.224-.5-.5-.5h-.5v-1h.5c.276 0 .5-.224.5-.5s-.224-.501-.5-.501h-.5v-.5c0-.276-.224-.5-.5-.5h-4c-.276 0-.5.224-.5.5v.5h-.5c-.276 0-.5.224-.5.5s.224.5.5.5h.5v1h-.5c-.276 0-.5.224-.5.5s.224.5.5.5h.691c.172.346.45.627.795.801l-.693 14.449c-.438.098-.866.217-1.271.372-.258.099-.387.388-.288.646.076.199.266.321.467.321.06 0 .12-.011.179-.033.277-.106.568-.193.864-.269l-.188 3.931c-.02.47.148.917.475 1.256.325.339.763.526 1.233.526h1.475c.471 0 .908-.187 1.233-.526.326-.34.494-.786.474-1.259l-.188-3.918c2.521.651 4.242 2.311 4.242 4.203 0 1.026-.219 1.768-.748 2.5h-1.031c-.636 0-1.206.353-1.49.92-.478.957-.73 2.027-.73 3.095v.357c0 1.449 1.179 2.627 2.627 2.627h.705c1.771 1.368 2.668 3.386 2.668 6 0 2.925-2.974 5.394-7 5.9v-3.091l.876-.438c.693-.347 1.124-1.043 1.124-1.819v-1.051c0-.276-.224-.5-.5-.5h-6c-.276 0-.5.224-.5.5v1.052c0 .775.431 1.472 1.124 1.819l.876.438v3.091c-.703-.088-1.372-.236-2-.436v-2.581c0-2.141-1.741-3.882-3.882-3.882h-1.069c.205-2.133 1.082-3.812 2.619-5h.705c1.448 0 2.627-1.178 2.627-2.627v-.357c0-1.068-.253-2.138-.73-3.095-.284-.568-.854-.92-1.49-.92h-1.031c-.531-.734-.75-1.476-.75-2.502 0-.566.152-1.118.451-1.641.138-.24.055-.545-.185-.683-.241-.136-.546-.055-.683.186-.387.676-.583 1.395-.583 2.138 0 .893.126 2.077 1.108 3.312.096.119.24.188.392.188h1.279c.25 0 .484.145.596.368.409.818.625 1.734.625 2.648v.357c0 .897-.729 1.627-1.627 1.627h-.873c-.106 0-.211.034-.297.098-1.997 1.473-3.057 3.621-3.179 6.374-.001.01-.006.018-.006.029 0 .006.003.012.004.018-.006.16-.022.316-.022.481 0 3.466 3.409 6.372 8 6.906v.594c0 .827.673 1.5 1.5 1.5s1.5-.673 1.5-1.5v-.594c4.591-.534 8-3.44 8-6.906 0-3.012-1.078-5.334-3.203-6.902zm-7.797-32.098h3v2.213c0 .434-.354.787-.787.787h-1.426c-.434 0-.787-.353-.787-.787zm-7 39h1.118c1.589 0 2.882 1.293 2.882 2.882v2.207c-2.417-1.065-4-2.956-4-5.089zm9 7.5c0 .276-.225.5-.5.5s-.5-.224-.5-.5v-5c0-.189-.107-.362-.276-.447l-1.152-.576c-.353-.176-.571-.53-.571-.924v-.553h5v.552c0 .394-.219.748-.571.924l-1.152.576c-.171.086-.278.259-.278.448z"/><path d="m30 40.5c-.276 0-.5.224-.5.5 0 1.658-1.708 2.545-1.725 2.554-.246.125-.345.425-.221.671.088.174.264.275.446.275.075 0 .151-.017.223-.053.093-.046 2.277-1.164 2.277-3.447 0-.276-.224-.5-.5-.5z"/><path d="m35.999 44.5c.183 0 .358-.101.446-.275.124-.246.025-.546-.221-.671-.016-.009-1.724-.896-1.724-2.554 0-.276-.224-.5-.5-.5s-.5.224-.5.5c0 2.283 2.184 3.401 2.276 3.447.072.036.148.053.223.053z"/></svg>