<svg id="Layer_1" enable-background="new 0 0 64 64" height="512" viewBox="0 0 64 64" width="512" xmlns="http://www.w3.org/2000/svg"><circle cx="17" cy="35.004" r=".5"/><circle cx="23" cy="35.004" r=".5"/><circle cx="29" cy="35.004" r=".5"/><circle cx="35" cy="34.004" r=".5"/><circle cx="41" cy="34.004" r=".5"/><circle cx="47" cy="33.001" r=".5"/><circle cx="47" cy="26.001" r=".5"/><circle cx="41" cy="25.001" r=".5"/><circle cx="35" cy="25.001" r=".5"/><circle cx="29" cy="24.001" r=".5"/><circle cx="23" cy="24.004" r=".5"/><circle cx="17" cy="24.004" r=".5"/><circle cx="15" cy="29.001" r=".5"/><path d="m53.913 22.5h-.977c-.792 0-1.436.644-1.436 1.436v.538l-2.051-.102c-.118-.495-.543-.872-1.073-.872h-2.752c-.44 0-.813.261-.997.63l-1.127-.056v-1.45c0-.62-.504-1.124-1.124-1.124h-2.752c-.62 0-1.124.504-1.124 1.124v1.2l-1-.05v-2.15c0-.62-.504-1.124-1.124-1.124h-2.752c-.62 0-1.124.504-1.124 1.124v1.9l-1-.05v-2.85c0-.62-.504-1.124-1.124-1.124h-2.752c-.62 0-1.124.504-1.124 1.124v2.6l-1-.05v-3.55c0-.62-.504-1.124-1.124-1.124h-2.752c-.62 0-1.124.504-1.124 1.124v3.3l-1-.05v-5.25c0-.62-.504-1.124-1.124-1.124h-2.752c-.62 0-1.124.504-1.124 1.124v5l-2-.1v-1.588c0-.792-.644-1.436-1.436-1.436h-.977c-1.426 0-2.587 1.161-2.587 2.587v14.826c0 1.426 1.161 2.587 2.587 2.587h.977c.792 0 1.436-.644 1.436-1.436v-1.588l2-.1v6c0 .62.504 1.124 1.124 1.124h2.752c.62 0 1.124-.504 1.124-1.124v-6.25l1-.05v5.3c0 .62.504 1.124 1.124 1.124h2.752c.62 0 1.124-.504 1.124-1.124v-5.55l1-.05v4.6c0 .62.504 1.124 1.124 1.124h2.752c.62 0 1.124-.504 1.124-1.124v-4.85l1-.05v2.9c0 .62.504 1.124 1.124 1.124h2.752c.62 0 1.124-.504 1.124-1.124v-3.15l1-.05v1.2c0 .62.504 1.124 1.124 1.124h2.752c.62 0 1.124-.504 1.124-1.124v-1.45l1.127-.056c.184.37.557.63.997.63h2.752c.53 0 .955-.377 1.073-.872l2.051-.102v.538c0 .792.644 1.436 1.436 1.436h.977c1.426 0 2.587-1.161 2.587-2.587v-8.826c0-1.426-1.161-2.587-2.587-2.587zm-4.413 5.876 2 .1v2.048l-2 .1zm2-.901-2-.1v-1.999l2 .1zm-8 .601 1 .05v2.749l-1 .05zm1-2.951v1.999l-1-.05v-1.999zm-7 2.651 1 .05v3.348l-1 .05zm1-2.95v1.999l-1-.05v-1.999zm-7 2.65 1 .05v3.949l-1 .05zm1-2.951v1.999l-1-.05v-1.999zm-7 2.651 1 .05v4.549l-1 .05zm1-2.95v1.999l-1-.05v-1.999zm-7 2.65 1 .05v5.148l-1 .05zm1-2.95v1.999l-1-.05v-1.999zm-6-.301v1.999l-2-.1v-1.999zm-3 14.439c0 .24-.196.436-.436.436h-.977c-.875 0-1.587-.712-1.587-1.587v-14.826c0-.875.712-1.587 1.587-1.587h.977c.24 0 .436.196.436.436v2.064 3 7 3zm1-2.589v-1.999l2-.1v1.999zm6 6.901c0 .068-.056.124-.124.124h-2.752c-.068 0-.124-.056-.124-.124v-6.526-3-1.85c0-.276-.224-.5-.5-.5s-.5.224-.5.5v1.374l-2 .1v-5.948l2 .1v.374c0 .276.224.5.5.5s.5-.224.5-.5v-.85-3-5.526c0-.068.056-.124.124-.124h2.752c.068 0 .124.056.124.124v5.726 3 6.3 3zm1-7.252v-1.999l1-.05v1.999zm5 6.252c0 .068-.056.124-.124.124h-2.752c-.068 0-.124-.056-.124-.124v-5.826-3-6.1-3-3.826c0-.068.056-.124.124-.124h2.752c.068 0 .124.056.124.124v4.026 3 5.7 3zm1-6.552v-1.999l1-.05v1.999zm5 5.552c0 .068-.056.124-.124.124h-2.752c-.068 0-.124-.056-.124-.124v-5.126-3-5.5-3-3.126c0-.068.056-.124.124-.124h2.752c.068 0 .124.056.124.124v3.326 3 5.1 3zm1-5.852v-1.999l1-.05v1.999zm5 3.852c0 .068-.056.124-.124.124h-2.752c-.068 0-.124-.056-.124-.124v-3.426-3-4.9-3-2.426c0-.068.056-.124.124-.124h2.752c.068 0 .124.056.124.124v2.626 3 4.5 3zm1-4.152v-1.999l1-.05v1.999zm5 2.152c0 .068-.056.124-.124.124h-2.752c-.068 0-.124-.056-.124-.124v-1.726-3-4.3-3-1.726c0-.068.056-.124.124-.124h2.752c.068 0 .124.056.124.124v1.926 3 3.9 3zm1-4.45 1-.05v1.999l-1 .05zm5 2.45c0 .068-.056.124-.124.124h-2.752c-.068 0-.124-.056-.124-.124v-.026-3-3.7-3-.026c0-.068.056-.124.124-.124h2.752c.068 0 .124.056.124.124v.226 3 3.3 3zm1-.751v-1.999l2-.1v1.999zm6 .288c0 .875-.712 1.587-1.587 1.587h-.977c-.24 0-.436-.196-.436-.436v-1.064-3-3-3-1.064c0-.24.196-.436.436-.436h.977c.875 0 1.587.712 1.587 1.587z"/><path d="m38.5 49c0 .276.224.5.5.5h3.851c.564 1.178 1.758 2 3.149 2 1.93 0 3.5-1.57 3.5-3.5s-1.57-3.5-3.5-3.5c-1.391 0-2.585.822-3.149 2h-23.851c-.827 0-1.5.673-1.5 1.5s.673 1.5 1.5 1.5h18c.276 0 .5-.224.5-.5s-.224-.5-.5-.5h-18c-.276 0-.5-.224-.5-.5s.224-.5.5-.5h23.536c-.024.165-.036.332-.036.5s.012.335.036.5h-3.536c-.276 0-.5.224-.5.5zm7.5-3.5c1.378 0 2.5 1.122 2.5 2.5s-1.122 2.5-2.5 2.5c-1.165 0-2.138-.804-2.414-1.884-.013-.049-.029-.098-.039-.148-.029-.152-.047-.308-.047-.468s.018-.316.047-.468c.01-.05.026-.099.039-.148.276-1.08 1.249-1.884 2.414-1.884z"/></svg>