<?xml version="1.0" encoding="utf-8"?>
<!-- Generator: Adobe Illustrator 23.0.1, SVG Export Plug-In . SVG Version: 6.00 Build 0)  -->
<svg version="1.1" id="Capa_1" xmlns="http://www.w3.org/2000/svg" xmlns:xlink="http://www.w3.org/1999/xlink" x="0px" y="0px"
	 viewBox="0 0 679.71 753.59" style="enable-background:new 0 0 679.71 753.59;" xml:space="preserve">
<g>
	<g>
		<path d="M513.15,111.77h-35.78H202.34h-35.78c-4.29,0-7.76,3.48-7.76,7.76s3.48,7.76,7.76,7.76h28.02v20.53
			c0,4.29,3.48,7.76,7.76,7.76h37.63c4.29,0,7.76-3.48,7.76-7.76c0-4.29-3.48-7.76-7.76-7.76H210.1V127.3h259.5v12.77H276.7
			c-4.29,0-7.76,3.48-7.76,7.76c0,4.29,3.48,7.76,7.76,7.76h37.13v42.56c0,4.29,3.48,7.76,7.76,7.76h10.49v62.82
			c-91.35,4.08-164.42,79.66-164.42,172c0,94.94,77.24,172.19,172.19,172.19s172.19-77.24,172.19-172.19
			c0-13.75-1.63-27.45-4.84-40.7c-1.01-4.17-5.21-6.73-9.38-5.72c-4.17,1.01-6.73,5.21-5.72,9.38c2.32,9.56,3.71,19.38,4.2,29.27
			h-55.1c-0.53-26.61-3.8-52.41-9.41-75.96h40.46c3.29,5.18,6.31,10.57,8.99,16.18c1.85,3.87,6.49,5.5,10.36,3.65
			c3.87-1.85,5.5-6.49,3.65-10.36c-13.83-28.89-35.4-53.33-62.4-70.68c-25.56-16.43-54.88-25.7-85.24-27.06v-62.84h10.49
			c4.29,0,7.76-3.48,7.76-7.76v-42.56h111.49c4.29,0,7.76-3.48,7.76-7.76V127.3h28.02c4.29,0,7.76-3.48,7.76-7.76
			S517.44,111.77,513.15,111.77z M267.58,301.78c-6.04,11.92-11.25,25.28-15.52,39.71h-33.32
			C232.13,325.19,248.74,311.63,267.58,301.78z M207.5,357.02h40.42c-5.62,23.55-8.88,49.35-9.42,75.96h-55.11
			C184.75,405.15,193.42,379.2,207.5,357.02z M218.74,539.99h33.3c4.31,14.46,9.55,27.84,15.56,39.72
			C248.74,569.87,232.13,556.3,218.74,539.99z M332.09,597.21c-14.12-0.69-27.76-3.27-40.67-7.48
			c-9.18-13.42-17.06-30.41-23.17-49.73h63.84V597.21z M332.09,524.46h-68.24c-1.96-7.78-3.66-15.85-5.06-24.14
			c-0.71-4.23-4.72-7.08-8.94-6.37c-4.23,0.71-7.08,4.72-6.37,8.94c1.24,7.36,2.72,14.56,4.39,21.57H207.5
			c-14.08-22.18-22.75-48.13-24.11-75.96h55.11c0.11,5.63,0.33,11.25,0.68,16.79c0.26,4.11,3.68,7.28,7.74,7.28
			c0.16,0,0.33-0.01,0.5-0.02c4.28-0.27,7.53-3.96,7.26-8.24c-0.33-5.22-0.54-10.51-0.65-15.82h78.06L332.09,524.46L332.09,524.46z
			 M332.09,432.98h-78.06c0.55-26.82,3.96-52.68,9.81-75.96h68.24V432.98z M332.09,341.49h-63.86
			c6.05-19.19,13.89-36.13,23.22-49.74c12.9-4.2,26.53-6.78,40.65-7.47V341.49z M388.26,589.73c-12.9,4.2-26.53,6.78-40.65,7.47
			v-57.21h63.86C405.43,559.18,397.6,576.12,388.26,589.73z M425.67,448.51c-0.55,26.82-3.96,52.68-9.81,75.96h-68.24v-75.96H425.67
			z M347.62,432.98v-75.96h68.24c5.85,23.28,9.26,49.14,9.81,75.96H347.62z M412.13,579.7c6.04-11.92,11.25-25.28,15.52-39.71h33.31
			C447.58,556.3,430.97,569.86,412.13,579.7z M441.2,448.51h55.11c-1.37,27.83-10.03,53.77-24.11,75.96h-40.42
			C437.41,500.91,440.67,475.11,441.2,448.51z M460.99,341.49h-33.34c-4.25-14.35-9.42-27.64-15.43-39.51
			C430.85,311.72,447.5,325.13,460.99,341.49z M388.36,291.88c9.29,13.59,17.1,30.48,23.13,49.61h-63.86V284.3
			C361.61,285.01,375.3,287.59,388.36,291.88z M350.34,190.39h-20.98v-34.79h20.98V190.39z"/>
	</g>
</g>
<g>
	<g>
		<path d="M571.13,357.3H546.7c-4.29,0-7.76,3.48-7.76,7.76c0,4.29,3.48,7.76,7.76,7.76h24.43c4.29,0,7.76-3.48,7.76-7.76
			C578.89,360.78,575.42,357.3,571.13,357.3z"/>
	</g>
</g>
<g>
	<g>
		<path d="M571.13,508.65H546.7c-4.29,0-7.76,3.48-7.76,7.76s3.48,7.76,7.76,7.76h24.43c4.29,0,7.76-3.48,7.76-7.76
			S575.42,508.65,571.13,508.65z"/>
	</g>
</g>
<g>
	<g>
		<path d="M486.21,241.94c-3.03-3.03-7.95-3.03-10.98,0l-22.72,22.72c-3.03,3.03-3.03,7.95,0,10.98c1.52,1.52,3.5,2.27,5.49,2.27
			c1.99,0,3.97-0.76,5.49-2.27l22.72-22.72C489.25,249.89,489.25,244.97,486.21,241.94z"/>
	</g>
</g>
<g>
	<g>
		<path d="M486.22,628.56l-22.72-22.72c-3.03-3.03-7.95-3.03-10.98,0c-3.03,3.03-3.03,7.95,0,10.98l22.72,22.72
			c1.52,1.52,3.5,2.27,5.49,2.27c1.99,0,3.97-0.76,5.49-2.27C489.25,636.51,489.25,631.6,486.22,628.56z"/>
	</g>
</g>
<g>
	<g>
		<path d="M133,357.3h-24.43c-4.29,0-7.76,3.48-7.76,7.76c0,4.29,3.48,7.76,7.76,7.76H133c4.29,0,7.76-3.48,7.76-7.76
			C140.77,360.78,137.29,357.3,133,357.3z"/>
	</g>
</g>
<g>
	<g>
		<path d="M133,508.65h-24.43c-4.29,0-7.76,3.48-7.76,7.76s3.48,7.76,7.76,7.76H133c4.29,0,7.76-3.48,7.76-7.76
			C140.77,512.13,137.29,508.65,133,508.65z"/>
	</g>
</g>
<g>
	<g>
		<path d="M227.19,264.65l-22.72-22.72c-3.03-3.03-7.95-3.03-10.98,0c-3.03,3.03-3.03,7.95,0,10.98l22.72,22.72
			c1.52,1.52,3.5,2.27,5.49,2.27c1.99,0,3.97-0.76,5.49-2.27C230.22,272.6,230.22,267.69,227.19,264.65z"/>
	</g>
</g>
<g>
	<g>
		<path d="M227.19,605.85c-3.03-3.03-7.95-3.03-10.98,0l-22.72,22.72c-3.03,3.03-3.03,7.95,0,10.98c1.52,1.52,3.5,2.27,5.49,2.27
			c1.99,0,3.97-0.76,5.49-2.27l22.72-22.72C230.22,613.8,230.22,608.88,227.19,605.85z"/>
	</g>
</g>
</svg>
