<?xml version="1.0" encoding="utf-8"?>
<!-- Generator: Adobe Illustrator 23.0.1, SVG Export Plug-In . SVG Version: 6.00 Build 0)  -->
<svg version="1.1" id="Warstwa_1" xmlns="http://www.w3.org/2000/svg" xmlns:xlink="http://www.w3.org/1999/xlink" x="0px" y="0px"
	 viewBox="0 0 1920 412.07" style="enable-background:new 0 0 1920 412.07;" xml:space="preserve">
<style type="text/css">
	.st0{fill:#FFFFFF;}
</style>
<g>
	<path class="st0" d="M297.8,333.63v-45.39h114.6c2.23,0,5.19,0,12.24-9.38c0,0,27.07-38.26,28.93-40.51
		c1.48-3,4.08-9.75,4.08-15.76v-18.38c0-6.75-5.19-12.38-12.24-12.38H280c-6.68,0-12.24,5.63-12.24,12.38v207.82h-44.88V204.22
		c0-31.89,25.59-57.77,57.12-57.77h165.41c31.52,0,57.11,25.88,57.11,57.77v18.38c0,19.88-9.64,37.14-10.76,39.01l-22.62,31.89
		c19.66,9.38,33.38,29.26,33.38,52.52v66.02h-44.88v-66.02c0-6.75-5.19-12.38-11.87-12.38H297.8z"/>
	<path class="st0" d="M602.66,412.04h-44.88V146.45h44.88V412.04z"/>
	<path class="st0" d="M901.95,146.45c31.15,0,56.74,25.88,56.74,57.77v62.64c0,19.88-9.64,37.14-10.76,39.01l-0.37,1.13l-54.89,76.9
		c-8.53,12-22.99,28.13-48.21,28.13H662.74V146.45H901.95z M707.24,191.84v174.8h137.22c2.23,0,5.19,0,11.87-9.38
		c0,0,51.55-72.4,53.41-74.65c1.48-3,4.08-9.75,4.45-15.75v-62.64c0-6.75-5.56-12.38-12.24-12.38H707.24z"/>
	<path class="st0" d="M1044,204.22v47.64h175.42v45.01h-160.59c15.21,21.76,42.65,60.39,42.65,60.39
		c7.05,9.38,10.01,9.38,12.24,9.38h159.48v45.39h-159.48c-25.22,0-39.68-16.13-48.21-28.13l-55.63-78.03
		c-1.11-1.88-10.39-19.13-10.39-39.01v-62.64c0-31.89,25.59-57.77,56.75-57.77h216.96v45.39h-216.96c-3.34,0-6.31,1.13-8.53,3.75
		C1045.48,197.84,1044,200.84,1044,204.22z"/>
	<path class="st0" d="M1405.97,333.63v-45.39h114.6c2.23,0,5.19,0,12.24-9.38c0,0,27.07-38.26,28.93-40.51
		c1.48-3,4.08-9.75,4.08-15.76v-18.38c0-6.75-5.19-12.38-12.24-12.38h-165.41c-6.68,0-12.24,5.63-12.24,12.38v207.82h-44.88V204.22
		c0-31.89,25.59-57.77,57.11-57.77h165.41c31.52,0,57.11,25.88,57.11,57.77v18.38c0,19.88-9.64,37.14-10.75,39.01l-22.62,31.89
		c19.66,9.38,33.38,29.26,33.38,52.52v66.02h-44.88v-66.02c0-6.75-5.19-12.38-11.87-12.38H1405.97z"/>
	<path class="st0" d="M1912.95,146.45v45.39h-189.15c-7.05,0-12.24,5.63-12.24,12.38v9c0,5.63,2.6,9.38,2.6,9.75
		c1.11,1.5,0.37,0.38,17.43,24.01c6.68,9,9.64,9.38,12.24,9.75h119.42c31.15,0,56.74,25.88,56.74,57.77v39.76
		c0,31.89-25.59,57.77-56.74,57.77h-197.31v-45.39h197.31c6.68,0,11.87-5.63,11.87-12.38V314.5c0-6.75-5.56-12.75-11.87-12.75
		h-119.42c-25.22,0-39.69-16.13-48.21-28.13c0,0-16.69-23.26-17.06-23.26c-2.97-4.13-11.87-17.26-11.87-37.14v-9
		c0-31.89,25.59-57.77,57.12-57.77H1912.95z"/>
</g>
<g>
	<path class="st0" d="M320.85,0.12v14.75h-70.49c-1.08,0-2.05,0.37-2.77,1.22c-0.84,0.73-1.21,1.71-1.21,2.8v20.36
		c0,1.95,0.96,4.14,1.45,5.12c0.48,0.73,17.23,24.26,17.23,24.26c2.29,3.05,3.25,3.05,3.98,3.05h36.27c1.08,0,2.05-0.37,2.89-1.1
		c0.72-0.85,1.08-1.83,1.08-2.93V51.32c0-2.31-1.81-4.02-3.98-4.02h-31.09V32.54h31.09c10.24,0,18.56,8.41,18.56,18.77v16.34
		c0,5-1.93,9.75-5.42,13.29c-3.49,3.53-8.19,5.48-13.13,5.48h-36.27c-8.19,0-13.01-5.12-15.79-9.14L235.3,51.93
		c-0.36-0.61-3.49-6.22-3.49-12.68V18.89c0-5,1.93-9.75,5.42-13.29c3.49-3.54,8.19-5.49,13.13-5.49H320.85z"/>
	<path class="st0" d="M364.95,60.95V46.2h37.23c0.72,0,1.69,0,3.98-3.05c0,0,8.8-12.43,9.4-13.16c0.48-0.97,1.33-3.17,1.33-5.12
		v-5.97c0-2.19-1.69-4.02-3.98-4.02h-53.74c-2.17,0-3.98,1.83-3.98,4.02v67.53h-14.58V18.89c0-10.36,8.31-18.77,18.56-18.77h53.74
		c10.24,0,18.56,8.41,18.56,18.77v5.97c0,6.46-3.13,12.07-3.49,12.68l-7.35,10.36c6.39,3.05,10.84,9.51,10.84,17.06v21.45h-14.58
		V64.97c0-2.19-1.69-4.02-3.86-4.02H364.95z"/>
	<path class="st0" d="M540.28,0.12v67.53c0,10.36-8.31,18.77-18.44,18.77h-53.86c-10.24,0-18.56-8.41-18.56-18.77V0.12H464v67.53
		c0,2.19,1.69,4.02,3.98,4.02h53.86c2.17,0,3.98-1.83,3.98-4.02V0.12H540.28z"/>
	<path class="st0" d="M630.77,0.12c10.24,0,18.56,8.41,18.56,18.77v5.97c0,6.46-3.13,12.07-3.49,12.68l-12.89,17.92
		c-2.77,3.9-7.47,9.02-15.66,9.02h-39.52V49.85h39.52c0.72,0,1.81,0,3.98-3.05c0,0,11.57-15.97,12.05-16.82
		c0.48-0.97,1.45-3.17,1.45-5.12v-5.97c0-2.19-1.81-4.02-3.98-4.02H574.5c-2.17,0-3.98,1.83-3.98,4.02v67.53h-14.46V18.89
		c0-10.36,8.19-18.77,18.44-18.77H630.77z"/>
	<path class="st0" d="M751.39,18.77V86.3h-14.58V18.77c0-1.1-0.36-2.07-1.08-2.8c-0.84-0.85-1.81-1.22-2.89-1.22H705
		c-0.72,0-1.69,0-3.86,3.05l-17.35,24.26h46.03v14.63h-56.51l-2.17,3.05c-0.48,0.97-1.45,3.17-1.45,5.12V86.3h-14.46V64.72
		c0-6.34,3.01-11.94,3.37-12.55l0.24-0.37l30.49-42.66C692.11,5.24,696.81,0,705,0h27.83c4.94,0,9.64,1.95,13.13,5.48
		C749.46,9.02,751.39,13.77,751.39,18.77z"/>
</g>
<rect x="126.22" y="391.56" transform="matrix(6.123234e-17 -1 1 6.123234e-17 -263.6542 538.2914)" class="st0" width="22.2" height="18.83"/>
<rect x="101.73" y="331.64" transform="matrix(6.123234e-17 -1 1 6.123234e-17 -252.7085 478.3727)" class="st0" width="22.2" height="67.8"/>
<rect x="62.27" y="256.74" transform="matrix(6.123234e-17 -1 1 6.123234e-17 -256.7416 403.4752)" class="st0" width="22.2" height="146.73"/>
<rect x="82.99" y="242.03" transform="matrix(6.123234e-17 -1 1 6.123234e-17 -200.5838 388.7686)" class="st0" width="22.2" height="105.28"/>
<rect x="93.64" y="217.25" transform="matrix(6.123234e-17 -1 1 6.123234e-17 -154.5067 363.9813)" class="st0" width="22.2" height="83.99"/>
<rect x="75.03" y="163.2" transform="matrix(6.123234e-17 -1 1 6.123234e-17 -137.6858 309.9378)" class="st0" width="22.2" height="121.22"/>
<rect x="114.64" y="167.38" transform="matrix(6.123234e-17 -1 1 6.123234e-17 -62.6442 314.1151)" class="st0" width="22.2" height="42"/>
<rect x="97.98" y="115.3" transform="matrix(6.123234e-17 -1 1 6.123234e-17 -43.866 262.0288)" class="st0" width="22.2" height="75.3"/>
<rect x="87.65" y="69.53" transform="matrix(6.123234e-17 -1 1 6.123234e-17 -18.7645 216.266)" class="st0" width="22.2" height="95.97"/>
<rect x="64.24" y="10.68" transform="matrix(6.123234e-17 -1 1 6.123234e-17 -6.7485 157.4176)" class="st0" width="22.2" height="142.8"/>
<rect x="82.99" y="-5.99" transform="matrix(6.123234e-17 -1 1 6.123234e-17 47.4416 140.7432)" class="st0" width="22.2" height="105.28"/>
<rect x="119.91" y="-4.51" transform="matrix(6.123234e-17 -1 1 6.123234e-17 119.7849 142.2221)" class="st0" width="22.2" height="31.46"/>
</svg>
