<?xml version="1.0" encoding="utf-8"?>
<!-- Generator: Adobe Illustrator 23.0.1, SVG Export Plug-In . SVG Version: 6.00 Build 0)  -->
<svg version="1.1" id="Warstwa_1" xmlns="http://www.w3.org/2000/svg" xmlns:xlink="http://www.w3.org/1999/xlink" x="0px" y="0px"
	 viewBox="0 0 2044 299.27" style="enable-background:new 0 0 2044 299.27;" xml:space="preserve">
<style type="text/css">
	.st0{opacity:0.5;fill:#171711;}
	.st1{fill:#171711;}
</style>
<path class="st0" d="M2044,270.63V0L0,0l0,188C395.13,35.5,712,24.39,898.49,34.1c5.44,0.28,10.77,0.58,15.99,0.9
	c210.46,12.74,411.99,59,411.99,59c284.94,65.4,369.68,138.23,592.97,167C1954.3,265.49,1995.98,269.35,2044,270.63z"/>
<path class="st1" d="M2044,299.27V0L0,0l0,114.36c178.39-45.02,341.14-70.46,488.51-82.1c153.17-12.11,289.73-9.33,409.98,1.84
	c94.93,8.81,179.7,22.85,254.46,38.9C1466.01,140.23,1715.44,266.89,2044,299.27z"/>
</svg>
