<?xml version="1.0" encoding="utf-8"?>
<!-- Generator: Adobe Illustrator 23.0.1, SVG Export Plug-In . SVG Version: 6.00 Build 0)  -->
<svg version="1.1" id="Warstwa_1" xmlns="http://www.w3.org/2000/svg" xmlns:xlink="http://www.w3.org/1999/xlink" x="0px" y="0px"
	 viewBox="0 0 1920 299.27" style="enable-background:new 0 0 1920 299.27;" xml:space="preserve">
<style type="text/css">
	.st0{opacity:0.5;fill:#171711;enable-background:new    ;}
	.st1{fill:#171711;}
</style>
<path class="st0" d="M0,28.64v270.63h1920v-188c-371.16,152.5-668.81,163.61-843.98,153.9c-5.11-0.28-10.12-0.58-15.02-0.9
	c-197.69-12.74-387-59-387-59c-267.65-65.4-347.25-138.23-557-167C84.26,33.78,45.11,29.92,0,28.64z"/>
<path class="st1" d="M0,0v299.27h1920V184.91c-167.57,45.02-320.44,70.46-458.87,82.1c-143.88,12.11-272.15,9.33-385.11-1.84
	c-89.17-8.81-168.8-22.85-239.02-38.9C542.93,159.04,308.63,32.38,0,0z"/>
</svg>
